<svg width="128" height="128" viewBox="0 0 128 128" fill="none" xmlns="http://www.w3.org/2000/svg">
<rect width="128" height="128" rx="64" fill="#DF571C"/>
<path fill-rule="evenodd" clip-rule="evenodd" d="M77.4437 46.0288H50.5822C48.5807 46.1318 47.0006 44.587 46.8953 42.7333L45.5259 17.5015C45.4205 16.5747 45.6312 15.7508 46.2632 15.0299C46.8953 14.4119 47.8433 14 48.7914 14H79.1291C79.9719 14 80.9199 14.309 81.5519 14.8239C82.184 15.5448 82.5 16.3687 82.5 17.2956L81.1306 42.5273C81.1306 44.484 79.5505 45.9259 77.5491 45.9259C77.5491 46.1318 77.4437 46.1318 77.4437 46.0288ZM75.8636 80.0144H52.3729C50.3715 80.1174 48.686 78.5726 48.5807 76.6159L47.2113 51.4871C47.106 50.6632 47.422 49.7364 48.054 49.1184C48.7914 48.5005 49.6341 48.0886 50.5822 48.0886H77.4437C78.2864 47.9856 79.2345 48.3975 79.8665 49.0154C80.4986 49.7364 80.8146 50.5602 80.8146 51.4871L79.4452 76.6159C79.4452 78.5726 77.8651 80.0144 75.8636 80.0144ZM63.9603 114C54.9011 114 47.6327 106.791 47.6327 97.9341C47.6327 89.0772 55.0064 81.9712 64.0656 81.9712C73.1248 81.9712 80.3932 89.1802 80.3932 97.9341C80.3932 106.894 73.1248 114 63.9603 114ZM63.9603 71.5695C63.4336 71.5695 63.0122 71.2606 62.8015 70.8486L58.6933 62.4037V70.4367C58.6933 71.1576 58.1666 71.6725 57.4292 71.6725C56.6918 71.6725 56.1651 71.1576 56.1651 70.4367V57.4603C56.1651 56.7394 56.6918 56.2245 57.4292 56.2245H57.7452C58.2719 56.2245 58.6933 56.5335 58.904 56.9454L63.9603 67.553L69.0166 57.0484C69.2272 56.6365 69.6486 56.3275 70.1753 56.3275H70.4913C71.2287 56.3275 71.7554 56.8424 71.7554 57.5633V70.4367C71.7554 71.1576 71.2287 71.6725 70.4913 71.6725C69.7539 71.6725 69.2272 71.1576 69.2272 70.4367V62.3007L65.119 70.8486C65.0137 71.2606 64.5923 71.5695 63.9603 71.5695ZM56.0598 30.0659C56.0598 34.2884 59.6413 37.7899 63.9603 37.7899C68.3845 37.7899 71.8607 34.2884 71.8607 30.0659C71.8607 25.8435 68.2792 22.3419 63.9603 22.3419C59.6413 22.3419 56.0598 25.8435 56.0598 30.0659ZM58.6933 30.0659C58.6933 27.2853 61.0108 24.9166 63.9603 24.9166C66.9098 24.9166 69.3326 27.1823 69.2272 30.0659C69.2272 32.8466 66.8044 35.2152 63.9603 35.2152C62.331 35.2152 60.8401 34.438 59.8636 33.2513C59.1354 32.3663 58.6933 31.2537 58.6933 30.0659ZM63.9603 105.761C59.6413 105.761 56.0598 102.363 56.0598 98.0371C56.0598 93.7116 59.536 90.3131 63.9603 90.3131C66.1724 90.3131 68.3845 91.24 69.8593 92.8877C70.386 93.4027 70.386 94.1236 69.8593 94.6385C69.3326 95.0505 68.4899 95.0505 68.0685 94.5355C67.0151 93.4027 65.5404 92.7848 63.9603 92.7848C61.0108 92.7848 58.6933 95.1535 58.6933 97.9341C58.6933 100.818 61.1161 103.083 63.9603 103.083C65.3297 103.083 66.6991 102.568 67.7525 101.539C68.3845 100.921 68.9112 99.9938 69.1219 99.0669H65.9617C65.2243 99.0669 64.6976 98.552 64.6976 97.8311C64.6976 97.1102 65.2243 96.5953 65.9617 96.5953H70.5966C71.334 96.5953 71.8607 97.1102 71.8607 97.8311C71.8607 99.8908 71.018 101.848 69.5433 103.289C68.1738 104.937 66.1724 105.761 63.9603 105.761Z" fill="white"/>
</svg>
