<svg xmlns="http://www.w3.org/2000/svg" id="Layer_1" viewBox="0 0 348.74 129.32"><defs><style>.cls-1{fill:#fff;stroke-width:0}</style></defs><path d="m74.1 4.51 36.87 43.73c-15.02.5-45.86 8.91-53.66 67.78-8.51-18.96-23.14-58.47-11.94-85.96C50.32 17.91 59.98 9.32 74.1 4.52M75.26.47c-73.86 22.42-15.7 128.2-15.7 128.2 4.83-69.42 38.52-76.94 52.91-76.94 3.99 0 6.49.58 6.49.58L75.26.47Z" class="cls-1"/><path d="m18.2 10.75 49.28 21.62c-3.34 3.15-7.7 8.44-11.23 16.7-7.66 17.91-8.43 41.71-2.3 70.86C38.71 107.56 5.78 77.42 3.61 46.56 2.69 33.4 7.59 21.36 18.2 10.75m-.75-4.15C-39 59.46 59.56 128.67 59.56 128.67 39.7 49.61 74.27 31.53 74.27 31.53L17.45 6.6Z" class="cls-1"/><path d="M45.72 4.21 92.18 39.3c-5.87 2.07-14.18 6.39-21.5 15.34-11.79 14.4-17 35.55-15.55 62.97-12.42-16.3-36.45-52.42-31.57-82.25C25.67 22.47 33.12 12 45.72 4.21M45.95 0c-66.81 38.26 13.61 128.67 13.61 128.67-9.31-83.35 40.59-87.73 40.59-87.73L45.95 0ZM275.84 123.15c-9.84 0-17.84-8.45-17.84-18.84s8.05-18.64 17.94-18.64c5.99 0 11.04 2.33 15.43 7.11l1.74 1.89v-8.98l-.35-.3c-4.61-3.91-10.2-5.89-16.61-5.89-13.8 0-24.6 10.89-24.6 24.8s10.53 25 24.5 25c6.29 0 12.45-2.34 17.32-6.59l.34-.3v-9.29l-1.77 2.15c-4.12 5-9.98 7.87-16.09 7.87ZM323.64 79.51c-13.68 0-24.8 11.22-24.8 25s11.13 24.8 24.8 24.8 25.1-10.94 25.1-24.9-11.03-24.9-25.1-24.9Zm18.64 25c0 10.45-8.32 18.64-18.93 18.64-9.95 0-18.04-8.36-18.04-18.64s8.09-18.84 18.04-18.84c10.79 0 18.93 8.1 18.93 18.84ZM227.54 79.51c-5.81 0-10.59 2.59-13.38 7.17-2.72-4.58-7.33-7.17-12.91-7.17h-.4c-13.46 0-15.18 10.18-15.18 19.05v29.76h6.46V97.96c0-7.78 1.44-12.29 8.82-12.29 6.55 0 9.22 3.88 9.22 13.38v29.27h6.46v-27.38c0-10.13 3.63-15.26 10.8-15.26s8.82 4.51 8.82 12.29v30.36h6.46V98.57c0-8.87-1.73-19.05-15.18-19.05ZM152.72 79.17c-13.23 0-23.22 10.66-23.22 24.8s9.76 25 23.22 25c9.43 0 17.04-4.59 21.42-12.93l.45-.85-5.5-3.18-.49.92c-3.34 6.28-8.91 9.88-15.29 9.88-4.94 0-9.4-1.78-12.55-5.01-3.08-3.16-4.73-7.4-4.81-12.33h39.77v-.99c.06-7.54-2.46-14.28-7.1-18.95-4.12-4.16-9.63-6.35-15.91-6.35Zm15.92 20.48h-33c1.29-7.8 8.56-13.97 16.72-13.97 8.94 0 14.89 7 16.28 13.97ZM123.54 79.12c-13.8 0-24.6 10.89-24.6 24.8v24.41h6.46v-24.41c0-10.28 8.05-18.64 17.94-18.64.8 0 1.6.04 2.38.13l1.11.12v-6.25l-.92-.07c-.78-.06-1.58-.1-2.37-.1Z" class="cls-1"/></svg>