<svg xmlns="http://www.w3.org/2000/svg" viewBox="0 0 399.99 53.671">
<title>OMG__Ticketmaster</title>
<path fill="#fff" d="M246.05 47.23h-.14c-3.24 4.09-6.47 6.41-11.69 6.41-6.54 0-11.19-3.66-11.19-10.35 0-12 13.38-12.88 22.25-12.88h3.31a11.41 11.41 0 0 0 .28-3.1c0-3.66-3.94-4.72-7.25-4.72a27.86 27.86 0 0 0-11.9 2.82l1.34-7.54a37.09 37.09 0 0 1 12.32-2.18c7.25 0 14.08 2.68 14.08 11.2 0 4.85-3.59 19.08-4.44 25.91h-7.95l1-5.57m-9.22-.49c7 0 9.22-4.86 10.7-10.7h-3.31c-4.57 0-12.18.77-12.18 6.9-.06 2.53 2.38 3.8 4.77 3.8h.02ZM0 23.4h6.83L4.15 35.66A39.54 39.54 0 0 0 3 44.1c0 7 4.5 9.51 10.91 9.51a25.58 25.58 0 0 0 5.07-.85l1.62-7.32a12.72 12.72 0 0 1-4.58.85 3.35 3.35 0 0 1-3.63-3.49 15 15 0 0 1 .42-3.51l3.45-15.85h8.45l1.48-6.9h-8.45l2.33-10.77L9.93 9.08l-1.62 7.46H1.48L0 23.4Zm30.07-6.9h9.43l-7.74 36.3h-9.44l7.75-36.26M33.52.91H43l-2 9h-9.46l1.98-9Zm36.8 16.2a33.17 33.17 0 0 0-9.44-1.41c-13 0-21.41 9.65-21.41 22.32 0 9.36 6.06 15.63 15.43 15.63a20.25 20.25 0 0 0 9.08-1.69l1-7.47a18.47 18.47 0 0 1-7.67 1.84c-6.48 0-8-4.72-8-9.44 0-6.83 4.23-13.87 11.76-13.87A12.81 12.81 0 0 1 68 24.8l2.32-7.69ZM67.14 52.8h9.23l4.08-19.22h.14L90 52.8h10.64L89.72 33.09l17.39-16.55h-12.3L81.65 29.71h-.14L87.77 0h-9.43l-11.2 52.8Zm72.45-29.36h6.83l-2.67 12.26a38.94 38.94 0 0 0-1.2 8.44c0 7 4.51 9.51 10.91 9.51a25.58 25.58 0 0 0 5.07-.85l1.62-7.32a12.62 12.62 0 0 1-4.57.85A3.35 3.35 0 0 1 152 42.8a14.94 14.94 0 0 1 .43-3.51l3.45-15.85h8.45l1.48-6.9h-8.45l2.32-10.77-10.14 3.31-1.62 7.46h-6.83l-1.5 6.9Zm-1.67 6.06c0-9.22-5.92-13.8-14.86-13.8-11.9 0-20.63 10.84-20.63 22.11 0 10.77 7 15.84 17.46 15.84a40.46 40.46 0 0 0 11.55-2l1.2-7.47a26.63 26.63 0 0 1-11.13 2.61c-6 0-9.56-2.14-10-7.85 0-.33-.05-.65-.05-1v-.3a19.63 19.63 0 0 1 1.53-7.2c1.82-4.61 4.38-7.8 9.94-7.8 3.94 0 6 2.18 6 6.05 0 .828-.07 1.654-.21 2.47h-12.94a22.48 22.48 0 0 0-1 6.48H137c.592-2.687.9-5.429.92-8.18v.04Zm25.32 23.3h9.43l3.73-17.24c1.2-4.86 3-12.54 9.37-12.54a4.27 4.27 0 0 1 4.43 4.37 42.3 42.3 0 0 1-1.19 7.74L185.2 52.8h9.44l3.73-17.24c1.2-4.93 2.81-12.54 9.36-12.54a4.27 4.27 0 0 1 4.44 4.37 42.32 42.32 0 0 1-1.2 7.74l-3.8 17.67h9.43l3.81-17.32a41.31 41.31 0 0 0 1.61-9.85A10.08 10.08 0 0 0 212 15.66c-5.07 0-10.35 2.18-12.75 6.9h-.14c-.49-4.36-4.93-6.9-9.22-6.9a13.21 13.21 0 0 0-11.12 5.7h-.14l.84-4.86h-8.8c-.21 1.13-.49 2.61-.77 4l-6.66 32.3Zm124.29-36a38 38 0 0 0-8.83-1.12c-7.47 0-15.7 3-15.7 11.55 0 9.08 12.25 9.64 12.25 15.49 0 2.95-3.31 4-6.48 4-3.66 0-6.34-1.34-9-2.82l-2 7.54a25.83 25.83 0 0 0 11 2.18c8.1 0 16.33-2.82 16.33-12.25 0-8.87-12.25-10.56-12.25-15.14 0-2.88 3.52-3.66 6.34-3.66a15.28 15.28 0 0 1 6.29 1.33l2.05-7.1Zm2.5 6.62h6.83l-2.67 12.26a38.94 38.94 0 0 0-1.2 8.44c0 7 4.51 9.51 10.91 9.51a25.58 25.58 0 0 0 5.1-.83l1.62-7.32a12.72 12.72 0 0 1-4.58.85 3.35 3.35 0 0 1-3.59-3.53 14.42 14.42 0 0 1 .43-3.51l3.45-15.85h8.44l1.48-6.9h-8.44l2.32-10.77L300 9.04l-1.62 7.46h-6.83l-1.52 6.92ZM349 52.8h9.43l3.38-16.26c1.2-5.84 4.44-11.83 11.13-11.83a11.78 11.78 0 0 1 3.59.57l2-9.23a15.24 15.24 0 0 0-3.59-.35c-4.37 0-9 3.73-10.7 7.68h-.15l1.27-6.84h-9c-.28 1.7-.56 3.31-.85 4.86L349 52.8Zm-.07-23.3c0-9.22-5.92-13.8-14.86-13.8-11.9 0-20.63 10.84-20.63 22.11 0 10.77 7 15.84 17.46 15.84a40.4 40.4 0 0 0 11.55-2l1.2-7.47a26.56 26.56 0 0 1-11.13 2.61c-6 0-9.56-2.14-10-7.85 0-.33-.05-.65-.05-1v-.3a19.44 19.44 0 0 1 1.54-7.2c1.81-4.61 4.37-7.8 9.93-7.8 3.94 0 6 2.18 6 6.05 0 .828-.07 1.654-.21 2.47h-12.94a22.481 22.481 0 0 0-1 6.48H348c.6-2.686.912-5.428.93-8.18v.04Zm42.92-15.12a8.15 8.15 0 1 1-8.16 8.16 8.17 8.17 0 0 1 8.14-8.2h.02v.04Zm0 15.09a6.94 6.94 0 1 0-6.62-6.93 6.64 6.64 0 0 0 6.64 6.89l-.02.04Zm-3.14-11.73h3.66c2.19 0 3.27.89 3.27 2.7a2.43 2.43 0 0 1-2.46 2.64l2.72 4.22h-1.66l-2.67-4.22h-1.3v4.22h-1.56v-9.56Zm1.56 4.12h1.85c1.19 0 2-.25 2-1.49 0-1.09-1-1.4-2-1.4h-1.85v2.89Z"/></svg>