<svg xmlns="http://www.w3.org/2000/svg" viewBox="0 0 417.585 132.208">
<title>OMG__Epworth</title>
<path fill="#fff" d="M60.557 0C27.113 0 0 27.116 0 60.563c0 31.482 24.02 57.342 54.73 60.275.159 4.452.274 7.57.3 7.993.108 1.723 2.309 3.377 4.454 3.377 1.402 0 2.717-.826 3.49-1.803-.609.35-1.3.584-2.018.584-2.073 0-4.2-1.599-4.304-3.263-.095-1.594-1.642-45.75-1.644-45.75-5.903 1.37-13.416 2.535-19.258 2.513-11.249-.043-23.276-2.84-23.276-11.7 0-5.366 4.712-11.163 13.14-17.602 6.945-5.306 17.54-9.797 19.17-9.98.427-.048.727.017.88.218.36.477-.047.989-.954 1.548-4.054 2.5-21.454 13.12-21.454 21.7-.004 4.873 6.09 8.242 18.731 8.034 17.525-.292 36.762-6.51 52.931-15.971 0 0 2.466-1.837 3.207-1.007.738.83-.41 1.7-1.478 2.663-3.252 2.941-20.434 13.468-29.338 16.353-.168 3.196-1.388 29.454-1.982 42.166 31.224-2.435 55.795-28.507 55.795-60.348C121.122 27.116 94.015 0 60.557 0ZM44.61 70.99c-4.227 0-6.965-.303-8.706-1.474-1.403-.943-2.21-2.496-2.21-4.56 0-2.426 1.935-5.692 5.772-6.438a.59.59 0 0 1 .601.26.635.635 0 0 1-.018.67c-.25.35-.538.947-.548 1.558-.028 1.71 2.304 2.806 7.288 2.79 6.955-.023 20.377-2.625 33.694-10.223 11.659-6.652 16.684-13.137 16.66-15.737-.025-2.96-3.29-3.323-5.704-3.323-5.551 0-16.02 2.092-27.047 5.438l-.075.025a8.048 8.048 0 0 1-3.612 15.245 8.055 8.055 0 0 1-8.054-8.053c0-2.133 1.067-7.012 9.133-9.291 9.429-2.663 22.834-6.36 31.842-6.36l.016-.001c3.536-.015 13.598.598 13.598 7.382 0 10.979-35.844 32.093-62.63 32.093Zm299.61-12.51c-1.99 2.343-1.883 6.004-1.883 11.558v18.148h-10.08V47.784h9.772v3.802c2.791-3.103 5.816-4.43 10.081-4.43.625 0 2.486.128 3.287.323v9.301c-1.85-.503-7.811-2.263-11.176 1.7Zm-188.9 29.706V32.972h36.37v9.617H166.1v12.95h21.791v9.616h-21.79V78.57h25.59v9.616H155.32Zm203.35-39.24v-11.94h10.08v11.94h8.928v7.679h-8.928V76.01c0 2.328 1.086 3.646 3.491 3.646h5.437v8.53h-7.3c-8.22 0-11.708-5.815-11.708-11.555V48.946Zm48.835 39.24v-24.66c0-5.349-3.413-7.133-6.592-7.133s-6.513 1.86-6.513 7.134v24.66h-10.082V32.971H394.4v18.535c2.714-2.79 6.125-4.189 9.692-4.189 8.84 0 13.493 6.206 13.493 14.736v26.132h-10.08Zm-179.447-3.178c-2.249 2.249-5.893 3.642-9.848 3.642-4.11 0-7.134-1.084-9.771-4.03v18.379h-10.083V47.784h9.772v3.802c2.792-3.103 5.816-4.268 10.082-4.268 3.955 0 7.6 1.399 9.848 3.647 4.033 4.031 4.112 10.933 4.112 16.983 0 6.048-.079 13.027-4.112 17.06Zm-12.793-28.615c-6.05 0-6.826 4.963-6.826 11.555 0 6.59.776 11.633 6.826 11.633 6.047 0 6.822-5.043 6.822-11.633 0-6.592-.775-11.555-6.822-11.555Zm63.973 31.793h-8.297l-8.452-25.358-8.454 25.358h-8.296l-12.41-40.402h10.703l6.514 24.972 8.22-24.972h7.369l8.295 24.972 6.517-24.972h10.622l-12.33 40.402Zm42.493-4.497c-2.48 2.637-6.591 4.961-12.563 4.961s-10.003-2.324-12.484-4.96c-3.645-3.802-4.575-8.376-4.575-15.742 0-7.293.93-11.865 4.575-15.667 2.48-2.636 6.512-4.963 12.484-4.963s10.083 2.327 12.563 4.963c3.647 3.802 4.576 8.374 4.576 15.667 0 7.366-.93 11.94-4.576 15.741ZM313.9 58.177c-1.163-1.164-2.715-1.784-4.731-1.784-2.015 0-3.488.62-4.652 1.784-2.094 2.093-2.327 5.581-2.327 9.77 0 4.188.233 7.755 2.327 9.85 1.164 1.162 2.637 1.784 4.652 1.784 2.016 0 3.568-.622 4.731-1.784 2.095-2.095 2.327-5.662 2.327-9.85 0-4.189-.232-7.677-2.327-9.77Z"/></svg>