<svg xmlns="http://www.w3.org/2000/svg" viewBox="0 0 400 79.485">
<title>OMG__LugCarrie</title>
<path fill="#fff" d="M63.67 33.146h-5.739v5.7h-5.224v-5.7h-5.739v-5.304H26.78v11.003h-7.838V19.507h28.026v8.335h5.74v-5.699h5.223v5.7h5.74v5.303ZM18.943 43.794h7.84c.036 7.319 5.57 12.769 12.96 12.769s12.924-5.45 12.961-12.769h7.84v.107c0 12.118-8.924 21.223-20.8 21.223-11.878 0-20.801-9.105-20.801-21.223v-.107Zm60.543-4.051C79.485 17.793 61.692 0 39.743 0S0 17.793 0 39.743s17.793 39.742 39.743 39.742 39.742-17.793 39.742-39.742m304.46-1.922c3.27 0 5.887 2.08 6.838 5.47h-13.616c.892-3.33 3.508-5.47 6.779-5.47M400 46.324c0-9.216-6.838-15.995-15.935-15.995-9.217 0-16.173 6.779-16.173 15.698 0 9.156 7.254 16.054 16.886 16.054 5.59 0 10.465-2.26 13.676-5.886l-5.827-5.055c-1.427 1.784-4.162 3.39-7.61 3.39-3.806 0-6.72-2.082-7.79-5.471h22.594c.12-.773.179-1.903.179-2.735m-45.01 15.043h8.68V31.043h-8.68v30.324Zm4.34-33.178c2.914 0 5.054-2.14 5.054-5.054 0-2.855-2.14-4.995-5.054-4.995-2.854 0-5.054 2.14-5.054 4.995 0 2.913 2.2 5.054 5.054 5.054m-9.276 2.378c-3.27 0-6.064 1.427-8.206 3.925v-3.45h-8.68v30.325h8.68V47.216c0-4.698 2.914-7.73 8.206-7.73h1.309v-8.919h-1.31Zm-22.06 0c-3.27 0-6.064 1.427-8.205 3.925v-3.45h-8.68v30.325h8.68V47.216c0-4.698 2.914-7.73 8.206-7.73h1.308v-8.919h-1.308Zm-37.815 23.13c-4.222 0-7.373-3.211-7.373-7.492 0-4.28 3.151-7.492 7.373-7.492 4.281 0 7.432 3.211 7.432 7.492 0 4.28-3.15 7.492-7.432 7.492m7.432-22.654v3.033c-2.318-2.38-5.47-3.747-9.156-3.747-8.325 0-14.628 6.839-14.628 15.876 0 9.037 6.303 15.876 14.628 15.876 3.686 0 6.838-1.367 9.156-3.747v3.033h8.681V31.043h-8.68ZM255.1 63.346c7.73 0 14.27-3.568 18.135-9.216l-7.968-4.936c-2.2 3.211-5.886 5.292-10.167 5.292-6.957 0-12.249-5.292-12.249-12.368 0-7.075 5.292-12.366 12.249-12.366 4.281 0 7.968 2.08 10.167 5.291l7.968-4.935c-3.865-5.649-10.405-9.216-18.135-9.216-12.368 0-21.703 9.156-21.703 21.226 0 12.071 9.335 21.228 21.703 21.228m-29.314-23.444h-8.562V31.28h-7.968v8.62h-8.562v7.85h8.562v8.622h7.968V47.75h8.562V39.9Zm-47.091-1.367c3.092 0 5.47 2.2 5.47 5.172 0 2.974-2.378 5.174-5.47 5.174s-5.41-2.2-5.41-5.174c0-2.973 2.259-5.172 5.41-5.172m6.362 22.535h-9.454c-1.605 0-2.735-.892-2.735-2.26 0-.891.475-1.724 1.368-2.318 1.427.415 2.913.594 4.459.594 8.205 0 14.389-5.708 14.389-13.379 0-2.913-.892-5.47-2.378-7.61.297-1.13 1.427-1.843 2.854-1.843h2.14v-8.027h-2.556c-4.162 0-7.195 2.08-8.087 5.351a16.843 16.843 0 0 0-6.362-1.249c-8.206 0-14.33 5.708-14.33 13.378 0 3.747 1.486 7.076 3.984 9.455-2.557 1.546-4.162 4.638-4.162 7.848 0 5.055 3.865 8.444 9.75 8.444h9.455c2.438 0 4.103 1.308 4.34 3.27l8.92-2.438c-1.13-5.827-5.47-9.216-11.595-9.216m-39.005 1.01c8.68 0 14.33-5.113 14.33-12.843V31.043h-8.682v17.005c0 3.39-2.26 5.65-5.648 5.65-3.39 0-5.65-2.26-5.65-5.65V31.043h-8.68v18.194c0 7.73 5.708 12.844 14.33 12.844m-34.13-9.395V20.34h-9.217v41.027h26.341v-8.68h-17.124Z"/></svg>