<svg xmlns="http://www.w3.org/2000/svg" viewBox="0 0 544.759 83.436">
<title>OMG__Samsung</title>
<path fill="#fff" d="M20.7 22.558c-.378-1.57-.29-3.227-.08-4.09.533-2.482 2.217-5.249 7.128-5.249 4.556 0 7.238 2.83 7.238 7.073v4.82H54.41v-5.47C54.411 2.7 39.136 0 28.125 0 14.292 0 2.99 4.592.921 17.309c-.565 3.49-.662 6.562.155 10.497 3.373 15.922 31.051 20.526 35.077 30.6.755 1.874.526 4.28.152 5.751-.638 2.618-2.396 5.26-7.605 5.26-4.865 0-7.775-2.833-7.775-7.09l-.028-7.494H0v5.955C0 78.2 13.675 83.436 28.31 83.436c14.071 0 25.627-4.795 27.512-17.828.937-6.718.234-11.09-.082-12.748-3.287-16.345-32.824-21.186-35.04-30.303Zm253.273.191c-.347-1.538-.246-3.172-.067-4.026.556-2.493 2.232-5.212 7.058-5.212 4.498 0 7.134 2.804 7.134 7.012v4.762h19.2v-5.428c0-16.78-15.043-19.416-25.936-19.416-13.717 0-24.92 4.522-26.966 17.148-.542 3.436-.675 6.486.185 10.378 3.336 15.743 30.744 20.31 34.721 30.266.703 1.886.502 4.29.143 5.708-.596 2.591-2.338 5.197-7.505 5.197-4.847 0-7.763-2.786-7.763-6.985l-.006-7.474h-20.666v5.941c0 17.215 13.483 22.409 28.006 22.409 13.91 0 25.398-4.753 27.24-17.637.88-6.657.217-10.993-.136-12.626-3.22-16.147-32.431-21.004-34.642-30.017Zm176.838 42.433-18.34-62.7h-28.9v77.065h19.117l-1.11-64.707 19.696 64.707h27.718V2.48h-19.243l1.062 62.7ZM83.375 2.482 68.95 80.358h21.038l10.87-72.094 10.61 72.094h20.891L117.993 2.481H83.375Zm117.632 0-9.826 60.875-9.819-60.876h-31.77l-1.686 77.878h19.465l.526-72.094L181.29 80.36h19.748l13.404-72.094.53 72.094h19.513l-1.743-77.878h-31.734Zm180.97 0H362.28v57.612c.03 1.004 0 2.132-.174 2.96-.41 1.933-2.05 5.655-7.483 5.655-5.364 0-7.046-3.722-7.426-5.656-.198-.827-.222-1.955-.198-2.959V2.481h-19.69v55.825c-.024 1.439.088 4.38.174 5.149 1.359 14.547 12.823 19.27 27.14 19.27 14.344 0 25.802-4.723 27.185-19.27.11-.77.253-3.71.168-5.149V2.481Zm135.235 34.164v11.358h7.982v11.27c.024 1.006-.03 2.091-.204 2.961-.316 2.101-2.314 5.68-7.98 5.68-5.631 0-7.592-3.579-7.933-5.68-.143-.87-.204-1.955-.204-2.962V23.68c0-1.259.086-2.636.353-3.679.386-1.898 2.068-5.638 7.742-5.638 5.957 0 7.444 3.944 7.785 5.638.225 1.122.237 3.004.237 3.004v4.321h19.614v-2.554s.088-2.667-.149-5.154C542.98 5.008 530.945.387 517.142.387c-13.827 0-25.62 4.664-27.338 19.23-.155 1.332-.393 3.728-.393 5.154v32.742c0 1.426.046 2.53.311 5.136 1.28 14.207 13.593 19.243 27.365 19.243 13.857 0 26.085-5.036 27.386-19.243.231-2.606.256-3.71.286-5.136V36.646h-27.547Z"/></svg>