<svg width="115" height="71" viewBox="0 0 115 71" fill="none" xmlns="http://www.w3.org/2000/svg">
<path d="M114.662 0.398254L82.1983 23.7847L114.665 46.4738L68.4056 24.5101L90.9556 7.55767H62.7272L57.5254 46.4738L52.3899 7.55767H23.7615L46.6084 24.5068L0 46.4651L32.3611 23.7847L0.00735465 0.398254H114.662ZM21.2516 60.8481C20.3704 60.223 19.2612 59.8098 17.8691 59.8098C15.8098 59.8098 14.2734 61.1878 14.2734 63.0365C14.2734 64.3296 14.9687 65.0965 16.4617 65.9643C17.5709 66.6048 17.9266 66.903 17.9266 67.4138C17.9266 67.9969 17.4994 68.4081 16.7606 68.4081C15.7363 68.4081 14.5575 67.8685 13.8187 67.2139L12.8105 69.2324C13.6917 69.9285 15.0991 70.569 16.6195 70.569C18.9503 70.569 20.4292 69.0626 20.4292 67.1009C20.4292 65.9509 19.8047 65.1105 18.3833 64.2727C17.1317 63.5326 16.7345 63.3053 16.7345 62.7931C16.7345 62.3385 17.0608 61.9259 17.8297 61.9259C18.64 61.9259 19.6202 62.408 20.2888 62.9342L21.2556 60.8441L21.2516 60.8481ZM29.9642 64.6003H26.3109L26.0127 66.0927H29.666L29.9642 64.6003ZM44.7758 59.9816H36.3046L35.8773 62.2001H38.9041L37.2994 70.4005H39.7151L41.3198 62.2001H44.3472L44.7738 59.9816H44.7758ZM57.5963 63.094C57.5963 61.0333 55.9047 59.9108 53.2905 59.9108C52.2963 59.9108 51.5133 59.9816 50.7738 60.0806L48.7694 70.4012H51.185L51.8536 66.9913C52.1244 67.018 52.3517 67.018 52.7054 67.018H52.8479L54.0701 70.4012H56.8133L55.0797 66.5206C56.4737 65.9235 57.5963 64.7722 57.5963 63.094ZM55.0382 63.3781C55.0382 64.4733 54.0139 65.055 52.9348 65.055C52.6499 65.055 52.5369 65.0416 52.2388 65.0115L52.7783 62.1412C52.9833 62.0935 53.193 62.0695 53.4035 62.0697C54.3261 62.0697 55.0382 62.4829 55.0382 63.3768V63.3781ZM71.1288 59.9816H64.7189L62.7004 70.4012H69.0963L69.5369 68.1988H65.5574L65.9411 66.1662H69.5509L69.9641 64.0628H66.3403L66.696 62.2007H70.7036L71.1302 59.9823L71.1288 59.9816ZM86.466 59.9816H84.0496L82.9839 65.4261L78.1525 59.7837L77.8102 59.8412L75.7643 70.4018H78.1799L79.2457 64.93L84.1646 70.6017L84.4194 70.5583L86.466 59.9836V59.9816ZM94.4979 70.4854C98.2782 70.4854 101.463 68.2676 101.463 64.5014C101.463 63.1649 101.036 62.1131 100.312 61.3897C99.3887 60.4664 97.853 59.9108 95.6506 59.9108C94.7406 59.9108 93.9878 59.9816 93.2623 60.0806L91.2732 70.2995C92.6238 70.4419 93.505 70.4834 94.4999 70.4834L94.4979 70.4854ZM96.0183 62.0717C96.8287 62.0717 97.6531 62.2569 98.2361 62.8386C98.6199 63.2224 98.8906 63.8054 98.8906 64.6572C98.8906 67.0595 96.957 68.3245 94.8262 68.3245C94.5848 68.3245 94.3281 68.3111 94.0867 68.281L95.2808 62.1131C95.5356 62.0851 95.7923 62.0697 96.0197 62.0697L96.0183 62.0717Z" fill="white"/>
</svg>
