<svg xmlns="http://www.w3.org/2000/svg" viewBox="0 0 400 92.338">
<title>OMG__Praemium</title>
<path fill="#fff" d="M2.55 65.542c-2.56 4.41-2.55-.69-2.55-.69v-37.56a9.44 9.44 0 0 1 4.43-7.66L37.06.792c4.42-2.55 1.87 1.87 1.87 1.87L2.55 65.542Zm77.76-.13s2.56 4.42 2.56-.68l.06-37.56a9.36 9.36 0 0 0-4.42-7.65L46 .792s-4.43-2.55-1.88 1.87l36.19 62.75Zm-43.39 25.82a9.39 9.39 0 0 0 8.84 0l32.63-18.84s4.42-2.55-.68-2.54l-72.67.1s-5.1 0-.68 2.56l32.56 18.72Zm116.63-28.71h10.55v-13.65c0-6.53 1-11 9-11 1.52.021 3.03.247 4.49.67v-9.21a14.41 14.41 0 0 0-3.52-.34c-4.63 0-7.58 2.09-9.83 6.05h-.14v-5.24h-10.55v32.72Zm32.73-9.34c0 3 3.09 3.3 5.41 3.3 5 0 7-2.82 7-7.13h-1.27c-3.23 0-11.1 0-11.1 3.83m-7.94-18.89c3.86-3.5 9.48-5.25 15-5.25a16.21 16.21 0 0 1 11.1 4c2.82-2.63 7-4 11.47-4 9.84 0 16 6.73 16 17.15v3.16h-24.44a7.78 7.78 0 0 0 7.93 6.32 9.1 9.1 0 0 0 7.53-4l7.37 5.17a18.88 18.88 0 0 1-14.4 6.45c-5.55 0-10.69-1.27-13.64-5.31-3 3.9-8 5.31-14 5.31-6.4 0-12.16-3.49-12.16-10.08 0-10.49 13.56-10.76 21.22-10.76h1.27c0-3.9-2.33-6.59-6.11-6.59a11.47 11.47 0 0 0-8.58 3.9l-5.56-5.47Zm43.08 8.2a6.19 6.19 0 0 0-6.47-6.19c-4.63 0-7.17 3-7.44 6.19h13.91Zm13.52 20h10.53v-16.25c0-4.23.84-8.33 6.32-8.33 4.85 0 4.72 4.9 4.72 7.33v17.28h10.54v-17.28c0-4 1.54-7.33 6.4-7.33 3.44 0 4.63 2.55 4.63 5.58v19h10.54v-19.31c0-7.93-2.81-14.19-12.08-14.19-5.06 0-8.36 1.69-10.83 5.85-1.83-4-5.76-5.85-10.55-5.85-5.12 0-8.56 2.69-10 5.25h-.14v-4.44h-10.12l.04 32.69Zm58.48 0H304v-32.65h-10.58l.04 32.65Zm48.23-32.68H331.1v16.27c0 4.24-.84 8.34-6.32 8.34s-5.48-4.84-5.48-8.61v-16h-10.55v18c0 8.74 2 15.46 12.65 15.46 5.14 0 8.59-2.69 10-5.24h.13v4.44h10.13l.03-32.66Zm-217.8 16.28c0 4.91 3.16 8.27 8.44 8.27s8.43-3.36 8.43-8.27-3.16-8.27-8.43-8.27-8.44 3.36-8.44 8.27m-9.69-16.35h9.69v4.31h.11a13.37 13.37 0 0 1 10.47-5.11c10.12 0 16.8 7 16.8 16.88 0 9.07-5.9 17.41-15.61 17.41-4.36 0-8.43-1.14-10.82-4.3h-.15v27.15H114.2v-56.34Zm232.1 32.78h10.54v-16.28c0-4.23.85-8.33 6.32-8.33 4.86 0 4.72 4.9 4.72 7.33v17.28h10.54v-17.28c0-4 1.55-7.33 6.39-7.33 3.45 0 4.65 2.55 4.65 5.58v19H400v-19.31c0-7.93-2.81-14.19-12.09-14.19-5.07 0-8.36 1.69-10.82 5.85-1.84-4-5.77-5.85-10.55-5.85-5.13 0-8.58 2.69-10 5.25h-.14v-4.44h-10.1v32.72Zm-53.72-41.75a6.11 6.11 0 1 0 6.11-6.11 6.1 6.1 0 0 0-6.11 6.09v.02"/></svg>