<svg xmlns="http://www.w3.org/2000/svg" viewBox="0 0 460.5 57.402">
<title>OMG__AGCoombs</title>
<path fill="#fff" d="M54.8 4.9V0H0v55.6h4.8c0-28 22.4-50.7 50-50.7m0 16.9V7.1C28.4 7.1 6.9 28.8 6.9 55.6h14.5c-.001-18.512 14.89-33.58 33.4-33.8m0 16.9V24c-17.33.138-31.283 14.27-31.2 31.6h14.5c0-9.256 7.445-16.79 16.7-16.9m0 2.2c-8.003-.006-14.495 6.476-14.502 14.478 0 .074 0 .148.002.222h14.5V40.9Zm44.7-24.6-7.8 21.9h15.7l-7.9-21.9Zm14 40.1-3.2-8.6H88.7l-3.2 8.6H73.4l19.4-51h13.4l19.4 51h-12.1Zm15.2-4a4.65 4.65 0 1 1 4.7 4.7 4.9 4.9 0 0 1-4.7-4.7m7.8-21.4c0-16.1 12.1-26.4 26.8-26.4A23.27 23.27 0 0 1 184 16l-8.8 4.9a14.47 14.47 0 0 0-11.9-6.7c-9.2 0-15.8 7.1-15.8 16.7s6.6 16.8 15.8 16.8a16.3 16.3 0 0 0 10.6-3.9v-6.1h-13.2v-9.5h24v19.6a27.89 27.89 0 0 1-21.4 9.6c-14.8 0-26.8-10.4-26.8-26.4m52.1 21.4a4.65 4.65 0 1 1 4.7 4.7 4.83 4.83 0 0 1-4.7-4.7m8.9-21.4c0-15.8 11.7-26.4 26.8-26.4 11 0 17.4 6 21 12.5l-9.2 4.6a13.49 13.49 0 0 0-11.8-7.4c-9.2 0-15.8 7.1-15.8 16.7s6.6 16.7 15.8 16.7a13.69 13.69 0 0 0 11.8-7.4l9.2 4.5c-3.5 6.3-10 12.5-21 12.5-15.2 0-26.9-10.7-26.8-26.3m77.9 6.9c0-5.7-3.3-10.7-9.3-10.7s-9.3 5-9.3 10.7 3.3 10.8 9.3 10.8 9.3-5 9.3-10.8m-28.5 0c0-10.5 7.2-19.3 19.2-19.3s19.3 8.9 19.3 19.3-7.2 19.4-19.3 19.4-19.2-8.9-19.2-19.4m70.4 0c0-5.7-3.3-10.7-9.3-10.7s-9.3 5-9.3 10.7 3.3 10.8 9.2 10.8 9.4-5 9.4-10.8m-28.6 0c0-10.5 7.2-19.3 19.2-19.3s19.3 8.9 19.3 19.3-7.2 19.4-19.3 19.4-19.2-8.9-19.2-19.4m87.1 18.5V33.1c0-3.4-1.5-5.9-5.4-5.9a9.64 9.64 0 0 0-7.5 4.3v24.9h-9.6V33.1c0-3.4-1.5-5.9-5.4-5.9-3.3 0-6.1 2.3-7.5 4.3v24.9h-9.6V19.5h9.6v4.7a16.51 16.51 0 0 1 11.9-5.7c5.4 0 8.8 2.5 10.1 6.6a15.32 15.32 0 0 1 12.5-6.6c6.7 0 10.7 3.6 10.7 11.2v26.7h-9.8Zm33.3-7.7c5.5 0 9.2-4.4 9.2-10.8s-3.7-10.7-9.2-10.7a10.87 10.87 0 0 0-8.3 4.3v13.1a10.37 10.37 0 0 0 8.3 4.1m-17.9 7.7v-51h9.6v18.8a13.83 13.83 0 0 1 11.2-5.7c9.3 0 16.1 7.3 16.1 19.3 0 12.4-6.9 19.4-16.1 19.4a14 14 0 0 1-11.2-5.6v4.7l-9.6.1Zm37.3-4.8 4.1-7a20.21 20.21 0 0 0 12.6 5.1c4.1 0 6.1-1.6 6.1-3.9 0-6-21.6-1.1-21.6-15.6 0-6.2 5.3-11.6 14.9-11.6a23.36 23.36 0 0 1 14.6 5.1l-3.8 6.9a15.54 15.54 0 0 0-10.8-4.3c-3.5 0-5.7 1.5-5.7 3.6 0 5.4 21.6.8 21.6 15.7 0 6.8-5.7 11.8-15.8 11.8-6.3 0-12.4-2.1-16.2-5.8"/></svg>