<svg xmlns="http://www.w3.org/2000/svg" viewBox="0 0 249.911 206.711">
<title>OMG__RMS</title>
<path fill="#fff" d="M219.96 83.906c-.76.95-1.48 1.92-2.27 2.84a14.47 14.47 0 0 1-10.39 5c-3.22.22-6.29-.4-8.76-2.71a15.63 15.63 0 0 1-1.31-1.5c-.57-.69-1-.71-1.52 0a18 18 0 0 1-7.71 6c-3.25 1.24-6.58 1.67-9.9.18a9.42 9.42 0 0 1-4.57-4.78c-.28-.59-.54-1.19-.86-1.92a37.492 37.492 0 0 1-2.88 4.08 28.13 28.13 0 0 1-9.26 7.14 68.518 68.518 0 0 1-7.22 2.92c-.48.17-.6.56-.79.92a113.199 113.199 0 0 1-9.37 15.08 39.69 39.69 0 0 1-9 9.11 15 15 0 0 1-8.89 3 9.08 9.08 0 0 1-9-8.95c-.12-4.37 1.92-7.62 5.07-10.34a56.58 56.58 0 0 1 11.27-7c1.5-.78 3-1.54 4.49-2.49-1.22-.06-2.43-.17-3.64-.16-3.94.05-7.88-2.43-8.89-6.31-.089-.268-.199-.529-.33-.78a17.06 17.06 0 0 1-4.57 2.3 14.76 14.76 0 0 1-7.8.16 1 1 0 0 0-1.16.51 22.4 22.4 0 0 1-7.49 7.13 18.32 18.32 0 0 1-8.48 2.4 14.7 14.7 0 0 1-7.31-1.3 12.09 12.09 0 0 1-6.25-7.38c-1.81-5.49-1.19-10.9.69-16.25a29.39 29.39 0 0 1 6.1-10.16 21.85 21.85 0 0 1 11.49-6.85 14.58 14.58 0 0 1 10.49 1.1 11.88 11.88 0 0 1 5.92 7.51 24.52 24.52 0 0 1-.81 15.44c-.36 1-.3 1.08.77 1.23 4.44.58 7.13-1.76 9.23-5.29 1.46-2.46 2-5.24 2.82-7.91 1.17-3.6 2.24-7.24 3.36-10.86.19-.63.4-1.26.57-1.9a4.07 4.07 0 0 1 3.71-3.22c1.78-.24 3.58-.43 5.38-.55 1.43-.1 2.12.84 1.7 2.21-2.09 6.76-4.24 13.5-6.25 20.28a40.79 40.79 0 0 0-1.81 7.4 3.1 3.1 0 0 0 1.14 3.12 3.3 3.3 0 0 0 3.76-.16 18.73 18.73 0 0 0 8.1-9.59c1.71-4.34 2.92-8.85 4.35-13.3 1-3.22 2-6.47 3.1-9.68a3.46 3.46 0 0 1 3-2.36c1.91-.29 3.83-.52 5.75-.74a1.63 1.63 0 0 1 1.73 2.26c-1.15 3.77-2.33 7.54-3.51 11.3-.96 3.08-1.923 6.163-2.89 9.25l-4 12.65c-.15.48-.27 1-.44 1.57a14 14 0 0 0 3.93-1.47c5.75-2.66 9.35-7.37 12.19-12.82a31.4 31.4 0 0 0 2.4-6.71 29.29 29.29 0 0 1 6.1-11.49 24.24 24.24 0 0 1 7.92-6.37c3.86-1.89 7.87-2.69 12.07-1.17a8 8 0 0 1 2.82 1.88c.296.312.566.647.81 1a2.77 2.77 0 0 0 .71-1.7 4.12 4.12 0 0 1 3.92-3.37c1.58-.16 3.16-.33 4.72-.6 1.81-.31 2.74.85 2.11 2.76-1.55 4.65-2.95 9.34-4.41 14-1.25 4-2.39 8-3.47 12.06a5 5 0 0 0-.33 2c.26 2.14 2.17 3.21 4.35 2.45a11.51 11.51 0 0 0 5.11-3.92 44.19 44.19 0 0 0 6-10.61c1-2.42 1.63-5 2.41-7.47 1.51-4.85 3-9.73 4.47-14.59 1.61-5.21 3.25-10.42 4.83-15.63a3.62 3.62 0 0 1 2.58-2.58 36.9 36.9 0 0 1 6.45-.86c1.39-.1 2 .92 1.58 2.33-.69 2.19-1.45 4.37-2.15 6.56s-1.29 4.2-1.95 6.32c-1.5 4.86-3 9.72-4.52 14.57s-3.13 9.79-4.48 14.75c-.462 1.487-.839 3-1.13 4.53-.19 1.36-.09 2.71 1.14 3.57s2.64.5 3.92-.14a17.47 17.47 0 0 0 7-7 67.8 67.8 0 0 0 3.6-6.79 2.26 2.26 0 0 1 2.44-1.57 2.53 2.53 0 0 1 2.15 2.48 7.92 7.92 0 0 1-1.09 4.1 66.287 66.287 0 0 1-4.57 8.56 18.37 18.37 0 0 1-7.4 6.8 19 19 0 0 1-6.14 1.52 11.91 11.91 0 0 1-6-.78c-2.36-1.03-2.93-1.61-4.75-4.25Zm-130 5.36a14.51 14.51 0 0 0 .17 2.55c.162.775.39 1.534.68 2.27a5.6 5.6 0 0 0 7.2 3.29h.09c3.36-1.26 5.47-3.79 7.11-6.82a.78.78 0 0 0 0-.82 12.6 12.6 0 0 1-1.54-6.88c.15-2.88 1-5.35 3.65-6.91a.69.69 0 0 0 .4-.84 5.77 5.77 0 0 0-5.12-4.2c-3 0-5.21 1.55-7.06 3.63a22.55 22.55 0 0 0-5.53 14.73h-.05Zm91-7.69a8.07 8.07 0 0 0 .59 3.11 3.35 3.35 0 0 0 4.7 1.45 18 18 0 0 0 4-2.62 24.43 24.43 0 0 0 7.09-9.64 36.81 36.81 0 0 0 2.73-9.68 3.89 3.89 0 0 0-1.66-3.36c-2.08-1.17-4-.39-5.88.5a18.68 18.68 0 0 0-7.38 6.95 25.24 25.24 0 0 0-4.22 13.29h.03Zm-40.4 23.49a1.87 1.87 0 0 0-.4.07 86.658 86.658 0 0 0-11.14 6.27 10.53 10.53 0 0 0-3.82 4.2c-1.07 2.44.18 4.79 2.55 4.76a6.17 6.17 0 0 0 4.21-2.17c3.78-3.69 6.11-8.38 8.6-13.13Zm21.82 42.69c.08 2.3-.208 4.6-.85 6.81-.08.28-.23.64.06.81a2.23 2.23 0 0 0 1.75.22 7.17 7.17 0 0 0 4.7-3.56 18.2 18.2 0 0 0 1.87-4.51c1.3-5.67 2.63-11.33 4.14-17 .36-1.38 2-2.56 3.91-2.77a31.15 31.15 0 0 0 4.08-.62 1.79 1.79 0 0 1 1.84.67 2 2 0 0 1 .44 2c-.48 1.66-.83 3.39-1.25 5.08-.92 3.71-1.88 7.42-2.76 11.14-.64 2.7-1.18 5.43-1.76 8.14a3.38 3.38 0 0 0-.1.71c0 .94-.23 2.07.88 2.51s2.13-.21 3.07-.84a16.52 16.52 0 0 0 5.51-6.83 20.42 20.42 0 0 0 1.59-4.73c.63-2.89 1.33-5.77 2-8.65s1.48-5.84 2.19-8.76a4.21 4.21 0 0 1 3.27-3.07c1.54-.25 3.11-.36 4.62-.75a2.09 2.09 0 0 1 2.51 2.53c-.27 1.46-.67 2.93-1 4.39-.49 2-1 3.89-1.49 5.84-.6 2.44-1.18 4.883-1.74 7.33-.54 2.37-1.12 4.73-1.56 7.12a2.77 2.77 0 0 0 3.16 3c1-.26 2.12-.07 3-.77a21.79 21.79 0 0 0 2.9-2.62 20.65 20.65 0 0 0 3.08-4.85 24.73 24.73 0 0 0 1.27-3.26c.701-2.33 1.269-4.696 1.7-7.09a26 26 0 0 0 .36-6.82 4 4 0 0 0-.94-2.27 1.66 1.66 0 0 1-.26-2.21 6.73 6.73 0 0 1 5.43-3.45 8.8 8.8 0 0 1 4.8 1.06 5.88 5.88 0 0 1 2.35 2.9 16.42 16.42 0 0 1 1.43 5.55 25.51 25.51 0 0 1-1.25 9.81 26.93 26.93 0 0 1-2.55 5.91c-.88 1.45-1.85 2.84-2.82 4.22a40.81 40.81 0 0 1-4.1 4.58 27.72 27.72 0 0 1-4.7 3.73 36.66 36.66 0 0 1-8.61 4 12.82 12.82 0 0 1-10.14-.36 7.7 7.7 0 0 1-2.18-1.58c-.41-.44-.71-.39-1.09.07a18.41 18.41 0 0 1-4.49 4.23 12.34 12.34 0 0 1-5.84 1.83 11.33 11.33 0 0 1-5.1-.48 8.13 8.13 0 0 1-4.5-4.14c-.36-.78-.75-.87-1.46-.42a12.33 12.33 0 0 1-8.87 1.82 1.19 1.19 0 0 0-1.42.67 20.55 20.55 0 0 1-6.21 6.64 16.55 16.55 0 0 1-8.3 2.56 12.4 12.4 0 0 1-5.36-.77 10.83 10.83 0 0 1-5.27-4.52c-.62-1-.9-1-1.5 0a22.21 22.21 0 0 1-4.45 5.72 12.07 12.07 0 0 1-4.14 2.42 13.89 13.89 0 0 1-6.85.74 8.29 8.29 0 0 1-7-7.21 24.94 24.94 0 0 1 .66-8.48c.84-3.77 1.58-7.55 2.36-11.33a2.42 2.42 0 0 0-.77-2.39c-.65-.55-1.37-.21-2.09.07-2.23.88-3.53 2.63-4.71 4.61a36.39 36.39 0 0 0-3.77 9.07c-.67 2.39-1.16 4.82-1.77 7.23-.86 3.42-1.69 6.86-2.66 10.25-.6 2.08-2.32 2.77-4.35 3-1.31.13-2.61.36-3.92.5a1.71 1.71 0 0 1-1.86-1.56.66.66 0 0 1 0-.14 19.6 19.6 0 0 1 .92-4.86c.4-1.72.817-3.44 1.25-5.16.88-3.51 1.72-7 2.58-10.54s1.73-6.94 2.59-10.41c.62-2.45 1.27-4.9 1.84-7.37.69-3 1.28-6 2-9 .5-2.17 1-4.32 1.62-6.47.65-2.33.95-4.7 1.43-7a11.63 11.63 0 0 0 .34-3.27 2.31 2.31 0 0 0-.11-.69c-.92-1-.33-1.72.31-2.43a5.67 5.67 0 0 1 8.14-.33 5.51 5.51 0 0 1 1.16 2.79 18.18 18.18 0 0 1 0 6.82c-.39 2.36-1.13 4.66-1.71 7l-1.59 6.55c-.33 1.41-.69 2.83-1 4.24-.08.3-.11.58.18.79s.49 0 .72-.1a11.45 11.45 0 0 1 8-1.4c3 .48 5 2.47 6 5.27.45.947.744 1.96.87 3a27.61 27.61 0 0 1-.31 6.29c-.64 3.5-1.44 7-2.13 10.48a5.51 5.51 0 0 0-.38 2.48 1.85 1.85 0 0 0 1.94 1.4 6 6 0 0 0 3.43-1.84c2.46-2.46 3.83-5.59 5.27-8.69a29.41 29.41 0 0 0 1.66-6.25 28.36 28.36 0 0 1 4.76-10.72 22.42 22.42 0 0 1 5.37-5.45 17 17 0 0 1 7.42-2.93 12.55 12.55 0 0 1 5.32.16 10.81 10.81 0 0 1 6.57 4.8 17.34 17.34 0 0 1 2.5 10.23l-.08-.07Zm-22.88 9.65a9.81 9.81 0 0 0 1.06 4.54 4.16 4.16 0 0 0 5.32 2.14c2.82-1.16 4.45-3.39 5.75-6a1 1 0 0 0-.16-1c-1.42-2.38-1.52-5-1.37-7.65a7.51 7.51 0 0 1 2.74-5.27.69.69 0 0 0 .25-.83 4.43 4.43 0 0 0-5-2.48 8.87 8.87 0 0 0-4.7 3.46 21.8 21.8 0 0 0-3.9 13l.01.09Zm-72-43.8 4.84-1.33a21.57 21.57 0 0 1 9.12-.84 17.73 17.73 0 0 1 6.65 2.29 8.83 8.83 0 0 1 4.53 7.31 14.53 14.53 0 0 1-.86 5.62 40.37 40.37 0 0 1-3.59 8.06 50.58 50.58 0 0 1-4.32 6.14 29.49 29.49 0 0 1-4.28 4.3 10.26 10.26 0 0 1-3.82 2.15 5.2 5.2 0 0 1-4.62-1c-1.21-.87-1.4-2.21-1.57-3.51a4.33 4.33 0 0 1 .19-2.74c.52-.86 1.66-.65 2.53-1a13.93 13.93 0 0 0 6.47-5.07 19.58 19.58 0 0 0 3.59-7.2 14.48 14.48 0 0 0 .06-5.37c-.4-3-3.71-4.52-6.76-3.33a48.231 48.231 0 0 0-7.08 3.54c-.66.4-.59.76 0 1.08a3 3 0 0 0 3 0c.74-.41 1.47-1.17 2.31-.56s.63 1.58.53 2.5a4 4 0 0 1-1.77 3.15 7.43 7.43 0 0 1-3.19.89 14.68 14.68 0 0 1-7.75-1.3c-.66-.31-1 0-1.46.38a39.362 39.362 0 0 0-3.49 3.7 21.16 21.16 0 0 0-4.93 10.22 24.82 24.82 0 0 0-.28 6.44 17.75 17.75 0 0 0 3.11 8.44c2.11 3.23 5.18 5.25 8.15 7.45 2.16 1.59 4.33 3.17 6.38 4.88a17.5 17.5 0 0 1 3.2 4.32c2.11 3.33 2.46 7 2.2 10.85a18.2 18.2 0 0 1-.82 4.51 38.46 38.46 0 0 1-3.36 7.46 20.6 20.6 0 0 1-4.76 5.77 22 22 0 0 1-8.85 4.21 19.51 19.51 0 0 1-7.36.57 13.42 13.42 0 0 1-7.32-3.24c-2.92-2.69-3.69-6.06-3.2-9.78a19.47 19.47 0 0 1 3.63-9.28c2.44-3.21 5.38-4.11 9.16-3.51a1.59 1.59 0 0 1 .82 2.5c-.7.84-1.33 1.71-2 2.58a4.91 4.91 0 0 0 .43 6.55 4.23 4.23 0 0 0 2.69 1.07 11 11 0 0 0 10.78-6.16 9.92 9.92 0 0 0 1-6.46c-.33-1.84-1.71-3-2.88-4.29a26.94 26.94 0 0 0-9.67-6.67c-2.18-.94-3.88-2.66-5.79-4-2.12-1.54-3.57-3.65-5.18-5.63a17.21 17.21 0 0 1-3.19-6.33 21.44 21.44 0 0 1-.34-9.11 35.92 35.92 0 0 1 2.45-8.69 34.5 34.5 0 0 1 3.91-7 29.13 29.13 0 0 1 6.64-6.61c1.64-1.15 3.19-2.43 4.93-3.44a.63.63 0 0 0 .33-.73c-.63-3.82-.25-7.67-.33-11.5v-9.24a46.23 46.23 0 0 0-.44-4.85c-.08-.66-.36-.71-.87-.65a12.23 12.23 0 0 1-5.57-.46 7.22 7.22 0 0 1-3.4-11.25 7.49 7.49 0 0 1 4.73-3 8.59 8.59 0 0 1 6.23 1.58 11.83 11.83 0 0 1 3.05 3.1c.73 1 .83 1 1.74.22a24.16 24.16 0 0 0 7.35-12.57 23.29 23.29 0 0 0 .82-6.34c-.26-5.69-2.13-10.69-7-14.12a13.74 13.74 0 0 0-8.33-2.38 26.63 26.63 0 0 0-14.08 4.45 35 35 0 0 0-8.1 7.12 42.359 42.359 0 0 0-4.1 5.76 2.5 2.5 0 0 1-2.79 1.17 1.88 1.88 0 0 1-1.33-2.1 14.45 14.45 0 0 1 1.37-6 23.57 23.57 0 0 1 7-9.4 38.82 38.82 0 0 1 8.24-4.88 41.93 41.93 0 0 1 12.13-3.41 31.23 31.23 0 0 1 7.29.11 22.64 22.64 0 0 1 7.18 1.94 18.15 18.15 0 0 1 7.68 6.32c2.79 4.24 4.77 8.78 5 14a29.78 29.78 0 0 1-3.78 16.43 25 25 0 0 1-10.72 10.31c-1.33.64-.77 1.47-.53 2.28a53.11 53.11 0 0 1 2 10.89c.366 3.892.516 7.801.45 11.71l-.03.01Zm-16.44-30.52c-.67.12-1.38.26-1.69 1a1.53 1.53 0 0 0 .41 1.92 3.66 3.66 0 0 0 2.7.92c1.86-.12 2-.45 1-2.07a3.35 3.35 0 0 0-2.39-1.78l-.03.01Zm11.32-81.83a38.49 38.49 0 0 1 8.1.28 5.34 5.34 0 0 1 4.54 4.33c.08.351.211.688.39 1 .91 1.54 2.07 1.88 3.61 1a22.88 22.88 0 0 1 12-3.07c2.601.022 5.177.517 7.6 1.46 2.06.84 4.27 1.33 6.25 2.31 3.87 1.91 7.31 4.42 9.46 8.31a9.18 9.18 0 0 1 .75 1.66 1.72 1.72 0 0 1-1.81 2.36 23.16 23.16 0 0 0-5.7-.12c-3.91.61-7.73 1.48-11 4-2 1.56-4.11 3.07-6 4.78-1.06 1-2.23 1.77-3.38 2.61a2.93 2.93 0 0 1-1.16.5 12.83 12.83 0 0 1-5.2 0 10.07 10.07 0 0 1-5.84-4.39 3.71 3.71 0 0 0-4.4-1.9 27.54 27.54 0 0 0-6.3 1.81c-.9.443-1.751.979-2.54 1.6a4.62 4.62 0 0 1-2.8 1.15 2.08 2.08 0 0 1-2-2.42c.83-3.849.222-7.868-1.71-11.3a28 28 0 0 0-4.32-6.62 5.23 5.23 0 0 0-1.85-1.2c-1-.63-1.26-.71-1.42-1.43s.39-1.18 1-1.58a35.33 35.33 0 0 1 8.68-4.2 18.63 18.63 0 0 1 5.08-.94l-.03.01Zm9.31 20.25c.67.07 1-.35 1.05-1.12a3.19 3.19 0 0 0-.33-1.55 74.827 74.827 0 0 1-3.5-7.55c-.24-.69-.2-1 .57-1.18.54-.13 1.17-.38 1.26-1.07s-.34-1.08-.82-1.45a2.82 2.82 0 0 0-1.3-.54 22 22 0 0 0-5.95.2 30.68 30.68 0 0 0-4.71 1.16c-.74.2-.81.76-.17 1.21a5 5 0 0 0 4.16 1.06c1.66-.39 2.61.07 3.18 1.29 1.21 2.53 2.4 5.07 3.69 7.56a3.18 3.18 0 0 0 2.93 2l-.06-.02Zm9.78-.39c0-.28.1-.55.16-.82.15-.51.45-1 1-1s.57.62.7 1c.2.61.31 1.24.56 1.82a3.68 3.68 0 0 0 2.35 2.4 1.34 1.34 0 0 0 1.4-.27c.36-.38-.11-.7-.28-1-.37-.71-.69-1.43-1.05-2.14a11.29 11.29 0 0 0-2.36-3.83 2.89 2.89 0 0 0-3.12-.57c-1 .54-1.16.45-1.37-.64a6 6 0 0 0-.86-2.45c-.45-.6-1.08-1.17-1.89-.75a1.64 1.64 0 0 0-.73 2.06 45.93 45.93 0 0 0 2.89 7.55c.63 1.29 1.25 2.58 2 3.82a1.49 1.49 0 0 0 1.61.61.59.59 0 0 0 .42-.71 9.52 9.52 0 0 0-.78-2.89 4.77 4.77 0 0 1-.62-2.18l-.03-.01Zm6.16-8.42a7.18 7.18 0 0 0 4.83 6.65 3.47 3.47 0 0 0 4.52-3.41 1.2 1.2 0 0 0-.86-1.2c-.59-.16-.93.22-1.16.72a3.88 3.88 0 0 1-.63 1.1c-.38.39-.82.81-1.44.36s-.4-.82 0-1.36a2.19 2.19 0 0 0 .51-2.27 6.56 6.56 0 0 0-2.36-2.74c-1.88-1.09-3-.73-3.39 1.19a3.94 3.94 0 0 0 0 1l-.02-.04ZM3.7 111.226c3.3 3.23 7.4 3.9 11.72 3.83a16.21 16.21 0 0 0 4.88-1.09c6.1-2.09 10.34-6.36 13.76-11.62a61.31 61.31 0 0 0 4.88-9.46 82.41 82.41 0 0 0 4.02-11.33c1.37-5.22 2.46-10.51 3.78-15.75.93-3.7 2-7.35 3.17-11 .44-1.42 1.21-2.79.95-4.39-.1-.59-.33-.83-.93-.83a3.86 3.86 0 0 0-2.38 1c-3.37 2.6-5.49 6.12-7.24 9.9s-3.28 7.75-4.7 11.72c-1.93 5.41-3.74 10.87-5.87 16.21a47.12 47.12 0 0 1-7 12.6 14.94 14.94 0 0 1-6.64 5c-4.43 1.54-8-1-8.85-4.51a6.28 6.28 0 0 1 2.2-6.4 14.18 14.18 0 0 1 9-4.24 1.29 1.29 0 0 0 1-.42c.64-.8.32-4-.46-4.7a6.56 6.56 0 0 0-7.33-1 21.84 21.84 0 0 0-5.36 3.19 13.19 13.19 0 0 0-3.19 3.55 23.34 23.34 0 0 0-2.33 5.69 17.15 17.15 0 0 0-.77 4.08 13.76 13.76 0 0 0 3.72 9.96l-.03.01Zm186.05-82.08c0-3.08 0-6.17.05-9.25a7.227 7.227 0 0 0 0-.8c0-.42-.24-.59-.69-.5-1.61.3-3.24.57-4.85.86a1 1 0 0 0-.93 1.06c-.09 1.94-.23 3.86-.37 5.8a139.005 139.005 0 0 0-.64 17.07c0 .67.27.94.91.85 1.15-.17 2.31-.33 3.46-.52a1.66 1.66 0 0 0 1.24-.89c.88-1.55 1.78-3.08 2.68-4.62s1.8-3 2.71-4.5c.14-.22.34-.48.63-.42s.33.38.35.64c.11 1 .24 1.95.31 2.93.14 1.85.23 3.7.34 5.56 0 .6.21.92.93.76 1-.24 2.09-.36 3.14-.55a2.51 2.51 0 0 0 2-1.7c2.15-5.18 4.35-10.31 6.54-15.48 1.35-3.18 2.71-6.35 4.05-9.53.36-.85.16-1.08-.74-.92-1.2.21-2.39.45-3.59.69a2 2 0 0 0-1.46 1.21c-2 4.153-4 8.29-6 12.41-.15.33-.33.68-.76.73a.76.76 0 0 1-.29-.71c0-1-.06-1.91 0-2.87.15-2.117.15-4.243 0-6.36 0-.23 0-.46-.34-.55a4 4 0 0 0-3.55 1.41c-1.07 2-2.1 4-3.16 6.08-.55 1-1.12 2-1.72 3.16a1.44 1.44 0 0 1-.22-1.06l-.03.01Zm-37.74 12.73c.58 2.1 1.2 4.19 1.69 6.32.18.75.49 1 1.18.89 1.4-.12 2.8-.27 4.2-.3a1.67 1.67 0 0 0 1.88-1.38c.64-2.32 1.33-4.65 2-7 1.66-5.82 3.327-11.643 5-17.47.29-1 .11-1.24-1-1.09s-2.09.35-3.14.49a1.24 1.24 0 0 0-1.15 1c-1.4 4.353-2.813 8.687-4.24 13-.13.38-.18 1-.66 1s-.48-.61-.54-1a92.358 92.358 0 0 1-.93-12c0-.75-.26-.93-.94-.79a25.66 25.66 0 0 1-2.75.4 1.57 1.57 0 0 0-1.49 1.31c-.87 3.14-1.73 6.29-2.66 9.42-1.51 5-3.09 10-4.65 15-.32 1-.22 1.15.79 1.07s2.06-.25 3.09-.26 1.42-.54 1.66-1.45c.58-2.21 1.23-4.39 1.87-6.58.1-.36.13-.81.66-1 .065.132.119.27.16.41l-.03.01Zm-39.63-13.37c-.16 4.63-.54 9.14-.88 13.67-.21 2.75-.21 5.51-.53 8.25-.2 1.75-.17 1.75-1.94 2-1.44.2-2.89.4-4.32.63-.6.09-.76-.13-.7-.7.21-1.63.38-3.26.59-4.89.12-1-.11-1.19-1.07-1-1.12.21-2.23.44-3.36.62a2 2 0 0 0-1.66 1.3c-.74 1.76-1.58 3.48-2.28 5.26a1.9 1.9 0 0 1-1.67 1.27c-1.33.17-2.67.32-4 .45-.66.07-.6-.37-.41-.77.79-1.71 1.62-3.41 2.41-5.12 3.127-6.667 6.244-13.36 9.35-20.08a2 2 0 0 1 1.79-1.33c2.63-.3 5.26-.66 7.89-.94 1.21-.13.62.92.79 1.38Zm-6.48 4.32a.44.44 0 0 0-.48.25c-1.24 2.667-2.473 5.333-3.7 8-.21.43 0 .58.42.58a13.54 13.54 0 0 0 2.77-.26 1 1 0 0 0 .82-1c.11-1.94.24-3.87.31-5.8a3.09 3.09 0 0 0-.14-1.7v-.07Zm66.35 4.84a1.82 1.82 0 0 1 1.9-1.71c.673-.072 1.34-.182 2-.33a1.45 1.45 0 0 0 1.3-1.21c.2-.94.44-1.86.66-2.8.18-.77-.12-1.12-.93-1l-2.83.55a1.83 1.83 0 0 1-.05-.47c.37-1.19.74-2.38 1.14-3.56a.85.85 0 0 1 .84-.61c.76-.05 1.53-.16 2.29-.25a1.94 1.94 0 0 0 1.78-1.66c.3-1.29.66-2.57 1-3.86.23-1 .09-1.15-.92-1-2.62.39-5.23.88-7.87 1.16a2.53 2.53 0 0 0-2.39 2.19c-1.31 4.6-2.71 9.17-4.05 13.75-1 3.41-2 6.84-2.95 10.26-.16.56-.11 1 .61.9 3.14-.51 6.32-.8 9.42-1.56a1.4 1.4 0 0 0 1.16-1.13c.39-1.46.86-2.9 1.29-4.35a1.1 1.1 0 0 0 0-1l-4.21.53c.32-.932.59-1.88.81-2.84Zm-50 165.06a2 2 0 0 0 1.44-.56 967.21 967.21 0 0 1 4.48-3.32 1.21 1.21 0 0 1 1.89.21 8.46 8.46 0 0 0 3.9 2.35c.7.2 1.24 0 1.26-.83.081-1.332.081-2.668 0-4a3.2 3.2 0 0 1 .69-2.3c.79-1.16 1.92-2.17 2.64-3.2a.28.28 0 0 1 .14-.17c.418-.32.65-.825.62-1.35 0-.49-.45-.51-.82-.56a43.204 43.204 0 0 0-5.09-.1 1.1 1.1 0 0 1-1.22-.79 8.31 8.31 0 0 0-2-3.3 1.92 1.92 0 0 0-2-.71c-.73.18-1 .83-1.15 1.49-.47 1.66-1 3.36-1.45 5a.58.58 0 0 1-.67.41 11 11 0 0 0-4.52.62c-.38.14-.78.23-.85.71a1 1 0 0 0 .55 1c.74.52 1.51 1 2.25 1.5a1.53 1.53 0 0 1 .44 2.38 13.69 13.69 0 0 0-1.66 4.17c-.16.94.36 1.27 1.13 1.35Zm13-154a.76.76 0 0 0 .62-.56c.51-1.81 1-3.62 1.42-5.47.11-.59-.11-.81-.67-.7l-2 .39c-1.13.21-1.27.06-1-1.06.75-3.5 1.73-6.95 2.63-10.42.6-2.33 1.17-4.69 1.74-7 .14-.54.13-1.11-.64-1-1.267.132-2.521.37-3.75.71a1.37 1.37 0 0 0-1 1c-2.56 8.08-4.82 16.24-7.13 24.38-.26.91-.05 1.18 1.17 1.18l8.65-1.43-.04-.02Zm-12.86 1.94a.64.64 0 0 0 .53-.43 51.26 51.26 0 0 0 1.47-5.7c.09-.45-.12-.64-.58-.56-.76.14-1.52.25-2.28.38-1 .16-1.15 0-.92-1 .574-2.38 1.157-4.753 1.75-7.12.87-3.44 1.76-6.88 2.63-10.33.25-1 .07-1.19-1-1.08-.69.08-1.36.24-2.05.33a2.79 2.79 0 0 0-2.63 2.23c-2.37 7.8-4.59 15.63-6.82 23.47-.27 1-.06 1.23.92 1.28l8.98-1.47Zm34.65-35.43c0-1.41.1-2.81.06-4.22a2.13 2.13 0 0 1 .59-1.58 26.492 26.492 0 0 0 2.61-2.88c.33-.48.68-.94.42-1.53s-.91-.51-1.41-.53h-4c-.6 0-1-.19-1.13-.77a7.07 7.07 0 0 0-1.93-3.15 1.52 1.52 0 0 0-2.69.69c-.41 1.42-.93 2.82-1.24 4.27a1.12 1.12 0 0 1-1.33 1 11.53 11.53 0 0 0-3.91.63c-.63.18-.73.54-.39 1.07.255.355.6.635 1 .81a7.21 7.21 0 0 1 1.77 1.21 1.36 1.36 0 0 1 .21 1.87 10 10 0 0 0-1.5 3.82c-.08.43-.14.91.35 1.11s1 .43 1.54 0c1.33-1.09 2.74-2.1 4.13-3.13 1.17-.87 1.33-.82 2.4.19a7.16 7.16 0 0 0 3.64 2c.62-.02.79-.4.8-.91l.01.03ZM32.32 123.306c.71.11 1.14-.34 1.61-.71 1.37-1 2.73-2.11 4.18-3 .52-.33.85-.23 1.28.23a8.57 8.57 0 0 0 3.51 2.26c1.05.35 1.38.09 1.39-1v-3.82a2.34 2.34 0 0 1 .61-1.67 24.22 24.22 0 0 0 2.75-3.06c.24-.4.6-.79.36-1.3s-.78-.5-1.23-.51c-1.31 0-2.61-.05-3.91 0a1.34 1.34 0 0 1-1.53-1.07 6.14 6.14 0 0 0-1.82-2.84c-1.13-1.13-2.32-.81-2.77.75s-.83 2.85-1.21 4.29a.86.86 0 0 1-1 .78 10 10 0 0 0-3.9.57c-.34.12-.77.09-.85.59s.25.78.61 1c.64.43 1.33.81 1.94 1.26 1 .68 1.05 1.36.41 2.37a9.65 9.65 0 0 0-1.4 3.74c-.13.76.29 1.03.97 1.14Zm124-2.33c.33-1.52.82-3 1.25-4.5h.2c-.1 1.75-.21 3.51-.31 5.24a.8.8 0 0 0 1.07-.4c.28-.57.52-1.16.8-1.73.67-1.33 1.37-2.66 2.06-4l.18.08-1.77 6.26a4.66 4.66 0 0 0 1.86-.14.72.72 0 0 0 .65-.5c.42-1.56.87-3.11 1.33-4.66.63-2.18 1.3-4.35 1.93-6.53.42-1.41.81-2.82 1.25-4.36a12.38 12.38 0 0 1-1.6.25 1.8 1.8 0 0 0-1.77 1.29 52.072 52.072 0 0 1-2.27 4.7c-.31.57-.42 1.29-1.07 1.77-.19-2.26.48-4.38.41-6.55a8.46 8.46 0 0 0-2 .1 1 1 0 0 0-1.12.85c-.81 3-1.66 5.91-2.49 8.87-.56 2-1.08 4-1.63 6 2.36.12 2.59-.09 3.05-2.11l-.01.07Zm77 .27a1.24 1.24 0 0 0 1.33-.17c1.15-.86 2.31-1.7 3.44-2.58a1 1 0 0 1 1.59.12 6.53 6.53 0 0 0 2.14 1.5c1.41.59 1.74.33 1.66-1.19.016-.24.016-.48 0-.72-.09-1.68 0-3.23 1.67-4.32a3.7 3.7 0 0 0 1.39-1.94c.15-.46 0-.78-.47-.78-1.13 0-2.32-.15-3.41-.07a1.36 1.36 0 0 1-1.56-1 7.666 7.666 0 0 1-.45-.79 4.2 4.2 0 0 1-.43-.74 1.84 1.84 0 0 0-1.55-1.23 1.16 1.16 0 0 0-1.21.95c-.38 1.18-.75 2.37-1.05 3.57a.88.88 0 0 1-.88.74 11.36 11.36 0 0 0-3.12.44c-.24.11-.55.1-.63.4a.78.78 0 0 0 .33.84c.5.33 1 .65 1.54 1a1.33 1.33 0 0 1 .45 2.08 7.94 7.94 0 0 0-1.09 2.93c0 .35-.05.73.35.91l-.04.05Zm-44.6-4.09a4.38 4.38 0 0 0-.47 0c-1.83 0-2.2-.46-1.72-2.22.954-3.5 1.93-6.993 2.93-10.48.81-2.79 4.61-4.65 7.38-3.68a1 1 0 0 1 .67 1 13.12 13.12 0 0 1-.85 4c-.63 2.26-1.28 4.52-2 6.75-1.1 3.35-2.7 4.5-5.96 4.63h.02Zm1.07-2.61a1.86 1.86 0 0 0 2-1.46c.87-3.15 1.79-6.3 2.69-9.45.08-.27.13-.53-.25-.62a2.1 2.1 0 0 0-2 1.21c-.25.83-.49 1.66-.74 2.5-.7 2.35-1.38 4.71-2.1 7.05-.19.64.17.72.47.77h-.07Zm31-11.4c-.08-2-.153-4-.22-6 0-.36 0-.69-.5-.74a2 2 0 0 0-2.25 1.47c-1.2 3.92-2.44 7.83-3.59 11.76a11.3 11.3 0 0 0-.76 2.9 12.21 12.21 0 0 1 1.81-.3.8.8 0 0 0 .83-.68c.39-1.26.74-2.54 1.18-3.78.257-1.105.591-2.191 1-3.25.29 2.47.56 4.73.84 7.14.69-.33 1.66.07 1.88-.87.51-2.08 1.18-4.11 1.8-6.16s1.33-4.23 2-6.35a13 13 0 0 0 .76-2.81c-.74.14-1.35.27-2 .36-.38.05-.51.28-.61.62-.53 2-1.09 4-1.62 6a2.07 2.07 0 0 1-.5 1.22 5.281 5.281 0 0 1-.06-.55l.01.02Zm-35.24 6.65c.68.34.66.8.45 1.35-.49 1.38-.6 2.84-1.1 4.22a3.67 3.67 0 0 1-2.77 2.76l-4.87 1a13.67 13.67 0 0 1 .86-3.29c1.15-4 2.42-8 3.64-12 .13-.47.33-.81.87-.9 1.4-.24 2.8-.53 4.19-.78 1.19-.2 1.77.39 1.46 1.54-.38 1.4-.82 2.79-1.23 4.19a3.18 3.18 0 0 1-1.5 1.94v-.03Zm-5 6.44c1.41-.07 1.69-.29 2.17-1.43.333-.858.568-1.75.7-2.66.06-.38.33-.93-.34-1-.51-.07-1.09-.17-1.29.66-.37 1.44-1 2.85-1.23 4.42l-.01.01Zm2.3-7.45a1.88 1.88 0 0 0 2-1.41c.18-.67.4-1.32.59-2 .09-.3.38-.72-.06-.89a1.08 1.08 0 0 0-1.31.44 14.25 14.25 0 0 0-1.17 3.83l-.05.03Zm18.83-9.14c-1.14 0-1.69.53-2 1.68-.52 2-1.31 4-1.92 6-.7 2.25-1.5 4.47-2 6.77-.21 1 .08 1.6.87 1.61 3.2 0 5.79-.56 6.9-4.23.89-2.93 1.87-5.84 2.75-8.78a22.331 22.331 0 0 0 1.09-4.09 9.38 9.38 0 0 0-2.17.33c-.22 0-.28.23-.33.4-.17.48-.33 1-.48 1.43a339.92 339.92 0 0 1-3.72 11.5 1.53 1.53 0 0 1-1.79 1.05c1.17-4.65 2.47-9.2 4-13.8-.393.07-.79.113-1.19.13h-.01Zm7.55 7c-.67 2-1.4 3.93-1.92 6a1.78 1.78 0 0 1-1.93 1.53c-.23.009-.46.029-.69.06.097-.927.312-1.838.64-2.71 1.23-4.15 2.58-8.26 3.71-12.44a1.54 1.54 0 0 1 1.4-1.28c1.37-.15 2.71-.44 4.07-.66s1.78.21 1.41 1.5-.86 2.72-1.21 4.11a3 3 0 0 1-2.36 2.58c-.66.14-.47.82-.49 1.28-.09 1.81-.18 3.63-.15 5.45 0 .88-.41 1.09-1.12 1.17-.37 0-.73.11-1.19.17-.21-2.25.24-4.46-.17-6.7v-.06Zm.91-2.4a2.14 2.14 0 0 0 2.15-1.45 16 16 0 0 0 .65-2c.07-.34.47-.89-.17-1.07s-1.33-.17-1.56.53c-.469 1.3-.827 2.639-1.07 4v-.01Zm13 6.65c1.56-.27 3.13-.53 4.69-.81a.55.55 0 0 0 .36-.27c.21-.69.38-1.39.57-2.13-.93-.08-1.66.45-2.53.24.34-1.13.75-2.22 1-3.35a1.47 1.47 0 0 1 1.55-1.33c1.5-.15 2.12-1 1.92-2.55-.78-.11-1.52.42-2.33.16.212-.692.379-1.397.5-2.11a2.6 2.6 0 0 1 2.86-2.64.69.69 0 0 0 .75-.56l.36-1.55c-1.64.29-3.16.59-4.7.81a1 1 0 0 0-1 .84c-.96 3.38-1.926 6.757-2.9 10.13l-1.45 5c.18.06.26.11.33.1l.02.02Zm-55.42 6c.2-.49.36-.995.48-1.51a1.67 1.67 0 0 1 1.72-1.65c1.35-.14 1.93-1 1.83-2.56l-2.43.43c.33-1.27.66-2.38.93-3.51a1.38 1.38 0 0 1 1.21-1.2c2.08-.46 2.25-.69 2.29-2.33-1.51.26-3 .53-4.53.75a1.13 1.13 0 0 0-1.05 1c-1.16 4.22-2.33 8.44-3.66 12.61-.26.81-.39 1.66-.6 2.59l5-.89c.19 0 .39-.08.42-.29.202-.674.333-1.368.39-2.07-.83 0-1.53.46-2.41.26.15-.58.27-1.09.42-1.6l-.01-.03Zm11-13a4.85 4.85 0 0 0-1 .1c-.73.22-1.55.1-1.88 1.2-1.27 4.25-2.68 8.46-4 12.71a4.61 4.61 0 0 0-.55 2.26c1.08-.19 2.11-.34 3.14-.55a2 2 0 0 0 1.68-2.3l-1.7.27 4.31-13.69Zm-88.67-91c.06.4.13.84.59.94.26.06.41-.19.36-.48a1.18 1.18 0 0 0-.63-1c-.16.11-.29.25-.25.5l-.07.04Z"/></svg>