<svg width="400" height="84" viewBox="0 0 400 84" fill="none" xmlns="http://www.w3.org/2000/svg">
<g clip-path="url(#clip0_217_517)">
<path d="M122.893 30.1576C115.877 30.1576 111.707 26.2101 111.707 18.9072V1.5101H116.497V18.5407C116.497 23.3904 118.892 25.7589 122.949 25.7589C127.006 25.7589 129.401 23.334 129.401 18.5407V1.5101H134.191V18.879C134.191 26.0691 129.768 30.1294 122.865 30.1294" fill="white"/>
<path d="M162.93 30.2139L145.292 11.6326V29.6782H140.503V1.11535L141.263 0.974365L158.676 19.302V1.5101H163.466V30.1012L162.93 30.2139Z" fill="white"/>
<path d="M175.046 1.5101H170.256V29.6782H175.046V1.5101Z" fill="white"/>
<path d="M192.317 30.073H191.698L178.68 1.5101H184.175L192.064 20.2606L199.953 1.5101H205.278L192.317 30.073Z" fill="white"/>
<path d="M208.744 29.6782V1.5101H225.903V5.88052H213.534V13.268H224.719V17.4974H213.534V25.3078H225.903V29.6782H208.744Z" fill="white"/>
<path d="M240.075 5.62676C238.92 5.62676 237.821 5.65495 236.835 5.85233V15.4673C237.708 15.5801 238.666 15.6083 239.596 15.6083C243.794 15.6083 245.907 13.6345 245.907 10.4201C245.907 7.5723 243.766 5.62676 240.075 5.62676ZM247.316 29.6782L241.174 19.5275C240.667 19.5557 240.216 19.5557 239.681 19.5557C238.751 19.5557 237.793 19.5275 236.891 19.4711V29.65H232.101V1.79206C234.327 1.5101 236.666 1.34092 239.512 1.34092C247.485 1.34092 251.035 5.23201 251.035 10.2228C251.035 13.8601 249.035 16.8207 245.541 18.3715L252.923 29.7064H247.344L247.316 29.6782Z" fill="white"/>
<path d="M263.517 30.1576C260.333 30.1576 257.149 29.0015 254.67 27.3943L256.332 23.0803C258.558 24.6875 261.263 25.7025 263.658 25.7025C266.616 25.7025 267.913 23.9826 267.913 22.0088C267.913 20.0351 267.067 18.8226 262.616 16.9335C257.713 14.847 255.938 12.3093 255.938 8.92573C255.938 4.86546 259.319 1.05895 265.208 1.05895C267.941 1.05895 270.617 1.98943 272.28 3.08909L270.73 7.31854C269.237 6.27527 267.011 5.3166 265.095 5.3166C262.137 5.3166 260.756 6.92379 260.756 8.81294C260.756 10.7021 262.137 11.8018 265.63 13.3525C271.209 15.7774 272.815 18.0331 272.815 21.7269C272.815 26.2665 269.321 30.1294 263.517 30.1294" fill="white"/>
<path d="M282.874 1.5101H278.084V29.6782H282.874V1.5101Z" fill="white"/>
<path d="M301.301 5.88052V29.6782H296.511V5.88052H287.551V1.5101H310.232V5.88052H301.301Z" fill="white"/>
<path d="M326.912 17.8358V29.6782H322.122V17.8076L312.205 1.5101H317.699L324.63 13.4371L331.448 1.5101H336.83L326.912 17.8358Z" fill="white"/>
<path d="M362.949 5.34479C357.567 5.34479 353.848 9.71522 353.848 15.6083C353.848 21.5013 357.567 25.8717 362.949 25.8717C368.33 25.8717 372.021 21.4449 372.021 15.6083C372.021 9.77162 368.302 5.34479 362.949 5.34479ZM362.808 30.1576C354.665 30.1576 348.72 23.9544 348.72 15.6364C348.72 7.31854 354.919 1.05895 363.061 1.05895C371.204 1.05895 377.149 7.26214 377.149 15.6364C377.149 24.0108 370.922 30.1576 362.78 30.1576" fill="white"/>
<path d="M387.602 5.88052V14.1138H398.478V18.3715H387.602V29.6782H382.813V1.5101H399.971V5.88052H387.602Z" fill="white"/>
<path d="M132.501 82.9129C120.019 82.9129 111.538 74.4822 111.538 63.1472C111.538 51.8123 119.991 43.3252 132.501 43.3252C136.952 43.3252 141.01 44.6223 144.475 46.6806L141.77 54.209C138.953 52.63 135.769 51.6431 132.613 51.6431C125.457 51.6431 121.005 56.0418 121.005 63.1472C121.005 70.2527 125.457 74.6513 132.613 74.6513C135.741 74.6513 139.319 73.6081 142.193 71.8317L144.87 79.3601C141.517 81.5594 136.924 82.9129 132.529 82.9129" fill="white"/>
<path d="M164.79 59.3407L160.958 68.5327H168.537L164.79 59.3407ZM174.257 82.2925L171.383 75.3281H158.169L155.295 82.2925H146.25L164.283 43.6354H165.494L183.527 82.2925H174.257Z" fill="white"/>
<path d="M219.422 83.0257L196.318 62.2732V82.2925H187.443V43.438L188.626 43.2124L211.42 63.824V43.9456H220.296V82.8565L219.422 83.0257Z" fill="white"/>
<path d="M240.892 65.8823C239.54 65.8823 238.441 65.9387 237.539 66.0233V74.9051C238.807 75.0179 239.483 75.0743 241.258 75.0743C245.767 75.0743 247.908 73.3543 247.908 70.4783C247.908 67.6023 245.597 65.8823 240.892 65.8823ZM241.568 51.333C239.934 51.333 238.807 51.5022 237.539 51.6995V59.7073C238.525 59.8201 239.202 59.8483 240.836 59.8483C245.118 59.8483 247.26 58.2693 247.26 55.506C247.26 53.1939 245.316 51.333 241.568 51.333ZM240.357 82.6591C237.004 82.6591 232.665 82.3489 228.918 81.8696V44.4249C231.679 44.0019 236.497 43.579 239.624 43.579C250.754 43.579 256.417 48.5416 256.417 53.8707C256.417 57.9027 254.163 60.6096 249.824 62.3859C255.036 63.9649 257.516 66.9819 257.516 71.3806C257.516 77.33 251.881 82.6309 240.385 82.6309" fill="white"/>
<path d="M264.419 82.2925V43.9456H288.65V52.1225H273.294V58.9742H287.297V66.7H273.294V74.2002H288.65V82.2925H264.419Z" fill="white"/>
<path d="M309.133 51.6431C307.781 51.6431 306.936 51.6995 305.696 51.8969V62.4705C306.851 62.5833 307.471 62.6397 308.514 62.6397C312.74 62.6397 315.473 60.6096 315.473 56.7185C315.473 53.5323 312.965 51.6431 309.162 51.6431M317.023 82.2925L310.486 69.8016C309.979 69.858 309.5 69.858 308.964 69.858C307.668 69.858 306.936 69.8016 305.668 69.7452V82.2925H296.792V44.3121C300.033 43.9456 303.583 43.6918 308.091 43.6918C320.009 43.6918 324.714 49.3874 324.714 56.4083C324.714 60.9479 322.263 65.0364 318.121 67.4895L327.109 82.2925H317.023Z" fill="white"/>
<path d="M344.466 51.6431C343.113 51.6431 342.268 51.6995 341.028 51.8969V62.4705C342.183 62.5833 342.803 62.6397 343.846 62.6397C348.072 62.6397 350.805 60.6096 350.805 56.7185C350.805 53.5323 348.297 51.6431 344.494 51.6431M352.355 82.2925L345.818 69.8016C345.311 69.858 344.832 69.858 344.297 69.858C343 69.858 342.268 69.8016 341 69.7452V82.2925H332.125V44.3121C335.365 43.9456 338.915 43.6918 343.423 43.6918C355.341 43.6918 360.047 49.3874 360.047 56.4083C360.047 60.9479 357.595 65.0364 353.454 67.4895L362.442 82.2925H352.355Z" fill="white"/>
<path d="M381.263 59.3407L377.459 68.5327H385.038L381.263 59.3407ZM390.73 82.2925L387.856 75.3281H374.642L371.768 82.2925H362.723L380.756 43.6354H381.967L400 82.2925H390.73Z" fill="white"/>
<path d="M50.7805 55.8148C48.1865 54.6996 45.3105 54.0583 42.2936 54.0583C39.2766 54.0583 36.4289 54.6996 33.8067 55.8148C34.0886 53.0267 33.8067 50.1272 32.8762 47.3112C31.9458 44.4674 30.4514 41.9861 28.5623 39.895C31.3255 39.2817 34.0322 38.1386 36.4571 36.3821C38.8537 34.6535 40.7992 32.5067 42.2654 30.0532C43.7316 32.5067 45.6771 34.6535 48.0737 36.3821C50.4704 38.1107 53.149 39.2817 55.9685 39.895C54.0794 41.9861 52.585 44.4953 51.6546 47.3112C50.7241 50.155 50.4422 53.0267 50.7241 55.8148M84.277 36.7445C82.5007 35.462 80.527 34.4862 78.4405 33.8171C77.792 33.594 77.1435 33.4268 76.4668 33.2874C76.918 32.7855 77.3409 32.2558 77.7356 31.6982C79.0326 29.9417 80.0195 28.018 80.7244 25.9548L80.8653 25.5645L73.3089 20.1278L73.1961 21.0478C72.9142 23.111 72.1247 25.0626 70.8841 26.7633C68.8822 29.4677 65.9498 31.2521 62.5945 31.7818C59.2392 32.3115 55.8839 31.503 53.149 29.5514C50.414 27.5719 48.6094 24.6723 48.0737 21.3545C47.538 18.0367 48.3557 14.719 50.3294 12.0146C51.57 10.3417 53.2053 8.9756 55.0945 8.08342L55.9403 7.6931L48.3839 2.25641L48.0455 2.47945C46.2692 3.76195 44.7184 5.32326 43.4214 7.05185C43.0267 7.60946 42.6601 8.16707 42.2936 8.72468C41.9552 8.13919 41.5887 7.58158 41.1658 7.05185C39.8688 5.29538 38.318 3.76195 36.5417 2.47945L36.2033 2.25641L28.6469 7.6931L29.4927 8.08342C31.3818 8.9756 33.0454 10.3417 34.2578 12.0146C36.2597 14.719 37.0492 18.0646 36.5417 21.3545C36.0059 24.6723 34.2014 27.5719 31.4664 29.5514C28.7314 31.5309 25.348 32.3115 22.0209 31.7818C18.6656 31.2521 15.7332 29.4677 13.7313 26.7633C12.4907 25.0905 11.7012 23.111 11.4193 21.0478L11.3065 20.1278L3.75003 25.5645L3.86281 25.9548C4.53951 28.018 5.55456 29.9417 6.85156 31.6982C7.2463 32.2558 7.69743 32.7855 8.14857 33.2595C7.50006 33.3989 6.82337 33.5662 6.17486 33.7892C4.08838 34.4583 2.14288 35.4342 0.338349 36.7167L0 36.9397L2.87596 45.722L3.52447 45.0529C4.96245 43.5474 6.79517 42.4321 8.79707 41.7909C15.4513 39.6441 22.6412 43.2686 24.8122 49.8483C26.9833 56.4281 23.3179 63.5377 16.6637 65.6844C14.6618 66.3257 12.5189 66.4651 10.4606 66.1027L9.55835 65.9354L12.4343 74.7177H12.8291C15.0283 74.7177 17.1994 74.3553 19.2859 73.6861C19.9344 73.4631 20.5829 73.2401 21.2032 72.9613C21.1468 73.6304 21.0904 74.2995 21.0904 74.9686C21.0904 77.1433 21.4288 79.2901 22.1055 81.3533L22.2182 81.7436H31.5792L31.1281 80.9351C30.1412 79.1228 29.6055 77.0597 29.6055 74.9686C29.6055 68.0543 35.3011 62.3946 42.3218 62.3946C49.3425 62.3946 55.0381 68.0264 55.0381 74.9686C55.0381 77.0597 54.5023 79.1228 53.5155 80.9351L53.0644 81.7436H62.3971L62.5099 81.3533C63.1866 79.2901 63.525 77.1433 63.525 74.9686C63.525 74.2995 63.4968 73.6025 63.4122 72.9613C64.0325 73.2401 64.681 73.4631 65.3295 73.6861C67.416 74.3553 69.5871 74.6898 71.7863 74.7177H72.1811L75.057 65.9354L74.1548 66.1027C72.0965 66.4651 69.9536 66.3257 67.9517 65.6844C61.2975 63.5377 57.6321 56.4281 59.8031 49.8483C61.9742 43.2686 69.1359 39.6441 75.8183 41.7909C77.8202 42.4321 79.6529 43.5752 81.0909 45.0529L81.7394 45.722L84.6154 36.9397L84.277 36.7167V36.7445Z" fill="white"/>
</g>
<defs>
<clipPath id="clip0_217_517">
<rect width="400" height="82.0513" fill="white" transform="translate(0 0.974365)"/>
</clipPath>
</defs>
</svg>
