<svg xmlns="http://www.w3.org/2000/svg" viewBox="0 0 400.011 122.881">
<title>OMG__Didi</title>
<path fill="#fff" d="M76.22 95.8c25.92-.81 46.47-21.43 46.77-47v-22h28.52v24.35c-.56 39.6-35 70.84-75.29 71.73C35.22 122.62.56 91.16 0 51.14V7.32C-.06 2.84 2.85-.06 7.26 0H123v26.73H32.25a3.43 3.43 0 0 0-3.72 3.72v17.86c.305 26.187 21.523 47.307 47.71 47.49h-.02Zm310.89 8.61h11.29v-59h-11.29v59Zm-55.05 0c25.82 0 40.38-18.11 40.38-42 0-23.46-14.09-42-40.27-42h-28.76v84h28.65Zm-17.36-10v-64h15.76c19.15 0 30.7 10.11 30.7 32 0 21.32-10.92 31.94-31.14 31.94l-15.32.06Zm78.07-61.53a7.23 7.23 0 1 0-7.22-7.24v.02a7.22 7.22 0 0 0 7.22 7.21v.01Zm-120.19 71.53h11.29v-59h-11.29v59Zm-55.58 0c25.82 0 40.38-18.11 40.38-42 0-23.46-14.09-42-40.27-42h-28.75v84H217Zm-17.36-10v-64h15.76c19.15 0 30.69 10.11 30.69 32 .01 21.37-10.9 32-31.09 32h-15.36Zm78.59-61.53a7.23 7.23 0 1 0-7.22-7.24v.02a7.23 7.23 0 0 0 7.23 7.21l-.01.01Z"/></svg>