<svg xmlns="http://www.w3.org/2000/svg" viewBox="0 0 90.709 90.041">
<title>OMG__UniMelb</title>
<path fill="#fff" d="m31.788 22.896-1.28.108.063 1.294-.93-.838-1.007.838.092-1.235-1.217-.273 1.08-.763-.594-1.111 1.143.41.473-1.174.47 1.19 1.25-.366-.608 1.098 1.065.822Zm6.279 1.098.593-1.113-1.25.334-.457-1.156-.486 1.156-1.143-.38.593 1.096-1.082.749 1.251.273-.123 1.25.99-.84.96.84-.078-1.294 1.282-.109-1.05-.806Zm-8.702 7.435.596-1.084-1.251.35-.455-1.172-.474 1.172-1.142-.379.58 1.082-1.067.745 1.218.275-.106 1.25 1.006-.854.93.854-.062-1.31 1.28-.108-1.053-.821Zm7.925-.276-.368-1.082-.41 1.082-1.097.016.912.686-.332 1.112.927-.67.93.67-.35-1.112.913-.702H37.29Zm.715 8.41.594-1.082-1.234.35-.457-1.187-.488 1.188-1.144-.395.58 1.095-1.082.746 1.234.275-.091 1.25.99-.855.945.87-.09-1.28 1.294-.153-1.051-.822Zm.505-26.606a.648.648 0 0 1-.323-.613c-1.068-.603-2.276-.959-3.08-1.132-.562-.122-.903-.098-1.275-.097.837 1.42 2.316 1.861 3.79 1.944.239-.081.686-.076.888-.102Zm-7.672-1.839c-.986-.12-2.25-.516-3.198-1.015.446.66 2.242 2.354 3.652 2.468 0 0 .86.1 1.813.05.703-.036 1.19-.085 1.64-.207-.806-.579-1.026-1.12-1.145-1.279-.822.122-1.777.104-2.762-.017ZM28.01 4.26l1.433-1.863c1.434.8 3.154 1.01 4.934.86l4.616-.694 2.774-.392c1.947-.226 3.999-.3 6.005-.136l3.348.393 3.135.512 2.537.393c1.764.12 3.59 0 5.054-.83l1.41 1.858.047.01.144-.05a35.77 35.77 0 0 1 1.138-.428 6.16 6.16 0 0 0 .257-.11l.013-.006-2.77-3.64-.24.269c-1.253 1.374-3.227 1.418-5.068 1.283L52.433.98C49.417.558 46.247.06 43.065.422l-3.287.376-4.89.77-1.144.121c-1.72-.06-3.455-.168-4.51-1.689L26.24 3.892a50.052 50.052 0 0 0 1.771.368Zm3.504 41.848c-5.078-3.968-7.728-9.863-7.48-14.77l.107-2.776.345-3.016.877-5.296.24-1.855c.091-2.987-.014-6.17-2.006-8.417l1.616-2.162a9.165 9.165 0 0 1-.23-.415 5.831 5.831 0 0 1-.487-1.03l-.025-.057-.047-.107a544.017 544.017 0 0 0-2.968 3.907c.843.753 1.539 1.63 1.915 2.594.77 2.111.753 4.675.437 6.984l-.708 4.087-.424 3.018a37.975 37.975 0 0 0-.226 6.108c.138 4.405 2.158 10.294 7.38 14.348l1.684-1.145ZM63.84 15.134c.547-.123.972-.625.942-.836-.118-.483-1.406-.775-1.525-.804s-.293-.075-.415-.036c-.008.07-.134.339-.322.56-.484.565-1.724 1.108-3.019.892-1.342.334-2.349.686-3.67 1.07.405.669 1.429 1.09 2.233.712-.427-.1-.907-.38-.89-.735.264.269.76.477 1.098.566.17.045 1.537.534 2.759-.139-.615-.05-1.479-.436-1.41-.893.676.417 1.187.645 1.946.675.73.029 1.704-.275 2.024-.714-.575.109-1.36-.07-1.379-.543.427.245.963.374 1.628.225ZM60.402 39.12c-1.454-.937-4.384-3.26-4.384-3.26s2.553 2.534 3.912 3.44c0 .797-.208 1.25-.84 1.6-.412.228-.884.398-1.467.692-.997.566-.7 1.37-2.05 1.885-.565.215-1.93.404-1.573-.335.51-.767-.034-.77-.034-.77-.311.09-1.14.321-1.568.339-.263.01-.528-.181-.298-.394.084-.077.216-.14.355-.248.207-.159.326-.262.414-.42.142-.253.254-.593.102-.682-.183-.107-.463-.033-.598.114-.487.539-.586 1.395-1.665 1.41a22.087 22.087 0 0 0-.954-.227c-.455-.276-1.001-.94.039-2.392.431-.572-.755-1.242-1.452-2.096-1.332-1.632-5.133-7.795-5.133-7.795-.395-.57-.812-1.257-1.175-1.815-.363-.557-.483-1.748.352-1.633.396.083.525.262.967.076.318-.134.29.342 0 .58a.504.504 0 0 0 .066.738c.326.188.409-.183.78-.077.37.106.632.998 1.292 1.188.18.044.294.03.337-.087.095-.265-.21-.63-.137-.955.11.2.39.408.768.615.46.253.726.315.605-.07-.136-.436-.203-.734-.203-.734-.045-.327.247-.58.469-.58.13 0 .265.114.355.263.29.527.151.831.813 1.04.99 2.098 3.545 4.787 4.564 5.625.213.175.596.392.894.505-.226-.221-.587-.54-.748-.694-2.68-2.57-4.375-4.945-4.33-5.451.767-.32.886-1.065 1.11-.953.11.067-.243.676-.18.982.038.179.216.425.7.417-.867.866 1.34 1.593 2.977 1.556.592.368 1.623.99 2.859 1.273 0 0 .12.59.506.61 0 0 .905 1.4 2.142 2.729 1.237 1.328 2.635 3.485 3.792 4.627-.605-.067-1.123-.035-1.34.538-.307.703-.473 1.218-.714 1.625-.286.483-.75.905-1.534 1.123-.783.218-1.877.268-2.012-.202.201-.957 1.502-1.106 2.055-1.373 1.035-.5 1.13-1.41 1.164-2.347Zm-7.17-.832c-2.644-2.821-5.268-7.087-5.617-7.218 0 0 3.257 4.945 3.849 5.784.591.838 1.397 1.634 1.777 2.309.118-.198.298-.547-.01-.875Zm-10.387-1.935c-.234 1.64.12 3.715.895 5.013.107.18.247.315.403.425a22.659 22.659 0 0 1 3.172.102c.086-.018.177-.037.245-.048 1.384-.223.982-1.354 1.82-2.267-1.09-.556-2.779-3.418-3.096-3.93-.317-.513-1.954-3.037-2.35-3.712s-.459-.72-1.188-1.888c-.73-1.169-1.086-1.933-1.086-1.933s-.02.248.02.437c.04.188.17.732.234.912.164.473.139.997.164 1.49.043.912.028 1.831.1 2.741.042.535.116 1.241.463 1.678.862 1.082.639 1.5 2.44 3.503-.543-.313-1.25-.99-2.236-2.523Zm12.793-6.002c.258.307.586.605.66 1.066-.961-.169-2.777-1.28-2.776-1.296-.951.053-2.107-.059-2.713-.453-.691-.451.75-.526.16-.997-.26-.209-.562.017-.782-.313-.149-.223.402-.707.164-1.176-.15-.296-.44-.287-.689-.049-.253.237-.398 1.18-1.135.994-.432-.109-.297-.84-.759-1.183-.301-.223-.717-.224-.968.037-.308.321-.238.757-.238.757-.874-1.74-.03-5.436-.03-5.436-.925 2.403-.916 4.478-.208 5.744-.226-.111-.596-.472-.69-.685-.197-.449-.486-1.072-.412-1.682-.55.967.511 2.725.09 2.716-.35-.007-.345-.691-.782-.923-.45-.238-.614.162-.796.008-.203-.171.752-.849-.082-1.325-.451-.258-.654.223-1.023.012-.37-.212-.847-.116-.847-.116-.16-.846.902-4.66.902-4.66.634.318 1.524-.199 1.524-.199.477.897 1.433.165 1.85-.184.317-.264.417-.487.787-.651.402-.179.87.074 1.282-.105.441-.192.544-.458.544-.458.57.5 1.248 2.313 1.521 2.933.933 2.118 1.878 3.309 1.878 3.309 1.194 1.459 2.306 2.228 2.54 2.39 0 0-1.632-1.527-1.96-2.122 2.755 2.144 4.904 2.994 5.928 3.725-.38-.086-.85-.13-1.081.177s-.054.783-.2 1.237c-.078.343-.312.4-.429.4-.205-1.29-1.23-1.492-1.23-1.492Zm-2.183-1.903c-1.013-1.013-1.094-1.017-2.256-2.473-1.161-1.455-1.754-3.16-1.754-3.16.169 1.144.63 2.224 1.623 3.453.648.803 1.836 1.912 2.387 2.18ZM69.558 9.953a.27.27 0 0 0-.09-.083c.017.01.037.036.055.055.012.013.021.01.035.028Zm-.106-.099-.005.006.022.01c-.005-.002-.012-.014-.017-.016Zm-.02 0c.004 0 .009.008.013.01l.002-.004c-.005-.001-.01-.006-.015-.006ZM41.9 20.146c.004-.511.748-1.479 1.42-1.66-.276-.08-.39-.11-.732-.355-.51-.367-.71-1.112-.51-1.608.086-.216.188-.315.354-.496 0 0-.64.398-1.481.938-.495.318-.961.568-1.268.718.48-.063.697-.207.794-.008-.355.218-.483.494-.425.845.269-.19.85-.28.952-.106-.256.263-.299.836-.212 1.055.25-.028.66-.216.845-.475-.066.437.003.911.263 1.152Zm3.541 33.276c-2.082-1.531-4.327-2.63-6.641-3.581-.646.262-1.313.59-2 .963 3.058 1.18 6.07 2.478 8.641 4.774 1.931-1.749 4.148-2.836 6.411-3.832l1.87-.724a15.226 15.226 0 0 0-1.925-.993c-2.215.9-4.371 1.948-6.356 3.393Zm-8.03-40.228c-1.022.011-1.617-.258-2.45-.585 0 0-.659.171-1.667.245a10.01 10.01 0 0 1-2.265-.064c.221.264 1.053.738 1.607.834.168-.07.686-.253.922-.27.814-.056 1.562.217 2.346.674.42.14.904.405 1.246.587.134-.193.311-.373.461-.465 0 0-.265-.128-.366-.363-.071-.165-.154-.414.166-.593Zm32.035-3.33c-.523.706-1.308 1.419-1.947 1.86l-.056.18c-.386 1.228-1.02 1.802-1.61 2.061-.347 1.885-.418 4.252-.073 6.195l.573 3.499.422 2.807c.212 1.975.394 4.011.27 6.079-.101 4.237-2.04 10.121-7.745 14.074.529.346.98.64.981.642l.48.333c6.13-4.405 8.097-11.062 7.947-16.333l-.108-2.926-.27-2.503-.92-5.718c-.334-1.81-.273-3.876.015-5.716.105-.636.638-2.73 2.372-4.111a2.44 2.44 0 0 0-.253-.362c-.027-.028-.054-.055-.079-.062ZM31.446 8.41c-.79-.138-4.898-1.13-6.773-2.823 1.04 2.453 1.777 4.276 5.648 5.17 1.094.251 1.722.202 3.146.124-.417-.652-.333-2.175-2.02-2.47Zm35.543 3.204c-.744.596-1.46.793-2.53.705 0 0-.334.666-1.12.906.762.483 2.896.786 3.65-1.611ZM43.836 6.562c-.223.29-.29.618-.091.78.426-.765 1.14-.9 1.701-.97-.866-.25-1.448-.021-1.61.19Zm13.944 24.91c.423-.062.974-.352.897-.779-.079-.325-.264-.527-.681-.451-.417.076-.337.84-.35 1.242l.134-.013ZM47.05 8.946c-.103-.154-.631-.148-1.016-.161-.385-.014-1.097-.075-1.29-.053.119.142.163.246.17.365.328.3 1.226.28 1.834.268.073.192.244.371.406.474a.592.592 0 0 1 .118.467.746.746 0 0 1 .394-.394c.176-.205.293-.468.235-.746-.177-.352-.866-1.042-1.248-1.16-.789-.1-1.962-.073-2.68-.324-.085-.043-.242.07-.212.202.268.134.685.432.873.637 0 0 1.771.027 2.11.074s.605.085.718.307c.074.146.015.264-.103.322-.205.057-.439.015-.556-.175.029-.03.086 0 .13-.014.046-.016.117-.016.117-.089Zm-.084-2.341c-.635-.197-1.532.001-1.998.147-.395.133-.723.434-.919.716.73.19 1.642.059 2.405.177.41.118.713.633 1.211.401.267-.14.296-.515.258-.653-.075-.254-.337-.596-.957-.788Zm22.85.518c-2.056.895-3.893 1.035-5.12 1.081-.098.417-.268.966-1.904 1.625 1.541.514 5.572-.068 6.418-.782.406-.315.603-.617.742-.905.146-.303.101-1.079-.137-1.019Zm-15.058-.8c-1.55.279-3.294.653-4.127 2.22-.82 1.258-.304 3.337-2.033 3.952.177-.014.18-.097.389-.101.386-.121.99-.068 1.504.1.515.166 1.294.572 2.6.938.504.14.805.285 1.06.342.35-.031.896-.09 1.422-.14-1.132-.07-1.16-.377-1.555-.348.411-.234.848-.454.558-.876-.29-.421-.711-.11-1.12-.037.183-.31.804-.972.253-1.332-.495-.324-.981-.05-1.436.302.149-.351.582-.798.158-1.168-.422-.37-1.04.096-1.2.14.114-.66-.514-1.041-.514-1.041.207.015.452.308.635.488 1.23-.877 2.712-1.762 4.157-2.305.897-.337 4.593-1.25 6.604-.025a18.26 18.26 0 0 1 2.57-1.226c.967-.37 4.745-1.528 4.745-1.528 1.17-.41 1.65-.917 2.412-2.665-1.038.22-2.211.617-3.087.936-.876.319-3.144 1.12-3.662 1.364-.423.2-2.527.888-4.215 1.233-.936.192-4.099.499-6.118.776ZM24.193 3.914c1.044.372 1.937.565 3.136.809.81.165 1.468.275 2.624.52 1.076.23 2.645.694 2.645.694 2.445.704 5.181.25 7.581 1.068 1.078.415 1.026 1.727 1.186 2.723l.257.257c0 1.386.666 1.939 1.778 2.773-.938-.149-1.75.271-2.471 1.224-.943.29-1.513.64-2.247 1.386a7.806 7.806 0 0 1-1.292-.616c.109-.272.302-.49.56-.604-.238-.149-.652-.353-.577-.621.14-.506.794-.209 1.518-.503-.29-.141-.633-.36-.492-.775.14-.414.781-.348 1.295-.221-.283-.276-.346-.742-.043-.941.303-.198.966-.129.966-.129.015-.352.276-.602.47-.88-.308.073-.487.46-.589.693-.946-.08-1.374.384-1.158.98-.454-.09-.92-.011-1.098.376-1.156-.689-2.882-1.186-4.109-1.256-.183-.01-.259-.008-.423-.03-.135-.149-.265-.522-.305-.672-.137-.52-.391-1.256-.93-1.515 1.13.153 4.167.738 6.067 1.527-1.393-1.028-5.16-1.545-7.454-2.08-1.716-.402-4.057-1.137-5.514-2.166-.825-.583-1.302-1.263-1.38-2.02Zm8.577 2.947s.148.074 1.302.373c1.137.296 3.145.229 4.547.977.581.31 1.006.95 1.305 1.556-.178-.782-.567-1.518-1.294-1.826-1.284-.544-2.978-.621-4.513-.812-.483-.06-.898-.192-1.347-.268Zm29.597.637c.14.107.56.24.56.24.407.13 1.287.347 2.415.185 1.407-.158 3.249-.466 4.55-1.197.946-.48 1.811-1.985 2.063-2.641-.542.216-.726.271-2.219.788-2.688.722-5.26 1.49-7.369 2.625Zm6.726 1.931c-.773.493-4.074 1.205-6.406.613-.214-.07-.425.199-.432.32-.012.179-.047.525.586 1.031.323.259.784.47 1.277.584.943.221 1.516.08 1.956-.11.606-.26 2.169-1.252 3.019-2.438Zm-20.66 3.664c-1.133 1.077.206 3.802-.56 4.91a3.45 3.45 0 0 0-.232.388c-.61-.201-.978-.218-1.496-.224-.306-.003-.67.069-.915.09-.61.052-1.065-.008-1.623.111.042-.12.121-.22.23-.387-.52.015-.915-.09-1.205-.469a.915.915 0 0 1-.126-.84c.148-.405.574-.782.752-1.155 0 0 .3-.468.409-1.034.052.186.14.492.648.61.473.109.99-.068 1.83-.491-.383.61-.93.991-1.95 1.155.352.073 1.02-.07 1.705-.429.832-.436 1.88-1.877 1.88-1.877.249-.221.74-.43.653-.358Zm-1.273 3.81c-.186.345-.416.614-1.152.647-.938.042-1.157-.51-1.157-.51.058.288.26.894 1.163.854 1.15-.051 1.146-.992 1.146-.992Zm1.73-7.832c-.088-.016-.148.028-.222.043-.233.074-.436-.03-.57-.219a.156.156 0 0 0-.071.127c.073.081.071.212.071.313.058.115.147.25.308.233.215-.055.584-.16.484-.497Zm7.541 4.399s2.494-.367 2.636-.305c.152.012.246.035.313-.016.233-.363.447-.546.759-.663.177-.067.402-.03.625-.171.219-.14.401-.197.576-.197.06 0 .136.072.166.116.102.176.135.415.019.577.263-.059.261-.111.634-.136.662-.045.729.432.746.428.618-.092 1.204-.54 1.274-.837-.308-.06-1.058-.338-1.426-.626-.53-.417-.828-.96-.748-1.267-.447.218-1.164.46-2.49.83-1.326.37-4.686 1.105-4.686 1.105.357.594-.317.93-.317.93.813.247 1.453.202 1.919.232ZM43.459 9.349c-.013.394-.263.717-.293 1.081l.352.061c.088.087.03.247.043.365.006.004.007.008.013.013a.72.72 0 0 0 .183.028c.034 0 .06.03.06.062a.06.06 0 0 1-.06.06.966.966 0 0 1-.107-.01c.022.104.019.215.161.271.117.13-.03.41.19.468.703.03 1.157-.527 1.726-.892-.086.335-.527.483-.672.79-.074.367-.045.762-.16 1.112-.137.42-.623.314-.96.483-.005.068-.016.2-.014.292.001.106-.14.924.314 1.172.442.22 1.121-.07 1.814-.422 1.25-.637 1.391-1.13 2.152-1.67-.146-.045-.293-.06-.424-.117-.936-.368-.614-1.45-.747-2.196-.058-.146-.206-.205-.35-.176-.307.073-.587.425-.908.205.19-.03.365-.06.512-.175.089-.118.207-.236.162-.425-.06-.074-.16-.12-.249-.074-.088.03-.133.118-.133.205-.395.029-.598-.38-1.009-.22-.19 0-.323-.19-.454-.336-.117-.498-.613-.76-.98-1.068-.175.263-.308.541-.308.862.03.221.44.127.585.155.339.12-.296.346-.277.52-.03-.059-.045-.162.013-.22.104-.147-.116-.132-.175-.204Zm4.773-.519c.162.13.41.073.57-.015.175-.102.322-.277.322-.497-.102-.117-.174-.089-.147-.206-.042-.13-.176-.16-.305-.101-.292.13-.746.321-.746.702 0 0 .217.06.306.117Zm2.457 4.384c-.22-.119-1.09-.524-1.756-.308-1.113.803-.532 3.347-.48 3.513.052.166.106.354.208.47.387-.38.413-1.387.433-1.569-.147-.101-.366-.03-.513 0a.6.6 0 0 1 .47-.322c1.406-.088 2.723.265 4.054.513.9.218 1.874.102 2.706-.118l2.401-.703c.47-.102.937-.247 1.435-.233.892.146 2.104-.373 2.444-.616.34-.243.446-.45.396-.672-.052-.224-1.201.015-1.565.13a.88.88 0 0 1-.601.338l.248-.177c.176-.365.704-.467.746-.92 0-.074-.082-.088-.132-.044-.277.16-.498.424-.85.41-.538.057-.628.847-1.243.73l-3.44.454c-.512.059-.995.22-1.491.28-1.14-.442-2.61-.69-3.47-1.156Zm2.622-2.516c4.445-1.702 6.136-2.422 8.71-2.854.336-.101-.386-.431-.86-.59-.416-.14-.903-.273-1.737-.258-1.364.025-2.627.233-3.8.665-1.47.54-2.807 1.393-4.11 2.243.532-.194.874-.09 1.082.119a.77.77 0 0 1 .228.754c.15-.057.336-.086.487-.08Zm-4.872-2.802c.056-.086.094-.125.094-.241 0-.116-.13-.177-.232-.146-.19.116-.308.335-.28.542a.355.355 0 0 0 .418-.155Zm6.26 4.21c1.152-.193 2.134-.451 3.336-.753s3.752-1.037 4.046-1.3c.222-.347.877-.504 1.336-.765.41-.233.936-.66 1.015-1.016-.706 0-1.107-.167-1.692-.307-.897.029-2.242.41-3.316.72l-5.832 2.102c.536.159.652.576.354 1.191.208-.037.536-.05.752.127Zm-12.704 3.522c.354-.214 1.083-.483 1.083-.483.259-.626.497-1.083.522-1.54.004-.08 0-.282 0-.282l-.2.021c-.878-.13-1.595.497-2.135 1.128-.836.35-1.611.877-2.358 1.448.058.073.22.16.175.265-1.207-.378-2.134-1.196-3.32-1.59-.585-.412-1.36-.6-1.794-.662-.433-.062-.892.042-1.023.159l-.112.12c.401.025.953.122 1.234.393-.387.093-.471.41-.708.57l-.185.048c.13.248.528.115.689.04.38-.116.696-.264 1.121-.308.102.117-.117.06-.117.16.747.703 1.639 1.142 2.504 1.596.742.502 1.097 1.14 1.814.57 0 0 2.523-1.48 2.81-1.653Zm3.706 2.873c-.65.099-1.583-.021-2.227.286 0 0-.413.186-.663.498-.305.38-.715.908-.436 1.48.142.29.631.316.727.314-.134-.137-.156-.293-.171-.475-.035-.396.203-.954.666-1.382.154-.142.32-.2.32-.2-.324.399-.623.9-.7 1.28-.077.382.013.622.131.77.253.049.445-.023.803-.15-.04-.515.175-.731.03-1.228.074-.03.105.097.148.186.192.512-.233.879.286 1.338.323.266 1.389-.467 1.508-.735.189-.796-.11-1.117-.454-1.577.386.11.85.888.71 1.416a1.4 1.4 0 0 1 .563-.308c.175-.175.24-.41.154-.61a1.553 1.553 0 0 0-.521-.633c.148.003.464.107.667.521.198.403.05.563-.048.745.352.035.766-.023.883-.11.571-.44.401-.553.667-.568-.41-.291-.76-.513-1.304-.685-.543-.17-1.09-.272-1.74-.173Zm9.877-2.426c-.295.091-1.157.22-1.787.147-.91-.114-1.931-.337-2.626-.416-.668-.075-1.045-.163-1.591-.232-.039.352-.095.51-.263.995-.102.293-.37.86-.799 1.473-.168.24-.224.321-.302.486.529.217 1.01.398 1.141.715.06.249-.101.163-.23.31.464.422.75 1.08 1.085 1.548.337-.205.606-1.312.709-1.28-.03.35.975.739 1.207 1.033.37-.485.25-1.304.178-1.831.38.366.6.878 1.052 1.2.483-.526.118-1.331-.028-1.888.308.234 1.08.257 1.446.535.116-.468-.203-1.112-.423-1.478 0 0 .907.359 1.214.473.057-.408-.266-.862-.37-1.213.243.09.532-.33.387-.577Zm-36.07 30.559-.594.176c-.73.2-1.487.407-1.869 1.116a.545.545 0 0 0-.053.227c0 .195.124.354.27.542 0 0 .055.071.056.074 1.316 1.184 3.07 1.396 4.627 1.44 0-.152.012-4.382.014-4.686-.597.56-1.331.786-2.047.992l-.403.119Zm53.66 1.88a.512.512 0 0 0 .052-.217c0-.16-.093-.312-.29-.489-.644-.477-1.425-.697-2.18-.908-.858-.242-1.738-.504-2.453-1.13v4.558c.961-.018 1.88-.148 2.797-.406.69-.225 1.658-.617 2.074-1.407Zm-54.363-2.248 1.154-.354c.885-.267 1.89-.57 2.014-1.563l.001-.061c0-.776-.754-1.361-1.42-1.786-2.666-1.44-5.737-1.75-8.406-1.856.096.51.153 1.016.153 1.515 0 1.664-.535 3.218-1.512 4.381 2.25-.085 4.158.335 5.676 1.246.434-.975 1.398-1.26 2.34-1.522ZM78.2 40.9c-2.17.052-4.061.3-5.764.762l-.365.116c-1.386.435-2.82.885-3.658 2.176-.068.153-.11.346-.11.542 0 .217.052.436.17.606.645.717 1.505.946 2.418 1.189l1.119.338.094.036c.655.25 1.453.568 1.711 1.346 1.577-.891 3.492-1.3 5.696-1.213-.956-1.138-1.463-2.615-1.463-4.293 0-.517.056-1.055.152-1.605ZM62.491 52.88l.023.011c.004-.036.129-.955.19-1.186l.006-.034c-.09.096-.767.838-.817.893.095.045.535.256.597.316Zm-43.734-.61-.517-.078c-.013.088-.11.738-.14.741l.547.08c.392.06.554-.02.595-.29l-.047-.271c-.068-.09-.207-.15-.438-.183Zm2.808.337a.69.69 0 0 0-.519.177c-.182.169-.285.459-.297.841-.02.673.245 1.054.748 1.07a.699.699 0 0 0 .523-.18c.181-.17.283-.46.294-.84.013-.378-.07-.675-.24-.856a.7.7 0 0 0-.509-.212Zm46.516.214-.305-.004c-.001.169-.01 2.012-.04 2.02l.336.001c.77.004 1.015-.24 1.019-1.004v-.013c0-.754-.246-.998-1.01-1Zm5.473-3.63 1.025 5.3c-.143.698-.908 1.04-1.522 1.315l-.155.07c-4.451 1.477-9.853.593-14.09-2.313l-3.85-2.528a18.39 18.39 0 0 0-13.481-2.614c-2.301.44-4.554 1.407-7.09 3.045L30.84 53.77c-3.473 2.22-7.545 3.083-11.466 2.427-1.2-.232-2.444-.47-3.394-1.348-.194-.21-.293-.398-.317-.606.003 0 .925-4.598 1.057-5.256 1.292 1.424 3.159 1.735 5 1.835 2.383.117 4.67-.587 7.196-2.211l3.88-2.498c4.7-2.988 9.754-4.17 15.022-3.512 3.04.393 5.938 1.425 8.859 3.155l2.496 1.562 2.554 1.663a11.699 11.699 0 0 0 8.395 1.871c1.197-.263 2.532-.575 3.432-1.66Zm-53.673 3.625c.064-.445-.148-.962-.942-1.077l-1.377-.204c-.036.027-.048.106-.048.106.133.067.14.098.13.173l-.381 2.573c-.011.075-.025.1-.14.097-.032.029-.044.11-.044.11.026.037.903.166.903.166l.031.005.018-.113c-.107-.053-.131-.082-.131-.13 0-.013 0-.026.003-.041 0 0 .15-1.016.15-1.024.004.03.616.12.616.12.792.118 1.145-.316 1.212-.76Zm3.078.882c.016-.494-.13-.93-.409-1.23-.243-.258-.577-.4-.966-.414-.39-.012-.733.109-.993.352-.297.28-.471.705-.487 1.198-.032.955.521 1.614 1.375 1.643.39.013.732-.108.992-.352.299-.279.472-.704.488-1.197Zm3.15-.008c-.15-.71-.816-.715-1.348-.72-.37-.002-.688-.006-.737-.233-.042-.207.083-.355.357-.414.46-.097.735.051.758.159l.01.07c.03.054.117.07.117.07.037-.02.31-.816.31-.816l.036-.109-.147.07-.096.08-.148-.02-.173-.034a1.892 1.892 0 0 0-.723.023c-.818.175-1.005.72-.917 1.135.133.627.773.634 1.288.64.393.004.732.008.784.254l-.04.28c-.08.124-.261.217-.54.277-.243.05-.602.04-.762-.065l-.074-.094-.018-.076-.087-.018c-.038.024-.23.803-.23.803l.03.005v.002l.064.024c.004-.007.007-.007.012-.014l.03.005c.019-.036.03-.057.045-.059l.185.017.179.034.71-.017c.915-.194 1.225-.789 1.125-1.26Zm2.533-.033-.05-.103c-.132.01-.155-.006-.188-.079l-.97-2.126c.014.024.62-.25.62-.25.118-.054.146-.05.196.027.039.012.114-.022.114-.022.015-.042-.286-.704-.286-.704-.042-.016-.117.017-.117.017-.004.1-.017.124-.136.18l-1.801.818c-.127.058-.152.046-.186-.003-.038-.01-.112.024-.112.024-.015.042.285.705.285.705.041.017.117-.018.117-.018l-.002-.048c0-.087.026-.112.126-.157l.635-.29v.003c0 .071.928 2.112.928 2.112.014.03.022.053.022.071 0 .03-.019.05-.053.075l-.002.016c0 .041.025.098.025.098.043.017.805-.332.805-.332l.03-.014Zm3.462-1.987c.01-.044-.37-.632-.37-.632-.044-.008-.111.036-.111.036l.002.05c0 .056-.02.085-.113.144l-1.123.727s.002 0 .002-.003c0-.046-.35-.588-.397-.662l.598-.39c.116-.073.142-.067.179-.032.039.003.107-.041.107-.041.01-.045-.364-.621-.364-.621-.046-.01-.112.036-.112.036.002.02.004.036.004.05 0 .058-.024.087-.113.144l-.626.403q.002 0 .002-.002c0-.05-.368-.617-.37-.62.018.025 1.046-.64 1.046-.64.117-.077.142-.07.179-.035.038.005.109-.04.109-.04.009-.044-.365-.62-.365-.62-.045-.011-.113.034-.113.034.01.094.008.122-.107.196l-1.714 1.107c-.01.044.034.112.034.112.193-.066.21-.039.251.019l1.409 2.181c.041.064.05.09-.068.188-.006.042.038.108.038.108.044.01 1.815-1.135 1.815-1.135.117-.075.14-.067.18-.024.04.006.111-.038.111-.038Zm2.522-1.761c.01-.045-.036-.111-.036-.111-.113.02-.167-.01-.346-.119l-.1-.06-.859-.496c.009-.01.013-.02.021-.03.293-.27.32-.657.068-1.048-.296-.457-.82-.52-1.366-.166l-1.22.79c-.012.045.03.112.03.112.133-.029.159-.016.201.05l1.413 2.183c.045.07.041.097-.022.155-.004.04.04.11.04.11.043.01.756-.451.756-.451l.028-.018-.063-.096c-.13.029-.153.017-.197-.052 0 0-.56-.859-.564-.868.019.022.432-.244.433-.245 0 .019.881.52.881.52l.146.104a.021.021 0 0 1 .005.014c0 .013-.009.036-.055.072v.01c0 .041.037.1.037.1.044.01.77-.46.77-.46Zm2.58-1.396c.013-.043-.027-.116-.027-.116-.082 0-.1.001-.179-.074l-1.868-1.756c-.039-.038-.166-.17-.166-.17-.015-.027-.023-.06.049-.104.012-.04-.024-.114-.024-.114-.043-.014-.906.442-.906.442-.014.041.024.114.024.114.133-.023.142-.005.145.001l.042.179c.003.011.413 2.616.413 2.616.008.063.012.122-.029.147-.011.042.027.116.027.116.044.014.725-.346.725-.346l.027-.014-.053-.1c-.1.013-.142.004-.165-.038l-.024-.091-.085-.507c.011.018.903-.45.913-.455.001.026.381.38.381.38l.059.068c0 .004.003.007.003.01 0 .01-.01.024-.055.055l-.002.015c0 .041.03.099.03.099.044.013.744-.357.744-.357Zm3.504-1.59c-.011-.037-.663-.5-.663-.5-.036-.001-.098.04-.098.04-.008.046.046.145.046.145l-.031.198a.738.738 0 0 1-.422.33.78.78 0 0 1-.6-.056c-.23-.123-.408-.361-.501-.673-.117-.38-.118-.685-.002-.903.094-.177.263-.301.516-.378.275-.085.577.005.632.187l.007.02.032.061.056.005c.035-.024.2-.806.2-.806l.018-.09-.112.044-.091.076c-.002.002-.132-.023-.132-.023l-.152-.037a1.259 1.259 0 0 0-.632.036c-.714.219-1.288.92-.959 1.997.27.884 1.021 1.33 1.827 1.084.515-.156.695-.426.804-.587l.098-.113c.021-.007.05.002.085.022.047-.014.074-.079.074-.079Zm2.763-.118c-.113-.029-.15-.079-.267-.255l-.063-.094s-.562-.8-.57-.814l.034-.02c.38-.122.564-.458.5-.918-.076-.537-.525-.817-1.17-.727l-1.443.205c-.026.035-.015.117-.015.117.131.028.148.05.16.13L41.002 47c.008.084-.004.107-.086.134-.02.034-.01.115-.01.115.037.027.879-.092.879-.092l.03-.004-.014-.11c-.133-.032-.151-.055-.16-.131l-.145-1.025c.006.03.496-.04.497-.04 0 .027.58.84.58.84l.087.155v.006c0 .012-.008.035-.08.051a.146.146 0 0 0-.016.075c0 .023.003.04.003.04.036.027.889-.092.889-.092.027-.036.016-.117.016-.117Zm2.72-.53-.114-.03c-.043.083-.058.103-.198.103h-1.34l.03-.776h.716c.138 0 .157.021.166.068l.113.025.032-.72-.114-.03c-.041.083-.058.105-.197.105h-.746l.031-.728 1.229.032c.136 0 .154.02.164.07l.114.024.031-.72-.112-.032c-.043.084-.06.105-.197.105h-2.042l-.032.114c.199.049.199.08.199.151v2.6c0 .076-.008.103-.16.122l-.028.112 2.143.032c.14 0 .155.02.167.078l.113.026.032-.73Zm2.281-1.44-.019.096c.016.031.09.076.09.076.043-.007.565-.664.565-.664l-.025-.019-.002-.003-.063-.05c-.036.033-.066.05-.116.043l-.134-.07-.15-.09a1.897 1.897 0 0 0-.685-.218c-.827-.11-1.187.339-1.244.756-.085.638.515.857.997 1.035.367.136.685.253.651.502l-.131.25c-.118.09-.32.116-.603.079-.244-.033-.576-.162-.692-.314l-.039-.116.008-.076-.076-.045c-.044.009-.486.678-.486.678l-.016.025.079.06c.049-.01.124-.062.125-.062l.16.078.16.093.676.223c.589.078.94-.078 1.133-.225a.883.883 0 0 0 .345-.584c.096-.717-.528-.944-1.028-1.128-.346-.128-.643-.237-.612-.466l.11-.204c.084-.064.205-.086.362-.064.412.057.574.231.615.284l.045.12Zm2.782 2.764.142-.043c.022.006.044.029.059.064.047.013.105-.024.105-.024.012-.04-.292-.78-.292-.78-.032-.02-.104-.016-.104-.016-.03.035-.038.145-.038.145 0 .003-.137.154-.137.154a.707.707 0 0 1-.525.05c-.479-.13-.7-.625-.544-1.201.104-.385.267-.643.482-.764.172-.098.386-.113.634-.044a.668.668 0 0 1 .4.29l.039.218-.013.077.045.035c.043-.002.595-.575.595-.575l.064-.065-.114-.022-.118.015-.094-.084-.115-.117a1.244 1.244 0 0 0-.553-.307 1.463 1.463 0 0 0-1.125.123c-.359.204-.618.568-.75 1.05-.243.89.154 1.667.964 1.89.52.14.817.008.993-.07Zm2.706 1.305c-.053-.065-.065-.077-.056-.186l.184-2.629.02-.16c.01-.02.025-.06.112-.028.04-.017.071-.093.071-.093-.017-.041-.912-.421-.912-.421-.041.017-.071.093-.071.093.08.07.092.096.092.108v.006l-.12.149-1.76 1.965c-.043.046-.085.087-.133.072-.039.019-.07.093-.07.093.018.04.725.34.725.34l.029.012.044-.102c-.067-.056-.082-.096-.082-.121 0-.015.004-.025.006-.03l.056-.077c.003-.001.337-.38.338-.383.002.022.924.414.929.416-.02.001-.054.536-.054.536a3.52 3.52 0 0 0-.015.09c-.005.01-.009.019-.084-.001-.037.018-.07.093-.07.093.017.041.747.35.747.35.041-.016.074-.092.074-.092Zm2.865 1.762c-.094-.102-.08-.137-.06-.17l1.416-2.264c.026-.043.056-.06.127-.02.042-.012.087-.081.087-.081-.01-.043-.875-.584-.875-.584-.044.01-.088.08-.088.08.03.052.039.08.039.097a.05.05 0 0 1-.01.03c-.026.038-.335.254-.661.483l-.814.578.008-.044c.06-.173.15-.684.15-.684.07-.418.165-.991.194-1.04.009-.015.022-.027.086-.015.033-.015.076-.082.076-.082-.01-.043-.883-.592-.883-.592-.045.01-.087.079-.087.079.066.087.064.119.037.162l-1.414 2.263c-.03.048-.064.056-.118.025-.042.011-.085.082-.085.082.01.043.683.461.683.461l.027.018.058-.094c-.056-.063-.074-.098-.074-.126 0-.018.008-.033.018-.048l1.102-1.765c-.006.019-.008.038-.012.057-.1.339-.334 1.49-.334 1.49l-.15.844c.015.033.09.079.09.079.036-.001.804-.553.804-.553s1.051-.78 1.232-.916l-.049.08c-.272.378-1.087 1.682-1.087 1.682-.024.038-.05.061-.137.014-.042.01-.086.077-.086.077.01.044.702.478.702.478.044-.01.088-.08.088-.08Zm3.666 1.795c-.01-.044-.078-.089-.078-.089-.105.08-.133.081-.242.009l-1.07-.701c.036-.002 1.29-1.912 1.29-1.912.043-.064.065-.083.208-.008.041-.01.085-.079.085-.079-.008-.044-.806-.566-.806-.566-.043.009-.09.076-.09.076.116.133.106.16.064.224l-1.423 2.17c-.04.063-.064.08-.177.024-.04.012-.086.08-.086.08.01.045 1.704 1.154 1.704 1.154.113.074.116.102.094.157.012.038.08.084.08.084.045-.01.447-.623.447-.623Zm2.992-1.19c-.015-.042-.896-.452-.896-.452-.041.015-.076.09-.076.09.098.09.089.108.085.117l-.117.14c-.007.01-1.838 1.901-1.838 1.901-.044.044-.09.086-.135.068-.04.016-.075.09-.075.09.016.042.711.369.711.369l.03.013.046-.103c-.052-.053-.075-.087-.075-.12 0-.01.003-.022.008-.033l.057-.075.353-.369c0 .023.907.448.912.45-.02.001-.076.535-.076.535l-.016.089c-.004.01-.008.017-.086-.005-.036.017-.072.09-.072.09.015.042.734.38.734.38.042-.015.076-.089.076-.089-.05-.066-.062-.08-.05-.186.002 0 .276-2.55.276-2.55l.037-.236c.009-.019.027-.055.112-.02.04-.016.075-.093.075-.093Zm3.366 1c-.023-.038-.825-.237-.825-.237-.038.023-.06.102-.06.102.113.077.12.105.101.18l-.414 1.675c-.094.382-.369.548-.75.454-.19-.046-.326-.137-.405-.267-.079-.13-.094-.298-.049-.486l.414-1.674c.019-.075.038-.097.14-.088.032-.024.052-.104.052-.104-.023-.038-.885-.25-.885-.25l-.031-.007-.008.032-.017.08c.138.081.14.111.12.183l-.41 1.663c-.187.765.124 1.252.922 1.447.407.1.742.075.994-.079.24-.143.407-.404.497-.772l.411-1.662c.019-.075.035-.099.15-.087.034-.024.053-.103.053-.103Zm2.887 1.566c.003-.978-.534-1.565-1.434-1.569l-1.278-.005c-.032.03-.034.113-.034.113.126.046.14.072.138.152l-.009 2.596c0 .079-.015.101-.116.12l-.027.11c.032.032 1.197.037 1.197.037.509.003.9-.128 1.163-.388.264-.262.398-.654.4-1.166Zm3.212.938c.023-.038-.151-.715-.151-.715-.04-.023-.118 0-.118 0-.02.09-.03.116-.165.15l-1.294.334s.003-.004.003-.01c0-.09-.149-.664-.172-.748l.693-.179c.134-.033.156-.02.178.025.035.016.116-.005.116-.005.022-.038-.15-.704-.15-.704-.04-.022-.119 0-.119 0-.02.09-.03.114-.163.148l-.722.186c.002 0 .003-.004.003-.011 0-.095-.154-.692-.154-.696.008.029 1.195-.28 1.195-.28.134-.032.155-.018.179.027.036.016.115-.006.115-.006.023-.039-.152-.704-.152-.704-.039-.023-.117 0-.117 0-.019.089-.03.116-.163.15l-1.975.512c-.023.038-.003.117-.003.117.198-.001.212.026.23.095l.652 2.517c.017.074.017.101-.123.156-.019.036 0 .117 0 .117.039.023 2.081-.507 2.081-.507.133-.033.155-.019.181.035.035.017.115-.004.115-.004Zm-40.698-6.399-.534.349c.048.073.384.598.384.645l-.001.003.561-.365c.15-.097.237-.2.26-.307l-.066-.266c-.137-.212-.334-.23-.604-.059Zm2.613-1.314-.027-.026.221 1.192c.096-.05.528-.272.611-.285l.024-.012c-.028-.027-.69-.687-.83-.869Zm18.495.387.025.01c.003-.038.092-.962.146-1.193l.003-.033-.78.924c.095.04.538.233.606.292Zm-11.411-2.915-.63.09c.011.083.08.583.08.718 0 .02-.001.03-.004.03l.66-.094c.176-.024.299-.08.364-.169l.054-.268c-.035-.25-.206-.35-.524-.307Zm-7.729-28.9c-.365-.004-.94.51-1.126.707.746-.258 1.027-.118 1.197-.342.01-.118.035-.295-.07-.365Zm1.072 1.357.068-.359c-.053-.335-.407-.645-.674-.799-.09.473.233.936.606 1.158Zm-.34.941c.228-.363-.074-1.099-.472-1.204-.04.133-.158.302-.124.447.052.264.468.364.597.757Zm-.45.023a.792.792 0 0 0-.319-.447L34 17.83c-.304.464.254.829.248 1.122.17-.18.358-.664.253-.997Zm-1.442-.375c-.201.078-.692.401-.942.366.123.156.664.124.857.148.337.02.566-.362.735-.63l-.65.116Zm.524 1.669c.11-.223.16-.629.01-.857-.665.164-.245.944-.807 1.394.387-.07.554-.075.797-.537Zm-4.591-2.977c-.27.07-.503.403-.57.643-.128.507-.01.621.232.933-.117-.713.72-1.01.338-1.576Zm3.889 2.199c-1.145-.26-.737.164-1.642.408.025.158.657.12.95-.008.146-.032.64-.222.692-.4Zm1.251-1.94c-1.173-.054-.698.29-1.543.691.052.15.667.003.935-.176.136-.059.586-.332.608-.515Zm-5.341-.833c-.167-.077-.636.162-.757.25-.292.132-.742.58-.64.703.784-.512.829.075 1.397-.953Zm2.895-1.805c-.124-.392-.915-.35-1.32-.193.398.111.577.347.841.385.31.013.42-.079.48-.192Zm.253.259c-.327.25-.023.978.263 1.307-.03-.413.132-.66.077-.922-.092-.297-.214-.37-.34-.385Zm-1.628-.117c-.33-.117-.905.121-1.093.283.425-.042.693.431 1.2.224l.324-.171a.788.788 0 0 0-.431-.336Zm.654.831c-.106.333.149.902.319 1.084-.056-.424.409-.706.186-1.206l-.184-.32a.793.793 0 0 0-.321.442Zm1.658 4.351-.368.02c-.542.078-.531.621-.918.803.244.047.86-.045 1.085-.314a.777.777 0 0 0 .201-.509Zm-2.875-4.36c-.205-.185-.613-.19-.848-.112-.494.177-.52.34-.646.714.527-.494 1.24.03 1.494-.603Zm.623.06c-.23.15-.342.543-.326.789.044.521.195.592.523.807-.34-.635.352-1.19-.197-1.597Zm-.598 1.156c-.056-.154-.194-.423-.338-.415-.028.714-.016 1.262.29 1.603.194-.577.204-.839.048-1.188ZM0 64.395c0-.1.184-.876.195-.909.03-.09.06-.183.136-.183l.106.031.27.07.653.041h3.136c.39 0 .61-.045.729-.068l.1-.016c.106 0 .106.116.106.166l-.017.652-.008.267c0 .164-.103.172-.123.172-.115 0-.125-.12-.131-.2l-.008-.09c-.026-.19-.161-.388-.966-.405l-.99-.016v3.475c0 .783 0 1.46.044 1.807.024.247.072.376.271.404l.367.032c.09 0 .13.06.13.115 0 .038-.019.13-.198.13l-.93-.022-.098-.004-.136.005-.684.02c-.049 0-.197 0-.197-.13 0-.056.04-.114.13-.114 0 0 .235-.03.238-.032.118-.024.158-.156.192-.405.04-.346.04-1.023.04-1.806v-3.475l-1.17.016c-.505.01-.684.063-.802.239 0 0-.136.25-.136.247-.02.054-.056.125-.143.125-.049 0-.106-.036-.106-.139Zm5.96-.73.27.021c.228.05.295.14.31.42l.017 1.803v1.473c0 .783 0 1.46-.04 1.806-.036.25-.075.38-.193.405l-.238.032c-.09 0-.131.058-.131.115 0 .13.149.13.198.13l.682-.02.137-.006.098.004.931.021c.177 0 .197-.09.197-.13 0-.056-.04-.114-.13-.114l-.369-.032c-.197-.028-.245-.157-.27-.404-.043-.348-.043-1.024-.043-1.807v-.88l3.534.015-.014.865c0 .783 0 1.46-.043 1.806-.032.243-.072.38-.19.405l-.238.032c-.09 0-.132.06-.132.115 0 .13.149.13.198.13l.684-.021.136-.005.095.004.933.021c.18 0 .199-.09.199-.13 0-.054-.04-.114-.13-.114l-.368-.032c-.199-.028-.248-.157-.273-.404-.04-.347-.04-1.024-.04-1.807v-1.473l.016-1.802c.017-.287.078-.386.257-.42l.196-.022c.077 0 .132-.048.132-.114 0-.13-.149-.13-.197-.13l-.686.02-.134.004-.108-.004-.838-.02c-.049 0-.198 0-.198.13 0 .066.056.114.132.114l.27.021c.228.05.295.14.31.42l.017 1.803v.176l-3.532-.015.012-.161.017-1.802c.016-.284.08-.386.259-.42l.197-.022c.076 0 .131-.048.131-.114 0-.087-.066-.13-.198-.13l-.682.02-.138.004-.11-.004-.836-.02c-.13 0-.196.043-.196.13 0 .065.055.114.13.114Zm10.077.233c.459.05.502.15.544.247l.045.276c0 .155.092.171.131.171.042 0 .097-.024.122-.142l.032-.426.009-.134.05-.285.019-.112c0-.13-.075-.14-.098-.14l-.093.028-.04.016-.347.04-1.912.008-.113-.004-.832-.02c-.049 0-.197 0-.197.13 0 .066.054.114.13.114l.269.021c.228.05.295.14.311.42l.017 1.803v1.473c0 .783 0 1.46-.041 1.806-.035.25-.074.38-.193.405l-.238.032c-.089 0-.13.058-.13.115 0 .13.148.13.196.13l.68-.02.141-.006.319.01 1.747.04c.33 0 .441 0 .512-.264.043-.177.112-.752.112-.828 0-.06 0-.188-.116-.188-.106 0-.125.116-.135.178-.056.322-.148.473-.34.554-.205.087-.564.087-.778.087-.81 0-.884-.102-.906-.624V66.646c0 .004 1.184.046 1.184.046.284.028.351.14.38.246l.03.26c0 .08.05.137.123.137.123 0 .123-.149.123-.22l.033-.53.066-.475c0-.121-.08-.13-.104-.13l-.169.123c-.063.07-.161.086-.356.103l-1.323.016.013-2.328c.1-.02.99-.012 1.123.004Zm6.253.209c.017-.29.08-.393.255-.42l.2-.022c.075 0 .13-.048.13-.114 0-.13-.147-.13-.196-.13l-.621.017-.208.007-.173-.005-.79-.02c-.048 0-.197 0-.197.13 0 .066.057.115.131.115l.27.021c.228.05.294.14.31.42l.017 1.803v1.22c0 1.353.4 1.912.748 2.248.567.532 1.35.612 1.766.612.45 0 1.124-.066 1.766-.636.7-.624.79-1.69.79-2.548v-.896l.017-1.802c.016-.287.076-.386.258-.42l.197-.022c.075 0 .13-.048.13-.114 0-.13-.148-.13-.197-.13l-.56.018-.142.006-.117-.004-.77-.02c-.049 0-.197 0-.197.13 0 .065.056.114.13.114l.27.021c.245.054.294.157.311.42l.016 1.803v1.046c0 1-.14 1.6-.47 2.008a1.685 1.685 0 0 1-1.263.579c-.475 0-.826-.072-1.22-.443-.3-.286-.607-.75-.607-2.02v-1.17l.016-1.802Zm9.442 2.351L29 63.512c-.118-.13-.195-.209-.267-.209-.145 0-.156.19-.156.481l-.008 4.793c0 .749-.042.955-.205 1.002l-.325.046c-.09 0-.13.058-.13.115 0 .13.138.13.196.13l.666-.02.137-.006.123.005.763.02c.059 0 .215 0 .215-.13 0-.052-.035-.114-.132-.114l-.401-.047c-.17-.05-.26-.206-.279-.91l-.103-3.835 2.067 2.274c.909.978 2.099 2.19 2.187 2.27.477.475.56.551.654.551.128 0 .139-.1.139-.658l.015-4.899c0-.522.044-.637.26-.684l.188-.022c.107 0 .156-.064.156-.123 0-.122-.145-.122-.214-.122l-.562.018-.15.007-.178-.006-.691-.019c-.08 0-.231 0-.231.121 0 .079.047.124.13.124l.396.04c.2.052.268.165.275.732l.09 4.082-.623-.678-1.27-1.383Zm5.712-2.35c.017-.285.079-.387.257-.42l.197-.023c.077 0 .132-.048.132-.114 0-.13-.15-.13-.199-.13l-.684.02-.134.004-.13-.005-.716-.02c-.048 0-.196 0-.196.13 0 .066.056.115.128.115l.246.03c.129.03.218.112.236.412l.016 1.802v1.473c0 .783 0 1.46-.042 1.806-.035.255-.073.38-.192.405l-.237.032c-.09 0-.13.06-.13.115 0 .13.148.13.197.13l.684-.021.136-.005.094.004.934.021c.179 0 .198-.09.198-.13 0-.054-.04-.114-.13-.114l-.367-.032c-.199-.027-.248-.157-.273-.404-.043-.348-.043-1.024-.043-1.807v-1.473l.018-1.802Zm3.016-.408.291-.035c.133 0 .147-.086.147-.124 0-.12-.182-.12-.29-.12l-.607.017-.17.007-.207-.006-.771-.019c-.119 0-.281 0-.281.121 0 .076.05.124.13.124l.3.03c.263.076.38.148.561.607l2.068 5.178c.155.391.202.509.342.509.103 0 .14-.084.264-.36l.143-.315 1.034-2.421.495-1.195.49-1.187c.218-.552.339-.69.435-.757.142-.09.31-.09.366-.09.143 0 .164-.077.164-.123 0-.08-.07-.12-.206-.12l-.53.018-.123.006-.194-.007-.625-.018c-.086 0-.247 0-.247.13 0 .043.02.115.155.115l.297.029c.057.03.067.096.067.132l-.074.298c-.169.553-1.205 3.264-1.725 4.49l-1.55-4.133c-.121-.313-.222-.575-.222-.67 0-.046.012-.083.073-.111Zm7.977.198c.455.05.5.15.543.247l.044.276c0 .155.092.171.132.171.035 0 .098-.018.12-.145l.033-.396.01-.16.067-.398c0-.126-.067-.14-.096-.14l-.096.029-.036.015-.35.04-1.91.008-.11-.004-.835-.02c-.049 0-.199 0-.199.13 0 .066.055.114.132.114l.27.021c.227.05.294.14.31.42l.017 1.803v1.473c0 .783 0 1.46-.042 1.806-.035.25-.074.38-.192.405l-.239.032c-.089 0-.13.06-.13.115 0 .13.15.13.198.13l.682-.02.137-.006.32.011 1.747.038c.331 0 .443 0 .513-.263a8.39 8.39 0 0 0 .11-.828c0-.06 0-.188-.114-.188-.104 0-.124.106-.138.177-.055.323-.146.473-.337.555-.208.087-.566.087-.78.087-.81 0-.884-.102-.906-.624V66.646c0 .004 1.185.046 1.185.046.317.031.359.172.38.247l.03.259c0 .083.049.137.124.137.12 0 .12-.149.12-.22l.035-.53.067-.475c0-.121-.081-.13-.106-.13l-.155.109c-.076.085-.174.1-.37.117l-1.322.016.012-2.328c-.012-.02 1.125.004 1.125.004Zm6.554 1.092c0 .683-.32 1.3-.992 1.935l.161.208c.592.761 1.103 1.419 1.54 1.886.427.45.766.548.984.582l.316.024c.077 0 .14.051.14.115 0 .13-.16.13-.265.13h-.594c-.47 0-.694-.041-.925-.167-.343-.183-.62-.547-1.037-1.098l-.113-.148-.615-.835-.289-.395-.066-.034s-1.028-.015-1.024-.013v.202c0 .783 0 1.46.043 1.807.024.247.073.377.272.404l.366.032c.091 0 .133.06.133.115 0 .038-.02.13-.2.13l-.929-.022s-.1-.004-.133-.002l-.752.023c-.049 0-.197 0-.197-.13 0-.056.04-.114.13-.114 0 0 .237-.03.238-.032.119-.024.159-.162.191-.405.043-.347.043-1.023.043-1.806v-1.473l-.017-1.802c-.016-.28-.083-.37-.311-.42l-.268-.022c-.076 0-.131-.048-.131-.114 0-.13.148-.13.197-.13l.835.02.11.004.28-.008.708-.017c.513 0 1.1.045 1.567.38.224.162.604.595.604 1.19Zm-.83.434c0-1.008-.518-1.61-1.384-1.61-.26 0-.474.029-.538.047-.02.008-.027.019-.027.04v2.735c0 .015.002.03.03.047.098.06.45.123.844.123.178 0 .405-.017.591-.148.303-.205.483-.666.483-1.234Zm4.647 4.126c-.305 0-1.03-.078-1.177-.802l-.023-.296c0-.047 0-.155-.122-.155-.111 0-.124.123-.132.189l-.006.082-.036.812c0 .225.008.3.162.375.323.157.7.234 1.15.234.51 0 .958-.126 1.298-.365.545-.387.738-.998.738-1.44 0-.655-.204-1.195-1.246-2.016l-.233-.184c-.8-.655-.996-.921-.996-1.355 0-.542.387-.907.963-.907.692 0 .923.288.99.411.044.082.094.3.103.394.007.06.02.166.13.166.123 0 .123-.167.123-.257l.027-.822.004-.063c0-.122-.11-.122-.146-.122l-.28-.04a3.282 3.282 0 0 0-.791-.086c-1.073 0-1.795.63-1.795 1.569 0 .57.19 1.106 1.11 1.864l.377.309c.737.607.94.92.94 1.458 0 .52-.39 1.047-1.132 1.047Zm4.613-5.443c.014-.284.077-.386.257-.42l.196-.022c.076 0 .132-.048.132-.114 0-.13-.15-.13-.2-.13l-.68.02-.139.004-.128-.005-.715-.02c-.132 0-.198.044-.198.13 0 .066.056.115.13.115l.243.03c.114.026.22.095.238.412l.016 1.802v1.473c0 .783 0 1.46-.041 1.806-.035.25-.075.38-.193.405l-.238.032c-.089 0-.13.06-.13.115 0 .13.148.13.196.13l.686-.021.134-.005.099.004.932.021c.176 0 .195-.09.195-.13 0-.056-.04-.114-.13-.114l-.366-.032c-.199-.028-.247-.157-.272-.404-.043-.348-.043-1.024-.043-1.807v-1.473l.019-1.802Zm5.562-.184c.806.017.941.215.968.406l.007.089c.006.079.014.2.132.2.02 0 .121-.008.121-.172l.008-.268.016-.651c0-.05 0-.166-.105-.166l-.099.015a3.317 3.317 0 0 1-.727.07h-3.137l-.656-.042-.27-.07-.103-.03c-.073 0-.107.086-.143.2-.005.015-.19.79-.19.891 0 .103.058.139.106.139.085 0 .121-.066.144-.124l.136-.248c.117-.176.297-.23.8-.239l1.173-.016v3.475c0 .783 0 1.46-.04 1.806-.033.243-.074.38-.192.405l-.24.032c-.089 0-.129.058-.129.115 0 .13.148.13.197.13l.682-.02.138-.006.099.004.928.021c.173 0 .199-.081.199-.13 0-.054-.041-.114-.13-.114l-.368-.032c-.198-.027-.247-.157-.272-.404-.042-.348-.042-1.024-.042-1.807v-3.475l.99.016Zm3.243-.266c.054-.022.117-.046.117-.116 0-.08-.058-.12-.172-.12l-.59.019-.114.005-.195-.006-.63-.019c-.166 0-.175.101-.175.121 0 .073.061.124.148.124.058 0 .207.044.324.123.166.11.371.335.55.6.302.445 1.416 2.278 1.468 2.4a1.7 1.7 0 0 1 .188.853v.72l-.025.83c-.012.166-.057.371-.209.402l-.237.032c-.09 0-.131.058-.131.115 0 .13.148.13.197.13l.685-.021.134-.005.1.004.928.021c.179 0 .198-.09.198-.13 0-.054-.04-.114-.13-.114l-.368-.032c-.186-.026-.27-.143-.288-.402l-.025-.83v-.72c0-.27 0-.524.12-.811.143-.343 1.307-2.304 1.588-2.646.186-.228.274-.32.429-.41a.707.707 0 0 1 .35-.11c.128 0 .172-.07.172-.131 0-.052-.044-.113-.173-.113l-.59.018-.22.007-.134-.007-.418-.018c-.172 0-.198.071-.198.113 0 .087.082.114.162.141.036.01.098.026.098.177 0 .119-.045.252-.134.394-.142.236-1.08 1.85-1.339 2.36a235.688 235.688 0 0 1-1.478-2.542c-.062-.118-.1-.21-.1-.295 0-.037.025-.07.074-.095l.043-.016Zm10.582-.354c2.005 0 3.35 1.286 3.35 3.2 0 2.02-1.43 3.486-3.399 3.486-2.274 0-3.31-1.738-3.31-3.353 0-1.289.912-3.333 3.36-3.333Zm-2.435 3.1c0 1.848 1.074 3.139 2.61 3.139.376 0 2.246-.135 2.246-2.804 0-2.078-1.286-3.024-2.48-3.024-1.466 0-2.376 1.03-2.376 2.688Zm10.222-3.05-.091.032-.046.022-.255.026-.097.005-2.054.007-.11-.004-.835-.02c-.05 0-.198 0-.198.13 0 .066.055.114.132.114l.268.021c.229.05.296.14.311.42l.018 1.803v1.473c0 .783 0 1.46-.042 1.806-.035.25-.075.38-.192.405l-.238.032c-.09 0-.13.058-.13.115 0 .13.148.13.197.13l.682-.02.137-.006.1.004.928.021c.18 0 .199-.09.199-.13 0-.056-.041-.114-.132-.114l-.365-.032c-.2-.028-.248-.157-.272-.404-.043-.348-.043-1.024-.043-1.807v-.712c.311-.012 1.065-.01 1.25.013.222.028.345.153.384.26l.04.238.005.05c0 .074.05.13.122.13.122 0 .122-.145.122-.223l.034-.553.067-.475c0-.121-.08-.13-.104-.13-.061 0-.097.047-.13.09-.07.099-.145.127-.352.143l-.372.009-1.07.008.004-2.32c.01-.029 1.298-.004 1.298-.004.3.008.472.143.514.232l.068.292c0 .155.102.162.123.162.044 0 .103-.024.13-.142l.032-.415.01-.145.048-.286.019-.111c0-.082-.047-.14-.114-.14ZM1.034 75.226h89.205v-.51H1.034v.51Zm12.14 14.338a2.53 2.53 0 0 1-.79-.128c-.38-.114-.5-.502-.61-1.278l-1.176-7.98c-.04-.288-.127-.428-.264-.428-.138 0-.21.123-.313.327l-3.484 7.314-3.496-7.223c-.162-.325-.247-.418-.378-.418-.085 0-.198.062-.25.362l-1.28 8.42c-.069.475-.178.924-.504.994l-.38.038c-.06 0-.24 0-.24.122 0 .174.193.174.266.174l.794-.023.484-.015.414.013.942.025c.165 0 .341-.013.341-.174 0-.077-.082-.122-.225-.122L2.49 89.5c-.243-.057-.362-.182-.362-.382l.039-.603.663-5.077c.106.174.627 1.283.627 1.283l.715 1.53c.152.355 1.157 2.302 1.486 2.933l.038.071c.196.37.314.592.442.592.14 0 .208-.129.506-.74l2.816-5.864c0 .053.766 5.673.766 5.673.016.114.023.206.023.28 0 .157-.03.229-.066.24-.086.037-.164.083-.164.173 0 .117.136.15.404.174.509.038 2.288.077 2.624.077.237 0 .367-.061.367-.174 0-.122-.16-.122-.238-.122Zm7.375-1.73c-.124 0-.15.09-.173.22-.092.532-.244.785-.563.932-.33.152-.875.152-1.2.152-1.342 0-1.494-.214-1.519-1.054l-.002-1.468.002-.532v-1.02c0-.098.024-.098.046-.098.29 0 1.582.012 1.83.039.409.043.623.191.696.479l.041.34.01.12c0 .093.052.146.148.146.147 0 .147-.174.147-.278l.024-.407.028-.456.087-.805.017-.14c0-.086-.045-.135-.123-.135-.074 0-.13.063-.213.159-.126.141-.312.178-.616.203-.19.017-.923.026-2.063.026-.04 0-.059-.01-.059-.111v-3.267c0-.097.031-.097.059-.097.25 0 1.607.025 1.83.051.648.078.756.234.84.445.072.175.074.426.074.453 0 .064 0 .213.148.213.127 0 .152-.122.161-.167l.047-.592.018-.264.085-.715.018-.127c0-.037 0-.149-.11-.149l-.136.03-.076.023-.552.077c-.22.011-2.33.013-3.226.013l-.66-.02-.152-.006-1.047-.013c-.153 0-.316.011-.316.148 0 .148.17.148.251.148l.496.037c.422.09.508.3.531.708.026.412.026.767.026 2.736v2.273c0 1.183 0 2.206-.064 2.746-.058.418-.128.638-.35.683l-.458.051c-.102 0-.238.014-.238.136 0 .106.097.16.29.16l.891-.026.736-.012 1.342.038.375.01 1.86.03c.497 0 .632 0 .728-.36.067-.265.17-1.14.17-1.442 0-.13 0-.265-.136-.265Zm8.484-.052c-.15 0-.165.144-.174.223-.025.241-.178.595-.328.756-.303.327-.764.35-1.487.35-1.033 0-1.339-.096-1.541-.275-.26-.223-.26-1.122-.26-2.752V83.81c0-1.97 0-2.324.026-2.736.026-.47.14-.65.451-.707l.498-.038c.137 0 .265-.018.265-.148s-.146-.148-.304-.148l-1.072.023-.684.016-.655-.016-1.114-.023c-.153 0-.316.011-.316.148 0 .148.17.148.251.148l.42.037c.42.09.506.3.53.708.026.412.026.767.026 2.736v2.273c0 1.183 0 2.206-.065 2.746-.057.418-.128.638-.349.683l-.459.051c-.102 0-.238.014-.238.136 0 .16.218.16.29.16l.891-.025.736-.013 2.016.05 1.742.027c.679 0 .76-.065.845-.372.104-.38.194-1.344.194-1.493 0-.124 0-.252-.135-.252Zm8.503-.73c0 1.417-1.076 2.847-3.48 2.847l-.402-.016-.503-.023-.967-.038-.736.013-.891.025c-.072 0-.29 0-.29-.16 0-.122.136-.136.238-.136l.46-.05c.241-.05.3-.339.348-.684.064-.54.064-1.563.064-2.746V83.81c0-1.97 0-2.324-.026-2.736-.023-.408-.109-.618-.53-.708l-.496-.037c-.082 0-.252 0-.252-.148 0-.137.163-.148.317-.148l1.258.026.497.013.93-.022.646-.017c2.582 0 2.782 1.507 2.782 1.968 0 .996-.515 1.624-1.29 2.25 1.133.402 2.323 1.34 2.323 2.8Zm-4.545-3.022c0 .088.027.102.066.11l.6.04c.383 0 .685-.04.91-.239.337-.274.517-.74.517-1.344 0-.762-.43-1.97-1.583-1.97 0 0-.417.025-.418.024-.068.02-.092.051-.092.19v3.189Zm2.894 3.603c0-.504-.121-1.764-1.24-2.544-.27-.194-.567-.279-1.054-.304l-.555-.013c-.026 0-.045.005-.045.058v3.061c0 .852.037 1.05.432 1.21.345.142.637.153.93.153.256 0 1.532-.077 1.532-1.62Zm13.57-2.919c0 3.137-2.21 5.327-5.377 5.327-3.598 0-5.237-2.64-5.237-5.094s1.68-5.094 5.366-5.094c3.238 0 5.249 1.863 5.249 4.861Zm-1.87.478c0-2.74-1.543-4.655-3.753-4.655-1.174 0-3.145.52-3.145 4.01 0 2.817 1.617 4.785 3.933 4.785.891 0 2.965-.404 2.965-4.14Zm12.88-5.158-1.1.027-.373.012a947.31 947.31 0 0 0-1.484-.039c-.147 0-.303.011-.303.148 0 .148.17.148.251.148l.457.037c.422.09.507.3.531.708.026.412.026.767.026 2.736v1.614c0 1.382-.054 2.494-.74 3.18-.62.621-1.437.688-1.759.688-.446 0-1.031-.06-1.594-.522-.517-.423-.996-1.097-.996-3.152V83.81c0-1.97 0-2.324.026-2.736.027-.47.14-.65.453-.707l.367-.038c.072 0 .239 0 .239-.148 0-.137-.163-.148-.315-.148l-.944.022-.645.017-.69-.016-1.196-.023c-.153 0-.315.011-.315.148 0 .148.17.148.251.148l.496.037c.422.09.507.3.53.708.026.412.026.767.026 2.736v1.885c0 1.637.369 2.732 1.16 3.446.995.899 2.322.899 2.889.899.752 0 1.74-.107 2.707-.938 1.088-.932 1.238-2.43 1.238-3.91V83.81c0-1.97 0-2.324.025-2.736.027-.47.141-.65.451-.707l.37-.038c.137 0 .264-.018.264-.148 0-.137-.156-.148-.303-.148ZM72.17 89.7c0 .16-.187.16-.277.16h-1.226c-.707 0-1.047-.06-1.397-.249-.543-.29-1.026-.87-1.78-1.908l-.66-.927-.617-.853c-.055-.065-.12-.08-.21-.08l-1.122-.025c-.053 0-.071.018-.071.072v.18c0 1.191 0 2.22.064 2.76.042.407.13.636.476.682l.629.052c.168 0 .186.095.186.136 0 .16-.218.16-.29.16l-1.48-.028-.417-.01-.525.014-1.051.024c-.072 0-.29 0-.29-.16 0-.122.136-.136.238-.136l.459-.05c.242-.05.301-.339.349-.684.064-.54.064-1.563.064-2.746V83.81c0-1.97 0-2.324-.026-2.736-.023-.408-.108-.618-.53-.708l-.497-.037c-.081 0-.25 0-.25-.148 0-.137.162-.148.315-.148l1.252.025.517.014.949-.02.872-.019c.779 0 1.672.066 2.394.56.308.21.892.855.892 1.796 0 1.06-.509 1.928-1.694 2.896l.434.547c.945 1.191 1.691 2.133 2.349 2.824.699.724 1.22.827 1.428.869l.357.038c.168 0 .186.095.186.136Zm-4.647-6.664c0-1.84-1.222-2.332-1.945-2.332-.35 0-.559.016-.675.051-.072.02-.093.055-.093.15v3.925c0 .139.024.173.094.204.24.08.603.126.971.126.516 0 .677-.053.898-.213.28-.205.75-.726.75-1.911Zm15.487-3.002-1.03.03-.236.009-.456-.013-1.107-.026c-.155 0-.367 0-.367.148 0 .13.127.148.239.148.18 0 .483 0 .672.075.273.114.405.313.419 1.133l.128 5.766h-.032c0-.013-.906-.954-.906-.954l-1.912-1.98c-1.964-1.95-3.983-4.124-4.003-4.146l-.12-.13c-.153-.169-.253-.28-.38-.28-.18 0-.2.269-.2.471l-.117 7.644c-.012 1.114-.066 1.476-.377 1.572-.193.055-.441.063-.572.063-.066 0-.24 0-.24.136 0 .16.183.16.317.16l1.177-.03.218-.008.36.01 1.241.028c.106 0 .329 0 .329-.16 0-.136-.176-.136-.251-.136-.191 0-.44-.01-.662-.088-.278-.098-.407-.518-.43-1.405 0 0-.138-5.248-.14-5.364.071.062.261.268.261.268a82.123 82.123 0 0 0 2.795 2.95l1.713 1.716 2.096 2.082c.149.147.307.291.462.291.176 0 .2-.217.2-.431l.142-8.148c.012-.722.118-.972.454-1.068l.378-.037c.176 0 .266-.05.266-.148 0-.148-.198-.148-.33-.148Zm7.337 7.8c-.124 0-.15.09-.173.22-.091.532-.244.784-.564.932-.33.152-.875.152-1.2.152-1.34 0-1.493-.214-1.517-1.054l-.003-1.468.003-.532v-1.02c0-.098.022-.098.044-.098.29 0 1.582.012 1.831.039.409.044.624.191.695.479l.042.344.01.117c0 .092.052.145.148.145.148 0 .148-.174.148-.278l.023-.418.028-.445.087-.804.017-.14c0-.087-.045-.136-.123-.136-.075 0-.13.064-.213.16-.127.14-.312.177-.616.202-.19.017-.923.026-2.063.026-.042 0-.058-.01-.058-.111v-3.267c0-.097.031-.097.058-.097.249 0 1.607.025 1.83.051.649.078.757.234.839.445.073.175.075.425.075.453 0 .064 0 .214.148.214.127 0 .152-.127.16-.169l.048-.59.018-.265.085-.715.018-.127c0-.099-.037-.149-.11-.149l-.137.03-.075.023-.552.077c-.22.011-2.329.013-3.226.013l-.66-.02-.152-.006-1.047-.013c-.153 0-.316.011-.316.148 0 .148.17.148.251.148l.496.037c.422.09.507.3.53.708.027.412.027.767.027 2.736v2.273c0 1.183 0 2.206-.064 2.746-.047.344-.106.634-.349.683l-.459.051c-.102 0-.239.014-.239.136 0 .16.22.16.29.16l.892-.025.736-.013 1.342.038.374.01 1.86.03c.486 0 .633 0 .729-.36.066-.263.169-1.138.169-1.442 0-.13 0-.265-.135-.265Z"/></svg>