<svg xmlns="http://www.w3.org/2000/svg" viewBox="0 0 434 132.845">
<title>OMG__Monash</title>
<path fill="#fff" d="m19.52 62.615 35.36-31.72 35.44 31.72a70.46 70.46 0 0 1-4.62 11.19l-30.82-27.56-30.74 27.56a67.41 67.41 0 0 1-4.62-11.19m-.05-53.38h1.64l-.11.42v19.6h12.16c.22.37.45.43 1 .43s.82-.06 1-.43h12.09v-19.6l-.11-.42h1.66v21.54h-13c-.328.599-.968.96-1.65.93a1.76 1.76 0 0 1-1.6-.93h-13l-.08-21.54Zm2.85 0v-.39c1.59.03 3.174-.2 4.69-.68a14.14 14.14 0 0 1 3.71-.58 4.25 4.25 0 0 1 3 1v18.75a5.38 5.38 0 0 0-2.92-.8 13.91 13.91 0 0 0-4 .62 14.44 14.44 0 0 1-4.47.64l-.01-18.56Zm12.25 0v-.68a4.41 4.41 0 0 1 3-1 14.09 14.09 0 0 1 3.71.59 15 15 0 0 0 4.71.67v18.92a14.46 14.46 0 0 1-4.48-.64 13.91 13.91 0 0 0-4-.62 5.42 5.42 0 0 0-2.94.8V9.235Zm26.2 9.12a3.48 3.48 0 0 1 1.57 1.49 3.36 3.36 0 0 1 .39 1.61c.01.13.01.26 0 .39a4.18 4.18 0 0 0-1-.59 3.24 3.24 0 0 1-1-2.41c.008-.166.031-.33.07-.49m.75-3.17a3.74 3.74 0 0 1 1.18 1.79c.068.267.102.543.1.82a3.64 3.64 0 0 1-.25 1.22 3.49 3.49 0 0 0-.8-.78 3.07 3.07 0 0 1-.42-.92 3.74 3.74 0 0 1-.1-.81 4 4 0 0 1 .29-1.32m.81-.91a3.67 3.67 0 0 1 .66-2c.41.589.642 1.283.67 2a3.63 3.63 0 0 1-.61 1.91 3.42 3.42 0 0 0-.54-.92 2.85 2.85 0 0 1-.18-1v.01Zm1.64-2.69a3.39 3.39 0 0 1 1.16-1.8c.178.431.273.893.28 1.36a3.3 3.3 0 0 1-.08.77 3.47 3.47 0 0 1-1.07 1.71 4.67 4.67 0 0 0-.37-1.09v-.22a3 3 0 0 1 .08-.73m1.81.9a3.11 3.11 0 0 1 1.33-.7 3.26 3.26 0 0 1 2 .15 4.31 4.31 0 0 1-1.21.92 4.27 4.27 0 0 0-2.24.13h-.1c.081-.15.148-.308.2-.47m.41-3.09a3.54 3.54 0 0 1 1.49-1.5c.033.178.057.358.07.54a3.53 3.53 0 0 1-.36 1.56 3.41 3.41 0 0 1-1.4 1.4 4.92 4.92 0 0 0-.1-1.15 2.84 2.84 0 0 1 .3-.89m1.77.87a4.36 4.36 0 0 0 .28-.79l.23-.2a3.59 3.59 0 0 1 2.06-.64 3.58 3.58 0 0 1-1.25 1.76 3.73 3.73 0 0 1-1.83.61 5.33 5.33 0 0 0 .5-.74h.01Zm1.17 19.33a3.27 3.27 0 0 1-.51-1.8v-.19a3.62 3.62 0 0 1 1.63 1.29 3.41 3.41 0 0 1 .51 1.84v.16a3.27 3.27 0 0 1-1.65-1.3m-1.86.21a3.63 3.63 0 0 1 1.89 1 3.73 3.73 0 0 1-2.08.36 3.52 3.52 0 0 1-1.89-1 3.74 3.74 0 0 1 2.08-.37m-2.09-2a3.56 3.56 0 0 1 1.56 1.31 3.93 3.93 0 0 0-1.08.17 3.46 3.46 0 0 1-1-.23 3.31 3.31 0 0 1-1.6-1.38 3.57 3.57 0 0 1 2.12.13m-1.58-2.36c.548.421.964.99 1.2 1.64a4.67 4.67 0 0 0-1.12-.1 2.75 2.75 0 0 1-.86-.42 3.49 3.49 0 0 1-1.23-1.77 3.27 3.27 0 0 1 2 .64m-.2-.82a4.51 4.51 0 0 0-1-.33 3 3 0 0 1-.81-.65 3.53 3.53 0 0 1-.8-2 3.85 3.85 0 0 1 1.86 1.05 4 4 0 0 1 .72 1.9m.18-6a3.72 3.72 0 0 1 1.7-1.19 3.49 3.49 0 0 1-.34 1.49 4.44 4.44 0 0 0-1.63 1.56h-.09a3.94 3.94 0 0 0-.14-.49c.067-.5.252-.977.54-1.39m.62-2.51a3.39 3.39 0 0 1 1.9-.76 4 4 0 0 1-.65 1.34 4.47 4.47 0 0 0-2 1.12h-.11v-.47a2.79 2.79 0 0 1 .86-1.25m-.5 7a.16.16 0 0 1-.08.06 4.172 4.172 0 0 0-.26-.46v-.19a3.11 3.11 0 0 1 1.59-2.77c.04.254.06.512.06.77a2.71 2.71 0 0 1-.08.69 4.72 4.72 0 0 0-1.27 1.9m.48.69a3.47 3.47 0 0 1 1-1.81c.241.44.378.929.4 1.43a4.25 4.25 0 0 0-.78 2.14l-.07.08c-.11-.12-.22-.24-.35-.36a3.42 3.42 0 0 1-.2-1 3.53 3.53 0 0 1 0-.46m2.19 3.92v.08l-.42-.3a3.11 3.11 0 0 1-.53-1.41v-.27a3.5 3.5 0 0 1 .5-1.7c.343.382.596.836.74 1.33a4 4 0 0 0-.23 2.24m.09-13a4.22 4.22 0 0 0-2.21.65h-.09a2.77 2.77 0 0 0 .1-.5 3 3 0 0 1 1.12-1 3.47 3.47 0 0 1 2-.36 3.42 3.42 0 0 1-.92 1.21m1.89 14.71v.1a2.379 2.379 0 0 0-.45-.15 2.88 2.88 0 0 1-.79-1.26 3.19 3.19 0 0 1-.18-1.06 4.47 4.47 0 0 1 .2-.95 4.2 4.2 0 0 1 1 1.1 4.12 4.12 0 0 0 .28 2.22m2.82-4.71a.8.8 0 0 1 .76.81.64.64 0 0 1-.1.33c-.06.14-.11.3.19.3h1.09v-13.63a13.66 13.66 0 0 1 1.23-6.27l.31-.61.31.61a14.38 14.38 0 0 1 1.18 6.27v13.68h1.08c.3 0 .25-.16.18-.3a.94.94 0 0 1-.08-.33.81.81 0 0 1 .81-.81.83.83 0 0 1 .82.84c0 .56-.43 1.14-1.45 1.14H75.7a7.45 7.45 0 0 1 .41 2.6 7.35 7.35 0 0 1-.59 3.1 10.07 10.07 0 0 0 3.29-1.06h.09l.25.58-.07.05a10.5 10.5 0 0 1-2.72.91l-1.23.23a.7.7 0 0 1 .21.53.72.72 0 0 1-.72.72.72.72 0 0 1-.75-.69.7.7 0 0 1 .23-.56l-1.32-.23a10.25 10.25 0 0 1-2.63-.91l-.07-.05.26-.58h.08a9.72 9.72 0 0 0 3.36 1.07 6.69 6.69 0 0 1-.64-3.11 7.45 7.45 0 0 1 .41-2.6h-1.79c-1 0-1.4-.59-1.4-1.14a.86.86 0 0 1 .83-.84m9.59-15.39.21.19c.07.273.17.538.3.79.134.267.302.516.5.74a3.5 3.5 0 0 1-1.82-.61 3.68 3.68 0 0 1-1.22-1.76 3.57 3.57 0 0 1 2 .64m.78-1.38a3.41 3.41 0 0 1 1.55 1.5c.14.281.24.58.3.89a4.44 4.44 0 0 0-.1 1.15 3.91 3.91 0 0 1-1.47-1.44 3.36 3.36 0 0 1-.35-1.56c.014-.182.037-.362.07-.54m2.2 5.1h-.1a4.35 4.35 0 0 0-2.29-.14 4.22 4.22 0 0 1-1.22-.92 3.69 3.69 0 0 1 2.08-.15 3 3 0 0 1 1.32.71l.21.46m.4-3.17a3.55 3.55 0 0 1 1.16 1.8c.05.24.08.484.09.73a.81.81 0 0 1 0 .22 4.11 4.11 0 0 0-.36 1.09 3.28 3.28 0 0 1-1-1.71 4.9 4.9 0 0 1-.07-.77 4 4 0 0 1 .24-1.36m1.43 4.48a3.62 3.62 0 0 1 .71-2c.43.58.67 1.278.69 2-.01.34-.07.677-.18 1a4.65 4.65 0 0 0-.59.92 3.54 3.54 0 0 1-.63-1.91v-.01Zm2.48 2.25a3.08 3.08 0 0 1-.1.8c-.08.328-.22.64-.41.92a3.65 3.65 0 0 0-.79.78 3.47 3.47 0 0 1-.26-1.23 3.16 3.16 0 0 1 .11-.81 3.6 3.6 0 0 1 1.17-1.79c.173.422.268.873.28 1.33m-.37 7.08c-.229.259-.5.479-.8.65a5.06 5.06 0 0 0-1 .32 3.88 3.88 0 0 1 .77-1.9 4 4 0 0 1 1.81-1 3.54 3.54 0 0 1-.75 2m-2.12 3.35a4.28 4.28 0 0 0-1.13.09 3.45 3.45 0 0 1 3.28-2.3 3.6 3.6 0 0 1-1.25 1.79 3.69 3.69 0 0 1-.9.42m-1.94 2.34a3.65 3.65 0 0 0-1.09-.17 4 4 0 0 1 1.5-1.31 3.72 3.72 0 0 1 2.14-.13 3.34 3.34 0 0 1-2.55 1.61m1.39-14a3.94 3.94 0 0 0-2.16-.65 4 4 0 0 1-1-1.2 3.65 3.65 0 0 1 2.06.34 3.4 3.4 0 0 1 1.07 1c.02.168.05.335.09.5H85m.88 2.52h-.13a4.46 4.46 0 0 0-1.91-1.12 3.69 3.69 0 0 1-.64-1.34 3.31 3.31 0 0 1 1.85.76c.383.341.678.77.86 1.25a1.85 1.85 0 0 0 0 .47m-1.58 1.1a3.19 3.19 0 0 1-.33-1.55 3.87 3.87 0 0 1 1.68 1.19c.29.41.482.883.56 1.38-.06.17-.11.34-.15.5H86a4.24 4.24 0 0 0-1.66-1.54m0 2.24a2.76 2.76 0 0 1 .06-1.46 3.09 3.09 0 0 1 1.6 2.77v.2a3.4 3.4 0 0 0-.28.45l-.08-.06a4.4 4.4 0 0 0-1.28-1.9m-.5 2.22a4.46 4.46 0 0 1 .34-1.44 3.43 3.43 0 0 1 1 1.81c.01.15.01.3 0 .45a2.87 2.87 0 0 1-.2 1c-.12.12-.23.24-.34.37a.24.24 0 0 1-.06-.09 4.89 4.89 0 0 0-.74-2.13m-1.07 2a4 4 0 0 1 .74-1.32 3.4 3.4 0 0 1 .5 1.7v.27c-.042.51-.218 1-.51 1.42-.15.08-.29.17-.43.26v-.08a4.12 4.12 0 0 0-.25-2.25m-1.52 1.72a3.93 3.93 0 0 1 1-1.11c.11.323.18.659.21 1 0 .364-.06.726-.18 1.07a3.17 3.17 0 0 1-.85 1.25c-.15.039-.297.09-.44.15v-.1c.293-.701.387-1.47.27-2.22m-2.67 3.74a.43.43 0 0 1 0-.16 3.34 3.34 0 0 1 2.09-3.13v.19a3.37 3.37 0 0 1-.52 1.8 3.13 3.13 0 0 1-1.59 1.3m3.47-1.09a3.46 3.46 0 0 1 2 .37 3.11 3.11 0 0 1-1.85 1 3.82 3.82 0 0 1-2.13-.36 3.82 3.82 0 0 1 1.93-1m6.57-10.92a3.6 3.6 0 0 1-.38 1.61 2.56 2.56 0 0 1-.59.8 3.91 3.91 0 0 0-1 .6 2.808 2.808 0 0 1 0-.41 3.22 3.22 0 0 1 .39-1.61 3.65 3.65 0 0 1 1.55-1.45c.03.158.05.319.06.48m-17.88 53.32h-2.49l-1.17 2.12-1.21-2.12h-2.48l1.27-2.1-1.27-2.11h2.48l1.21-2.14 1.17 2.14h2.49l-1.28 2.11 1.28 2.1ZM62 80.985l-2.17-1.08-2.12 1.08.39-2.38-1.72-1.7 2.38-.38 1-2.1 1.12 2.13 2.34.38-1.66 1.7.44 2.35Zm-11.11-22.56 2.77.58 1.22-2.49 1.28 2.49 2.75-.58-1.15 2.54 2.13 1.79-2.7.67-.06 2.8-2.25-1.71-2.18 1.71v-2.8l-2.7-.67 2.14-1.79-1.25-2.54ZM59 95.755l-2.77-1.05-1.23 2.72-1.2-2.72-2.8 1.05 1-2.79-2.69-1.26 2.69-1.21-1-2.82 2.8 1.05 1.2-2.72 1.23 2.72 2.77-1.05-1 2.82 2.67 1.22-2.67 1.25 1 2.79Zm-15.25-19.6v2.78l-2.2-1.72-2.25 1.72v-2.78l-2.7-.73 2.14-1.77-1.15-2.54 2.73.56 1.28-2.49 1.22 2.49 2.79-.56-1.19 2.54 2 1.73-2.67.77Zm11.17 27.61a60.12 60.12 0 0 0 30-25 71.7 71.7 0 0 0 10.42-36.73V.695H14.51v41.31a71.81 71.81 0 0 0 10.43 36.73 60.31 60.31 0 0 0 30 25m47.73-20.64 1.67-10.26-4.77-4.26c.528-1.331.982-2.69 1.36-4.07 1.43 1.29 6.24 5.59 6.94 6.2a89.13 89.13 0 0 1-5.2 12.39m-6.94 3.11c-8.83 14-21.29 24.29-36 29.68l-4.8 1.74c-.47-.2-4.73-1.74-4.73-1.74-14.75-5.39-27.2-15.65-36.05-29.69a79.06 79.06 0 0 1-6.47-12.91c.76-.68 5.35-4.82 6.71-6a73.35 73.35 0 0 0 6.91 14.47c7.79 12.42 18.7 21.5 31.7 26.24l1.85.67 1.92-.67a62.68 62.68 0 0 0 31.75-26.27 71.31 71.31 0 0 0 6.94-14.47c1.32 1.21 5.94 5.35 6.71 6a80 80 0 0 1-6.47 12.92m4.64.32c-.47-.43-1.13-1-1.88-1.67a63.92 63.92 0 0 0 3-5.67l-1.12 7.34Zm-90.93 0-1.14-7.41c.91 2 2 3.85 3 5.72l-1.91 1.69M2 70.705c.69-.6 5.51-4.92 6.9-6.19.43 1.41.92 2.73 1.41 4l-4.77 4.28 1.65 10.23A90 90 0 0 1 2 70.705m98.15-9.28-.39 1.33c-.48 1.59-1 3.12-1.55 4.61l-3.49-3.12-.42 1.26a73.42 73.42 0 0 1-7.19 15.3 61.21 61.21 0 0 1-30.93 25.55l-1.29.46-1.26-.46a61.34 61.34 0 0 1-30.91-25.55 71 71 0 0 1-7.19-15.3l-.43-1.26-1 .88-2.47 2.23c-.54-1.48-1.08-3-1.56-4.6l-.38-1.33-1 .93L0 70.185l.15.53a100.23 100.23 0 0 0 8 18l.5 1 3.58-3.29c.14.24.26.5.4.73a73 73 0 0 0 36.92 30.39l5.34 2 5.4-2c15.13-5.52 27.87-16 36.89-30.38.14-.23.28-.5.42-.74l3.57 3.22.53-.95a96.9 96.9 0 0 0 8-18l.16-.52-9.71-8.75Zm-24.66-49a14.25 14.25 0 0 0-.85-5.17v18h.85v-12.83Zm-34.25 1.23a19.13 19.13 0 0 0 3.53.67v-.9a17.68 17.68 0 0 1-3.3-.65 14.67 14.67 0 0 0-4-.65 7.06 7.06 0 0 0-1.83.29v1a6.25 6.25 0 0 1 1.86-.35 15 15 0 0 1 3.7.62m0 10.94c1.157.33 2.342.55 3.54.66v-.86a17.78 17.78 0 0 1-3.31-.65 14.69 14.69 0 0 0-3.95-.64 6.66 6.66 0 0 0-1.83.29v1a5.33 5.33 0 0 1 1.86-.34 13.62 13.62 0 0 1 3.69.6m0-2.26a18.32 18.32 0 0 0 3.53.66v-.88a18.44 18.44 0 0 1-3.29-.66 14.29 14.29 0 0 0-4-.64 7.12 7.12 0 0 0-1.83.28v1a5.67 5.67 0 0 1 1.86-.35 14.53 14.53 0 0 1 3.7.61m0-6.59c1.16.32 2.343.54 3.54.66v-.9a17.891 17.891 0 0 1-3.32-.65 13.88 13.88 0 0 0-3.94-.64 7.12 7.12 0 0 0-1.83.28v1a5.63 5.63 0 0 1 1.86-.35 13.27 13.27 0 0 1 3.69.62m0 4.37c1.163.32 2.35.54 3.55.66v-.89a18.849 18.849 0 0 1-3.33-.65 14.55 14.55 0 0 0-3.93-.64 6.69 6.69 0 0 0-1.83.26v1a5.3 5.3 0 0 1 1.85-.32 13.63 13.63 0 0 1 3.69.61m0-8.85a16.91 16.91 0 0 0 3.53.66v-.89a17.68 17.68 0 0 1-3.3-.65 15.46 15.46 0 0 0-4-.63 7 7 0 0 0-1.82.28v1a5.57 5.57 0 0 1 1.85-.35c1.256.032 2.5.237 3.7.61m-10.41 10.36a5.68 5.68 0 0 1 1.87.35v-1a7.06 7.06 0 0 0-1.83-.29c-1.34.03-2.67.25-3.95.65a21 21 0 0 1-3.32.65v.89a19.89 19.89 0 0 0 3.51-.64 14.46 14.46 0 0 1 3.69-.61m0-2.18a4.9 4.9 0 0 1 1.86.33v-1a6.29 6.29 0 0 0-1.83-.27 14.55 14.55 0 0 0-3.93.64 21 21 0 0 1-3.34.66v.88a21.659 21.659 0 0 0 3.56-.66 13.5 13.5 0 0 1 3.68-.61m10.51-1.55a21.28 21.28 0 0 0 3.53.65v-.88a18.55 18.55 0 0 1-3.3-.66 14.66 14.66 0 0 0-4-.64 6.66 6.66 0 0 0-1.83.29v1a6.23 6.23 0 0 1 1.86-.34c1.256.03 2.502.239 3.7.62m-10.43 5.93a5.66 5.66 0 0 1 1.87.33v-1a6.79 6.79 0 0 0-1.84-.29c-1.34.04-2.668.259-3.95.65a18.9 18.9 0 0 1-3.32.64v.9a20.83 20.83 0 0 0 3.51-.63 13.63 13.63 0 0 1 3.7-.6m0-13.18a5.63 5.63 0 0 1 1.86.35v-1a6.24 6.24 0 0 0-1.82-.29 15 15 0 0 0-4 .63 17.78 17.78 0 0 1-3.31.65v.89a17 17 0 0 0 3.57-.65 13.64 13.64 0 0 1 3.7-.61m0 2.22a5.9 5.9 0 0 1 1.86.36v-1a7.59 7.59 0 0 0-1.83-.29 14.67 14.67 0 0 0-4 .65 17.78 17.78 0 0 1-3.31.65v.9a19.39 19.39 0 0 0 3.54-.67 14.05 14.05 0 0 1 3.7-.62m-3.88 4.15a18.74 18.74 0 0 1-3.32.65v.89c1.197-.12 2.38-.34 3.54-.66a13.63 13.63 0 0 1 3.69-.61 5.67 5.67 0 0 1 1.87.34v-1a6.24 6.24 0 0 0-1.82-.29 13.94 13.94 0 0 0-4 .64m4-1.89a5.93 5.93 0 0 1 1.86.34v-1a7 7 0 0 0-1.82-.28 13.88 13.88 0 0 0-3.94.64 19 19 0 0 1-3.34.66v.89a21.659 21.659 0 0 0 3.56-.66 13.51 13.51 0 0 1 3.68-.62m-15.49 64.62 1.93-.4-1.33 1.46-.6-1.06Zm1.67 1.76 1.41-1.54-.13-.47c-.26-.25-.52-.51-.77-.8-1.45.26-3.73.63-4.76.67l-.27-.31-.27.15c.14.24.27.48.4.72s.29.58.44.86l.26-.16-.11-.42 1.51-.34.8 1.41c-.34.399-.7.78-1.08 1.14l-.29-.35-.29.16.61 1.05.55 1 .29-.17-.14-.41c.27-.39 1.18-1.45 1.84-2.21m6.88 7.25.27-.2c-.18-.24-.37-.47-.55-.72l-.51-.73-.28.19.21.43c-.71.57-2.52 1.93-2.52 1.93.46-1.28 1-2.75 1.48-4.08-.17-.22-.34-.43-.5-.66s-.29-.45-.44-.69l-.26.2.19.42c-.348.309-.716.596-1.1.86l-1.21.88c-.44.31-.8.54-1.18.76l-.34-.33-.25.19c.17.24.35.47.53.73s.32.49.51.74l.26-.2-.21-.43c.71-.58 1.75-1.32 2.58-1.93-.53 1.34-1 2.74-1.56 4.15.132.15.255.306.37.47.12.15.23.33.31.45.39-.32.9-.7 1.5-1.14l1.17-.86c.39-.27.79-.53 1.2-.76l.33.33Zm.33 4a2.53 2.53 0 0 0-.22 3.56l.1.1a3.46 3.46 0 0 0 2.51 1.2l.09-.6a2.25 2.25 0 0 1-1.47-.72 1.83 1.83 0 0 1-.002-2.588l.002-.002.11-.1a1.6 1.6 0 0 1 2.26-.09l.14.15c.29.326.49.722.58 1.15l-.27.32.24.28a3.52 3.52 0 0 1 1.09-.64 4.84 4.84 0 0 0-1-1.56c-1.24-1.32-3-1.58-4.16-.46m9.44 8.94a1.72 1.72 0 0 1-2.37.55l-.1-.07a1.67 1.67 0 0 1-.121-2.36h.001l.12-.12a1.72 1.72 0 0 1 2.37-.55l.1.07a1.75 1.75 0 0 1 0 2.46m-3.51-2.89c-1.06 1.29-.81 2.75.58 3.92a2.66 2.66 0 0 0 3.77.09 1.75 1.75 0 0 0 .23-.24c1.11-1.28.85-2.74-.57-3.91a2.69 2.69 0 0 0-3.8-.07l-.2.21m10.93 6.58c-.32.5-.83.48-1.45.1a1.72 1.72 0 0 1-.37-.28l.22-.35a8.7 8.7 0 0 1 .59-.86c.217.09.424.2.62.33.52.32.64.68.39 1.06m.37-1.38-.93-.55-.93-.54-.76-.51-.18.29.36.32c-.215.418-.452.826-.71 1.22l-.72 1.25c-.3.44-.55.79-.82 1.14l-.45-.18-.17.29c.35.2.69.4 1 .62s.65.42 1 .64l.17-.28-.33-.33a9.18 9.18 0 0 1 .68-1.23l.25-.4.33.21c.08.76.16 2 .21 3 .485.21.953.458 1.4.74l.18-.27-.14-.21c-.09-.34-.33-2.17-.41-2.67a1.38 1.38 0 0 0 1.81-.43c.35-.58.36-1.32-.83-2.08m6 6.16-1.13-.52 1.32-1.46-.19 1.98Zm1.49-2.17-.38-.31a5.06 5.06 0 0 1-1.11-.19 41.83 41.83 0 0 1-3.38 3.39l-.41-.09-.13.3.76.34c.29.12.6.27.89.41l.15-.3-.37-.26 1-1.17 1.46.67a11.379 11.379 0 0 1-.2 1.54l-.44-.1-.13.3c.37.16.76.31 1.13.48l1 .5.14-.31-.35-.25c0-.47.07-1.86.16-2.87l.21-2.08Zm14.61 3.94a8 8 0 0 1-.59-1.26l-.55-1.33c-.22-.51-.38-.9-.52-1.32l.4-.26-.14-.3c-.37.17-.73.34-1.09.49l-1.11.46.14.3.47-.11c.21.39.41.77.63 1.26l.59 1.34c.22.49.37.89.52 1.31l-.39.26.13.3c.37-.16.73-.34 1.06-.49s.71-.31 1.09-.46l-.14-.3-.5.11Zm9.21-5c-.284-.38-.548-.773-.79-1.18l-.71-1.26a11.09 11.09 0 0 1-.67-1.22l.36-.32-.18-.28c-.3.19-.59.38-.9.55l-.93.54c.17.65.68 3.18.79 3.71-.57-.4-2.42-2-2.89-2.44l-.9.55c-.3.17-.62.34-.92.52l.17.27.42-.14.36.59c.36.61 1.45 2.56 1.73 3.12l-.35.31.16.28c.27-.15.51-.32.77-.48s.53-.29.8-.44l-.17-.28-.45.16c-.26-.35-.51-.71-.79-1.17l-.42-.72c-.35-.62-.6-1.06-.72-1.29 1.85 1.56 2.86 2.37 3.37 2.82l.69-.41-.88-4.32c.14.21.42.65.79 1.27l.44.71c.24.4.45.818.63 1.25l-.31.3.15.3a11.51 11.51 0 0 1 1-.63l1-.6-.16-.28-.49.21Zm5-3.67-1-1.06-.68-.82c-.28-.34-.6-.8-.86-1.18a2.79 2.79 0 0 1 .4-.44.86.86 0 0 1 1.34.05.84.84 0 0 1 .07 1.2.86.86 0 0 1-.14.13 1.15 1.15 0 0 1-.33.21l.25.63a4.07 4.07 0 0 0 .65-.43 1.84 1.84 0 0 0 .662-2.517l-.002-.003a1.43 1.43 0 0 0-.14-.2c-.57-.7-1.38-.76-2.28 0-.17.17-.43.39-.75.65l-.84.7-.84.66.21.25.43-.22.94 1 .87 1.14c.35.42.6.76.85 1.12l-.3.36.2.26c.31-.26.61-.52.93-.77l1.1-.84-.22-.26-.52.38Zm4.31-6.58-.94-1.74 1.81.87-.87.87Zm3.86-1c-.9-.318-1.778-.692-2.63-1.12l-1.92-.91-.42.25c-.17.31-.34.64-.56 1 .69 1.32 1.7 3.37 2.06 4.36l-.23.35.24.23c.18-.19.37-.4.56-.59l.7-.69-.23-.24-.37.26-.77-1.34 1.16-1.18c.46.21.907.447 1.34.71l-.24.38.24.23.83-.88.84-.81-.25-.23-.35.22Zm1.86-6.17c-.1.12-.21.23-.32.34l-.34-.25-.81-.65c.11-.18.2-.31.39-.58.38-.49.75-.57 1.1-.29a1 1 0 0 1 0 1.43m3.81-.86c-.35 0-2.23.12-2.74.14a1.36 1.36 0 0 0-.28-1.85c-.5-.41-1.23-.48-2.12.65-.22.29-.44.58-.64.87l-.63.84-.58.71.26.2.36-.32c.38.24.73.48 1.17.81l1.18.88c.35.29.68.59 1 .91l-.22.42.27.2.71-1c.24-.31.49-.61.74-.92l-.27-.2-.34.32c-.38-.23-.74-.48-1.18-.8l-.32-.29.21-.31c.74 0 2 0 3 .06.263-.45.557-.881.88-1.29l-.27-.2-.19.17Zm3.23-5.49a1.65 1.65 0 0 1-2.28.48l-.16-.12c-1-.56-1.39-1.48-.89-2.32a1.69 1.69 0 0 1 2.35-.43l.1.07a1.65 1.65 0 0 1 .88 2.32m-.16-3.52c-1.49-.87-2.85-.39-3.79 1.2a2.67 2.67 0 0 0 .56 3.73l.24.16c1.42.86 2.85.38 3.79-1.21a2.65 2.65 0 0 0-.538-3.71h-.002l-.26-.17m-39.74 31.7a1.14 1.14 0 1 0-.04 2.28 1.14 1.14 0 0 0 .04-2.28m-41.95-35.82a1.15 1.15 0 1 0 .283-2.283 1.15 1.15 0 0 0-.283 2.283m84.15 0a1.15 1.15 0 1 0-1.08-1.18v.05a1.17 1.17 0 0 0 1.12 1.13m70.54-6.69v30.51c0 12.53-5.15 18.37-16.23 18.37-12.83 0-15.53-10-15.53-18.37v-30.51h-3.74v30.51c0 14.38 6.49 21.68 19.27 21.68 13.26 0 20-7.3 20-21.68v-30.51h-3.77Zm28 13.24a13.88 13.88 0 0 0-12.84 7.74v-6.9h-3.32v36.88h3.32v-19.92c0-9 5-14.84 12.77-14.84 10 0 10 8.67 10 11.53v23.23h3.31v-22.74c0-4.09 0-15-13.25-15m21.47.86v36.88h3.32v-36.88h-3.32Zm0-11.28v5h3.32v-5h-3.32Zm36.24 11.28-12.17 32.77c-.44-1.12-13-32.77-13-32.77h-3.79l14.89 36.88H243l14-36.88h-3.71.07Zm21.64 2.12c8.22 0 12.69 7 12.95 14H262c.68-7 5.3-14 13-14m0-3a14.91 14.91 0 0 0-10.88 4.36c-3.58 3.61-5.57 9.29-5.48 15.56-.08 5.79 1.71 10.84 5.05 14.22a15.5 15.5 0 0 0 11.31 4.47c8.88 0 14.57-4.75 16-13.38l.06-.37h-3.32v.26c-1.26 6.59-6 10.53-12.71 10.53a11.75 11.75 0 0 1-8.71-3.48c-2.77-2.81-4.34-7.2-4.34-12.1v-.08h29.33v-1.68c0-5.65-1.68-10.49-4.8-13.74-2.87-3-6.75-4.53-11.53-4.53m25.58 8.16v-7.32h-3.32v36.88h3.32v-20.13c.29-5.52 1.47-7.61 4-10.22a12.09 12.09 0 0 1 9.77-3.43h.36v-3.33h-.31c-6.06-.26-11.87 3-13.84 7.52m31.66 9.14-1.13-.24c-5.51-1.16-10.71-2.26-10.71-7.42 0-4.91 5.24-6.67 10.15-6.67 3.86 0 10.35 1.16 10.44 8.93v.31h3.31v-.31c0-7.66-4.88-11.88-13.75-11.88-3.16 0-13.46.69-13.46 9.62 0 8 7.38 9.52 12.76 10.6l1 .2c5.74 1.17 11.19 2.26 11.19 7.86 0 6.65-7.85 7.37-11.21 7.37-6.72 0-11.32-4-11.71-10.28v-.3h-3.31v.32c.21 8.15 6 13.21 15 13.21 3.4 0 14.52-.74 14.52-10.32 0-7.88-5.94-9.62-13.12-11m19.95-16.43v36.88h3.32v-36.88h-3.32Zm55 0-12.27 32.53-13.28-32.53h-11.85v-11.27h-3.32v11.27h-6.71v3h6.71v25.63c0 2.84.7 4.9 2.13 6.28 2.2 2.14 5.84 2.2 8.76 2h.29v-2.94h-.33c-3 .07-5-.1-6.16-1.25-.93-.9-1.36-2.4-1.36-4.72v-25H379l14 33.36c-1.64 4.62-2.62 7.29-3.63 8.3-1.72 1.72-3.44 2.24-7.35 2.24h-.31v2.95h.29c4.05 0 6.65-.11 8.68-1.68 1.57-1.21 2.73-3.8 4.34-7.61l15.73-40.56h-3.63Zm-55-11.28v5h3.31v-5h-3.31ZM216.57 3.225c-11.31 0-19.2 8.31-19.2 22.25 0 16.69 10 24.24 19.36 24.24 11.31 0 18.82-8.68 18.82-22.41.15-14.71-7.51-24.08-19-24.08m-.53 50c-14.83-.31-27.31-11.67-26.92-27.37.38-12.35 10.33-26.37 28.45-25.84 12.61.23 26.77 9.68 26.39 27.06S228.8 53.605 216 53.225m218-51.8v-.73h-14.79v.73c2.94.19 3.75.77 3.75 4.93v18h-26.6v-18c0-4.16.81-4.74 3.74-4.93v-.73h-14.83v.73c2.94.19 3.75.77 3.75 4.93v40.51c0 4.16-.81 4.75-3.75 4.93v.73h14.83v-.73c-2.93-.18-3.74-.77-3.74-4.93v-19.34H423v19.34c0 4.16-.81 4.75-3.75 4.93v.73H434v-.73c-2.93-.18-3.74-.77-3.74-4.93V6.355c0-4.16.81-4.74 3.74-4.93M247.88.695v.73c2.86.16 3.67.47 3.67 3.46v42c0 4.17-.81 4.74-3.75 4.94v.72H259v-.72c-2.94-.2-3.75-.77-3.75-4.94V9.155c0 .68 28.95 35.81 35.19 43.37h1.2V4.885c0-3 .81-3.3 3.66-3.46v-.73h-11v.73c2.86.16 3.67.47 3.67 3.46v32.94L257.77.695h-9.89Zm61.79 33.16c3.37-8.24 8.57-21.35 8.57-21.35s4.66 11.74 8.64 21.35h-17.21ZM320.82.695h-1l-19 44.85c-.74 1.7-1.92 4.45-2.8 5.41a2.61 2.61 0 0 1-2 .85v.72h9.88v-.72c-.79 0-2.49 0-2.61-1.47a4.72 4.72 0 0 1 .29-1.54c.3-.92 2.29-5.94 4.81-11.66h19.8c1.95 4.82 3.73 8.94 4.56 10.77a9 9 0 0 1 .73 2.43c0 1.43-1.27 1.47-2.7 1.47v.72h13.82v-.72c-1.7-.12-2.25-.54-3.48-3.34L320.82.695Zm-192.2 0v.73c1.6.09 2.55.24 3.08.87a3.8 3.8 0 0 1 .41.77c.081.27.128.548.14.83v43c0 4.17-.81 4.74-3.74 4.94v.72h11.08v-.72c-2.94-.2-3.74-.77-3.74-4.94v-36c0-.69-.16-2-.16-2l.69 2 18 41.42h1.08l18.34-42.65.54-1.75a9.54 9.54 0 0 0-.16 1.6v37.33c0 4.17-.8 4.74-3.74 4.94v.72h14.83v-.72c-2.94-.2-3.74-.77-3.74-4.94v-42c0-3 .8-3.3 3.66-3.46v-.73h-11.54l-16.59 39.1-16.82-39.1-11.62.04Zm218.56 48.35a28.44 28.44 0 0 0 14.14 4.26h.31c8.11-.12 16.66-6.11 16.66-15.54 0-10.22-7.19-12.58-14.45-16.31s-10.39-5.41-10.39-10.22c0-3.28 2-8.07 8.48-8.07a11.55 11.55 0 0 1 5.46 1.34c5.26 2.92 5.52 7 6.2 9.65h.77l-.45-11.54a32.79 32.79 0 0 0-7.86-2.29 23.931 23.931 0 0 0-3.05-.22c-7.26 0-15.82 4.35-15.82 13.49 0 6.26 3.74 10.15 11.16 13.8s12.92 5.19 12.92 12.51c0 3.73-2.14 10.2-10.39 10.2a12.18 12.18 0 0 1-8-2.85c-4.9-4.62-4.79-8.28-5.16-9.64H347l.18 11.43Z"/></svg>